<?xml version="1.0" encoding="utf-8"?>
<!-- Generator: Adobe Illustrator 16.0.0, SVG Export Plug-In . SVG Version: 6.00 Build 0)  -->
<!DOCTYPE svg PUBLIC "-//W3C//DTD SVG 1.1//EN" "http://www.w3.org/Graphics/SVG/1.1/DTD/svg11.dtd">
<svg version="1.1" id="Layer_1" xmlns="http://www.w3.org/2000/svg" xmlns:xlink="http://www.w3.org/1999/xlink" x="0px" y="0px"
	 width="170.658px" height="254.813px" viewBox="21.223 23.073 170.658 254.813"
	 enable-background="new 21.223 23.073 170.658 254.813" xml:space="preserve">
<g>
	<path fill="#FFFFFF" d="M29.32,23.181h154.463c4.396,0,7.989,3.596,7.989,7.989v238.618c0,4.396-3.596,7.99-7.989,7.99H29.32
		c-4.395,0-7.989-3.596-7.989-7.99V31.17C21.331,26.777,24.926,23.181,29.32,23.181z"/>
	<path fill="none" stroke="#1F1A17" stroke-width="0.216" stroke-miterlimit="10" d="M29.32,23.181h154.463
		c4.396,0,7.989,3.596,7.989,7.989v238.618c0,4.396-3.596,7.99-7.989,7.99H29.32c-4.395,0-7.989-3.596-7.989-7.99V31.17
		C21.331,26.777,24.926,23.181,29.32,23.181z"/>
	<path fill="#1F1A17" d="M40.579,40.049L40.579,40.049c1.876,0,3.41,1.535,3.41,3.41v13.652c0,1.874-1.534,3.41-3.41,3.41
		c-1.875,0-3.41-1.535-3.41-3.41V43.459C37.169,41.583,38.704,40.049,40.579,40.049 M40.579,37.215L40.579,37.215
		c3.019,0,5.485,2.468,5.485,5.485v14.974c0,3.017-2.468,5.485-5.485,5.485c-3.017,0-5.484-2.469-5.484-5.485V42.701
		C35.094,39.683,37.562,37.215,40.579,37.215z"/>
	<rect x="29.555" y="37.206" fill="#1F1A17" width="2.137" height="25.936"/>
	<path fill="#1F1A17" d="M173.753,257.831L173.753,257.831c-1.876,0-3.41-1.535-3.41-3.41v-13.65c0-1.875,1.534-3.41,3.41-3.41
		c1.875,0,3.41,1.534,3.41,3.41v13.65C177.163,256.297,175.629,257.831,173.753,257.831 M173.753,260.665L173.753,260.665
		c-3.018,0-5.484-2.467-5.484-5.484v-14.973c0-3.019,2.468-5.485,5.484-5.485c3.018,0,5.485,2.468,5.485,5.485v14.973
		C179.239,258.198,176.771,260.665,173.753,260.665z"/>
	<rect x="182.64" y="234.739" fill="#1F1A17" width="2.137" height="25.936"/>
	<path fill="#171717" d="M86.138,74.649c-0.713-2.104-14.969-22.812-16.493-25.024V49.42c-0.003,0.002-0.03,0.041-0.071,0.103
		c-0.041-0.062-0.068-0.101-0.071-0.103v0.204c-1.525,2.213-15.78,22.921-16.494,25.024c-0.75,2.222-1.115,6.493,1.08,8.934
		c2.197,2.439,4.638,3.904,6.346,3.904c0.773,0,2.069,0.084,3.582-0.538c1.724-1.077,3.477-3.262,3.653-7.706
		c0,0,0.311,7.595-2.616,12.011c-0.184,0.344-0.375,0.664-0.589,0.926c0,0,3.979-0.336,5.109-0.326
		c1.131-0.01,5.109,0.326,5.109,0.326c-0.212-0.262-0.404-0.582-0.587-0.926c-2.927-4.416-2.616-12.011-2.616-12.011
		c0.175,4.444,1.929,6.628,3.653,7.706c1.511,0.622,2.808,0.538,3.58,0.538c1.709,0,4.149-1.465,6.346-3.904
		C87.256,81.142,86.889,76.871,86.138,74.649"/>
	<path fill="#171717" d="M157.17,75.989c-0.712-2.104-14.968-22.812-16.493-25.025V50.76c-0.003,0.003-0.029,0.042-0.071,0.103
		c-0.04-0.061-0.068-0.1-0.07-0.103v0.204c-1.526,2.214-15.781,22.921-16.494,25.025c-0.75,2.221-1.116,6.493,1.08,8.933
		c2.197,2.44,4.637,3.905,6.345,3.905c0.774,0,2.07,0.083,3.582-0.538c1.725-1.077,3.478-3.262,3.654-7.706
		c0,0,0.31,7.595-2.617,12.012c-0.183,0.343-0.375,0.663-0.588,0.925c0,0,3.979-0.336,5.109-0.326
		c1.131-0.01,5.108,0.326,5.108,0.326c-0.212-0.262-0.402-0.582-0.587-0.925c-2.926-4.417-2.615-12.012-2.615-12.012
		c0.175,4.444,1.929,6.629,3.653,7.706c1.51,0.621,2.808,0.538,3.58,0.538c1.709,0,4.149-1.465,6.345-3.905
		C158.288,82.482,157.921,78.21,157.17,75.989"/>
	<path fill="#171717" d="M121.654,98.773c-0.712-2.104-14.968-22.812-16.493-25.025v-0.204c-0.002,0.002-0.03,0.041-0.071,0.103
		c-0.04-0.062-0.067-0.101-0.07-0.103v0.204c-1.526,2.213-15.78,22.921-16.494,25.025c-0.75,2.222-1.116,6.493,1.08,8.933
		c2.195,2.44,4.637,3.905,6.345,3.905c0.774,0,2.07,0.084,3.582-0.538c1.724-1.077,3.478-3.261,3.654-7.705
		c0,0,0.309,7.595-2.618,12.011c-0.184,0.344-0.374,0.664-0.588,0.926c0,0,3.979-0.336,5.108-0.326
		c1.132-0.01,5.109,0.326,5.109,0.326c-0.212-0.262-0.404-0.582-0.587-0.926c-2.926-4.416-2.616-12.011-2.616-12.011
		c0.175,4.444,1.929,6.628,3.654,7.705c1.51,0.622,2.808,0.538,3.58,0.538c1.709,0,4.149-1.465,6.345-3.905
		C122.772,105.266,122.405,100.995,121.654,98.773"/>
	<path fill="#171717" d="M86.138,126.917c-0.713-2.104-14.969-22.811-16.493-25.024v-0.204c-0.003,0.002-0.03,0.042-0.071,0.103
		c-0.041-0.061-0.068-0.101-0.071-0.103v0.204c-1.525,2.213-15.78,22.921-16.494,25.024c-0.75,2.222-1.115,6.493,1.08,8.934
		c2.197,2.439,4.638,3.904,6.346,3.904c0.773,0,2.069,0.084,3.582-0.538c1.724-1.077,3.477-3.262,3.653-7.706
		c0,0,0.311,7.595-2.616,12.011c-0.184,0.344-0.375,0.664-0.589,0.926c0,0,3.979-0.336,5.109-0.326
		c1.131-0.01,5.109,0.326,5.109,0.326c-0.212-0.262-0.404-0.582-0.587-0.926c-2.927-4.416-2.616-12.011-2.616-12.011
		c0.175,4.444,1.929,6.629,3.653,7.706c1.511,0.622,2.808,0.538,3.58,0.538c1.709,0,4.149-1.465,6.346-3.904
		C87.256,133.411,86.889,129.139,86.138,126.917"/>
	<path fill="#171717" d="M157.17,126.248c-0.712-2.104-14.968-22.812-16.493-25.025v-0.204c-0.003,0.002-0.029,0.042-0.071,0.103
		c-0.04-0.062-0.068-0.101-0.07-0.103v0.204c-1.526,2.213-15.781,22.921-16.494,25.025c-0.75,2.222-1.116,6.493,1.08,8.933
		c2.197,2.44,4.637,3.905,6.345,3.905c0.774,0,2.07,0.083,3.582-0.538c1.725-1.077,3.478-3.261,3.654-7.706
		c0,0,0.31,7.596-2.617,12.012c-0.183,0.344-0.375,0.663-0.588,0.926c0,0,3.979-0.337,5.109-0.327
		c1.131-0.01,5.108,0.327,5.108,0.327c-0.212-0.263-0.402-0.582-0.587-0.926c-2.926-4.416-2.615-12.012-2.615-12.012
		c0.175,4.445,1.929,6.629,3.653,7.706c1.51,0.622,2.808,0.538,3.58,0.538c1.709,0,4.149-1.465,6.345-3.905
		C158.288,132.741,157.921,128.469,157.17,126.248"/>
	<path fill="#171717" d="M125.65,223.764c0.712,2.104,14.968,22.813,16.493,25.025v0.203c0.003-0.002,0.029-0.041,0.071-0.103
		c0.04,0.062,0.068,0.101,0.07,0.103v-0.203c1.526-2.215,15.781-22.922,16.494-25.025c0.75-2.221,1.116-6.493-1.08-8.934
		c-2.196-2.439-4.637-3.904-6.345-3.904c-0.774,0-2.07-0.084-3.582,0.537c-1.725,1.078-3.478,3.263-3.654,7.707
		c0,0-0.309-7.596,2.617-12.012c0.183-0.344,0.375-0.664,0.588-0.927c0,0-3.979,0.337-5.109,0.327
		c-1.131,0.01-5.108-0.327-5.108-0.327c0.212,0.263,0.402,0.583,0.587,0.927c2.926,4.416,2.616,12.012,2.616,12.012
		c-0.176-4.444-1.93-6.629-3.654-7.707c-1.51-0.621-2.808-0.537-3.581-0.537c-1.709,0-4.149,1.465-6.345,3.904
		C124.533,217.271,124.899,221.543,125.65,223.764"/>
	<path fill="#171717" d="M54.619,222.424c0.712,2.104,14.968,22.811,16.493,25.023v0.204c0.002-0.002,0.03-0.041,0.071-0.103
		c0.04,0.062,0.067,0.101,0.069,0.103v-0.204c1.526-2.213,15.781-22.921,16.494-25.023c0.75-2.223,1.116-6.493-1.08-8.934
		c-2.195-2.439-4.637-3.904-6.345-3.904c-0.774,0-2.07-0.084-3.582,0.537c-1.724,1.078-3.477,3.262-3.654,7.707
		c0,0-0.309-7.596,2.617-12.012c0.183-0.344,0.375-0.664,0.588-0.926c0,0-3.979,0.336-5.108,0.326
		c-1.132,0.011-5.109-0.326-5.109-0.326c0.212,0.262,0.404,0.582,0.587,0.926c2.926,4.416,2.616,12.012,2.616,12.012
		c-0.175-4.445-1.929-6.629-3.654-7.707c-1.51-0.621-2.808-0.537-3.58-0.537c-1.71,0-4.149,1.465-6.345,3.904
		C53.501,215.931,53.868,220.204,54.619,222.424"/>
	<path fill="#171717" d="M90.135,199.64c0.713,2.104,14.969,22.812,16.493,25.024v0.205c0.003-0.004,0.03-0.043,0.071-0.104
		c0.041,0.061,0.068,0.1,0.071,0.104v-0.205c1.525-2.213,15.78-22.92,16.494-25.024c0.75-2.222,1.115-6.493-1.079-8.933
		c-2.197-2.44-4.638-3.904-6.346-3.904c-0.773,0-2.069-0.084-3.582,0.537c-1.724,1.076-3.478,3.262-3.653,7.705
		c0,0-0.311-7.596,2.617-12.012c0.183-0.343,0.375-0.662,0.588-0.925c0,0-3.979,0.336-5.109,0.327
		c-1.131,0.01-5.109-0.327-5.109-0.327c0.213,0.263,0.404,0.583,0.588,0.925c2.926,4.416,2.615,12.012,2.615,12.012
		c-0.175-4.443-1.929-6.629-3.653-7.705c-1.511-0.621-2.809-0.537-3.58-0.537c-1.709,0-4.149,1.464-6.346,3.904
		C89.017,193.147,89.384,197.418,90.135,199.64"/>
	<path fill="#171717" d="M125.65,171.497c0.712,2.104,14.968,22.812,16.493,25.024v0.204c0.003-0.003,0.029-0.042,0.071-0.104
		c0.04,0.062,0.068,0.101,0.07,0.104v-0.204c1.526-2.214,15.781-22.921,16.494-25.024c0.75-2.222,1.116-6.494-1.08-8.934
		s-4.637-3.904-6.345-3.904c-0.774,0-2.07-0.084-3.582,0.537c-1.725,1.077-3.478,3.262-3.654,7.706c0,0-0.309-7.596,2.617-12.012
		c0.183-0.343,0.375-0.663,0.588-0.927c0,0-3.979,0.338-5.109,0.328c-1.131,0.01-5.108-0.328-5.108-0.328
		c0.212,0.264,0.402,0.584,0.587,0.927c2.926,4.416,2.616,12.012,2.616,12.012c-0.176-4.444-1.93-6.629-3.654-7.706
		c-1.51-0.621-2.808-0.537-3.581-0.537c-1.709,0-4.149,1.465-6.345,3.904S124.899,169.274,125.65,171.497"/>
	<path fill="#171717" d="M54.619,172.167c0.712,2.104,14.968,22.811,16.493,25.024v0.204c0.002-0.003,0.03-0.042,0.071-0.104
		c0.04,0.062,0.067,0.101,0.069,0.104v-0.204c1.526-2.214,15.781-22.921,16.494-25.024c0.75-2.222,1.116-6.494-1.08-8.934
		c-2.195-2.439-4.637-3.904-6.345-3.904c-0.774,0-2.07-0.084-3.582,0.537c-1.724,1.077-3.477,3.262-3.654,7.707
		c0,0-0.309-7.597,2.617-12.013c0.183-0.343,0.375-0.663,0.588-0.925c0,0-3.979,0.336-5.108,0.326
		c-1.132,0.01-5.109-0.326-5.109-0.326c0.212,0.262,0.404,0.582,0.587,0.925c2.926,4.416,2.616,12.013,2.616,12.013
		c-0.175-4.445-1.929-6.63-3.654-7.707c-1.51-0.621-2.808-0.537-3.58-0.537c-1.71,0-4.149,1.463-6.345,3.904
		C53.501,165.672,53.868,169.945,54.619,172.167"/>
	<path fill="#171717" d="M46.547,78.568c-0.36-1.068-7.599-11.581-8.373-12.704V65.76c-0.001,0.001-0.015,0.021-0.035,0.052
		c-0.021-0.031-0.035-0.051-0.036-0.052v0.104c-0.774,1.124-8.012,11.636-8.374,12.704c-0.38,1.128-0.566,3.296,0.548,4.535
		s2.354,1.982,3.221,1.982c0.394,0,1.051,0.043,1.818-0.273c0.875-0.546,1.766-1.655,1.854-3.912c0,0,0.157,3.856-1.329,6.098
		c-0.093,0.174-0.189,0.337-0.298,0.47c0,0,2.021-0.171,2.595-0.166c0.573-0.005,2.594,0.166,2.594,0.166
		c-0.108-0.133-0.205-0.296-0.298-0.47c-1.485-2.242-1.328-6.098-1.328-6.098c0.089,2.257,0.979,3.366,1.854,3.912
		c0.768,0.316,1.425,0.273,1.817,0.273c0.868,0,2.106-0.744,3.222-1.982C47.114,81.864,46.928,79.696,46.547,78.568"/>
	<path fill="#171717" d="M169.657,221.827c0.361,1.068,7.599,11.582,8.373,12.705v0.104c0.001-0.002,0.015-0.021,0.036-0.053
		c0.021,0.031,0.035,0.051,0.036,0.053v-0.104c0.774-1.123,8.012-11.637,8.374-12.705c0.381-1.127,0.566-3.295-0.549-4.535
		c-1.114-1.238-2.354-1.981-3.221-1.981c-0.393,0-1.051-0.042-1.817,0.272c-0.875,0.547-1.767,1.655-1.855,3.912
		c0,0-0.157-3.855,1.329-6.098c0.093-0.174,0.19-0.336,0.298-0.471c0,0-2.02,0.172-2.594,0.166
		c-0.574,0.006-2.594-0.166-2.594-0.166c0.107,0.135,0.205,0.297,0.298,0.471c1.484,2.242,1.328,6.098,1.328,6.098
		c-0.09-2.257-0.979-3.365-1.855-3.912c-0.767-0.314-1.425-0.272-1.818-0.272c-0.867,0-2.105,0.744-3.221,1.981
		C169.09,218.53,169.276,220.7,169.657,221.827"/>
</g>
</svg>
