<?xml version="1.0" encoding="utf-8"?>
<!-- Generator: Adobe Illustrator 16.0.0, SVG Export Plug-In . SVG Version: 6.00 Build 0)  -->
<!DOCTYPE svg PUBLIC "-//W3C//DTD SVG 1.1//EN" "http://www.w3.org/Graphics/SVG/1.1/DTD/svg11.dtd">
<svg version="1.1" id="Layer_1" xmlns="http://www.w3.org/2000/svg" xmlns:xlink="http://www.w3.org/1999/xlink" x="0px" y="0px"
	 width="170.658px" height="254.813px" viewBox="12.972 13.882 170.658 254.813"
	 enable-background="new 12.972 13.882 170.658 254.813" xml:space="preserve">
<g>
	<path fill="#FFFFFF" d="M21.069,13.99h154.463c4.395,0,7.989,3.595,7.989,7.989v238.618c0,4.396-3.596,7.989-7.989,7.989H21.069
		c-4.396,0-7.989-3.596-7.989-7.989V21.979C13.08,17.585,16.675,13.99,21.069,13.99z"/>
	<path fill="none" stroke="#1F1A17" stroke-width="0.216" stroke-miterlimit="10" d="M21.069,13.99h154.463
		c4.395,0,7.989,3.595,7.989,7.989v238.618c0,4.396-3.596,7.989-7.989,7.989H21.069c-4.396,0-7.989-3.596-7.989-7.989V21.979
		C13.08,17.585,16.675,13.99,21.069,13.99z"/>
	<path fill="#171717" d="M37.877,69.372c-0.36-1.067-7.599-11.58-8.373-12.704v-0.104c-0.002,0.001-0.016,0.021-0.036,0.052
		c-0.021-0.03-0.034-0.051-0.034-0.051l-0.001,0.103c-0.774,1.124-8.013,11.637-8.373,12.704c-0.381,1.128-0.567,3.297,0.548,4.535
		c1.115,1.239,2.354,1.982,3.221,1.982c0.395,0,1.052,0.042,1.818-0.272c0.876-0.547,1.766-1.656,1.854-3.912
		c0,0,0.157,3.855-1.329,6.098c-0.093,0.174-0.188,0.337-0.298,0.47c0,0,2.021-0.171,2.594-0.166
		c0.574-0.005,2.595,0.166,2.595,0.166c-0.108-0.133-0.205-0.296-0.299-0.47c-1.485-2.242-1.328-6.098-1.328-6.098
		c0.089,2.256,0.979,3.365,1.854,3.912c0.768,0.314,1.425,0.272,1.817,0.272c0.868,0,2.105-0.743,3.222-1.982
		C38.444,72.669,38.258,70.5,37.877,69.372"/>
	<path fill="#171717" d="M160.183,213.436c0.36,1.066,7.6,11.58,8.373,12.704v0.104c0.002-0.002,0.016-0.021,0.035-0.053
		c0.021,0.03,0.035,0.051,0.036,0.053v-0.104c0.774-1.124,8.013-11.638,8.373-12.704c0.381-1.128,0.567-3.297-0.548-4.535
		c-1.114-1.238-2.354-1.982-3.221-1.982c-0.395,0-1.052-0.043-1.818,0.272c-0.876,0.548-1.766,1.656-1.854,3.912
		c0,0-0.157-3.854,1.329-6.099c0.093-0.174,0.188-0.336,0.298-0.469c0,0-2.021,0.17-2.595,0.166
		c-0.573,0.004-2.594-0.166-2.594-0.166c0.108,0.133,0.205,0.295,0.299,0.469c1.485,2.242,1.328,6.099,1.328,6.099
		c-0.089-2.256-0.979-3.364-1.854-3.912c-0.768-0.315-1.425-0.272-1.817-0.272c-0.868,0-2.105,0.744-3.222,1.982
		S159.802,212.308,160.183,213.436"/>
	<path fill="#171717" d="M113.202,145.646c-0.625-1.849-13.141-20.026-14.479-21.969v-0.18c-0.002,0.002-0.026,0.037-0.063,0.09
		c-0.035-0.053-0.06-0.088-0.062-0.09v0.18c-1.341,1.942-13.854,20.121-14.48,21.969c-0.658,1.95-0.979,5.7,0.948,7.842
		c1.928,2.144,4.07,3.429,5.57,3.429c0.679,0,1.816,0.074,3.145-0.473c1.514-0.945,3.053-2.863,3.208-6.766
		c0,0,0.271,6.669-2.298,10.545c-0.161,0.302-0.329,0.583-0.518,0.813c0,0,3.493-0.295,4.485-0.287
		c0.993-0.008,4.485,0.287,4.485,0.287c-0.188-0.229-0.354-0.512-0.517-0.813c-2.567-3.876-2.297-10.545-2.297-10.545
		c0.153,3.902,1.693,5.82,3.208,6.766c1.325,0.547,2.465,0.473,3.145,0.473c1.5,0,3.643-1.285,5.569-3.429
		C114.184,151.347,113.861,147.597,113.202,145.646"/>
	<path fill="#171717" d="M148.718,66.102c-0.625-1.847-13.14-20.025-14.479-21.969v-0.179c-0.003,0.002-0.026,0.036-0.063,0.09
		c-0.034-0.054-0.06-0.088-0.062-0.09v0.179c-1.34,1.943-13.854,20.122-14.479,21.969c-0.658,1.951-0.979,5.701,0.947,7.843
		s4.071,3.428,5.57,3.428c0.68,0,1.816,0.073,3.145-0.472c1.515-0.945,3.054-2.863,3.208-6.766c0,0,0.271,6.668-2.298,10.545
		c-0.161,0.302-0.329,0.582-0.516,0.813c0,0,3.492-0.295,4.483-0.286c0.993-0.009,4.485,0.286,4.485,0.286
		c-0.187-0.23-0.354-0.511-0.516-0.813c-2.568-3.877-2.296-10.545-2.296-10.545c0.152,3.902,1.692,5.82,3.207,6.766
		c1.325,0.545,2.465,0.472,3.144,0.472c1.501,0,3.643-1.286,5.57-3.428C149.699,71.803,149.377,68.053,148.718,66.102"/>
	<path fill="#171717" d="M77.686,66.102c-0.624-1.847-13.141-20.025-14.479-21.969v-0.179c-0.003,0.002-0.025,0.036-0.063,0.09
		c-0.035-0.054-0.061-0.088-0.063-0.09v0.179c-1.34,1.943-13.854,20.122-14.479,21.969c-0.658,1.951-0.979,5.701,0.947,7.843
		c1.928,2.142,4.07,3.428,5.57,3.428c0.679,0,1.817,0.073,3.146-0.472c1.514-0.945,3.052-2.863,3.207-6.766
		c0,0,0.271,6.668-2.298,10.545c-0.16,0.302-0.328,0.582-0.517,0.813c0,0,3.492-0.295,4.485-0.286
		c0.993-0.009,4.484,0.286,4.484,0.286c-0.187-0.23-0.354-0.511-0.516-0.813c-2.569-3.877-2.297-10.545-2.297-10.545
		c0.152,3.902,1.692,5.82,3.208,6.766c1.325,0.545,2.464,0.472,3.143,0.472c1.501,0,3.645-1.286,5.57-3.428
		C78.667,71.803,78.346,68.053,77.686,66.102"/>
	<path fill="#171717" d="M47.934,216.651c0.624,1.848,13.14,20.025,14.479,21.969v0.18c0.003-0.002,0.026-0.036,0.063-0.09
		c0.035,0.054,0.06,0.088,0.062,0.09v-0.18c1.34-1.943,13.854-20.121,14.48-21.969c0.657-1.951,0.979-5.701-0.948-7.843
		s-4.07-3.429-5.57-3.429c-0.679,0-1.816-0.072-3.144,0.473c-1.516,0.945-3.053,2.863-3.208,6.766c0,0-0.271-6.668,2.297-10.545
		c0.161-0.302,0.329-0.582,0.517-0.813c0,0-3.491,0.295-4.484,0.285c-0.993,0.01-4.485-0.285-4.485-0.285
		c0.188,0.23,0.354,0.511,0.516,0.813c2.569,3.877,2.298,10.545,2.298,10.545c-0.153-3.902-1.693-5.818-3.208-6.766
		c-1.325-0.545-2.465-0.473-3.144-0.473c-1.501,0-3.643,1.287-5.57,3.429C46.952,210.95,47.273,214.7,47.934,216.651"/>
	<path fill="#171717" d="M120.306,216.651c0.624,1.848,13.14,20.025,14.479,21.969v0.18c0.002-0.002,0.026-0.036,0.063-0.09
		c0.034,0.054,0.06,0.088,0.062,0.09v-0.18c1.34-1.943,13.854-20.121,14.48-21.969c0.657-1.951,0.979-5.701-0.948-7.843
		s-4.07-3.429-5.57-3.429c-0.679,0-1.816-0.072-3.145,0.473c-1.515,0.945-3.054,2.863-3.207,6.766c0,0-0.271-6.668,2.297-10.545
		c0.161-0.302,0.329-0.582,0.517-0.813c0,0-3.493,0.295-4.484,0.285c-0.993,0.01-4.485-0.285-4.485-0.285
		c0.187,0.23,0.354,0.511,0.516,0.813c2.568,3.877,2.297,10.545,2.297,10.545c-0.152-3.902-1.692-5.818-3.208-6.766
		c-1.324-0.545-2.465-0.473-3.143-0.473c-1.501,0-3.644,1.287-5.57,3.429C119.324,210.95,119.646,214.7,120.306,216.651"/>
	<path fill="#1F1A17" d="M29.977,54.011L29.977,54.011c-3.018,0-5.484-2.47-5.485-5.485v-0.008h2.16
		c0.345,1.517,1.708,2.66,3.326,2.66c1.875,0,3.409-1.534,3.409-3.41v-4.714c0-1.875-1.534-3.41-3.41-3.41
		c-1.662,0-3.057,1.208-3.352,2.787h-2.133c0.001-0.095,0.004-0.189,0.01-0.283h-0.011V28.389l8.828-0.053h2.137h0.006v2.613h-0.006
		v3.063H33.32v-3.063h-6.691v7.206c0.929-0.72,2.091-1.15,3.349-1.149c3.018,0,5.485,2.469,5.485,5.485l-0.001,6.034
		C35.462,51.542,32.994,54.011,29.977,54.011"/>
	<path fill="#1F1A17" d="M168.689,226.354L168.689,226.354c3.018,0,5.484,2.469,5.484,5.484v0.009h-2.159
		c-0.346-1.519-1.707-2.66-3.325-2.66c-1.875,0-3.409,1.534-3.409,3.41v4.714c0,1.875,1.533,3.408,3.409,3.408
		c1.663,0,3.056-1.206,3.352-2.785h2.133c-0.001,0.095-0.005,0.189-0.01,0.283h0.011v13.759l-8.827,0.052h-2.138h-0.006v-2.611
		h0.006v-3.063h2.138v3.063h6.69v-7.207c-0.928,0.721-2.09,1.15-3.349,1.149c-3.018,0-5.485-2.469-5.485-5.485v-6.033
		C163.204,228.823,165.673,226.354,168.689,226.354"/>
</g>
</svg>
