<?xml version="1.0" encoding="utf-8"?>
<!-- Generator: Adobe Illustrator 16.0.0, SVG Export Plug-In . SVG Version: 6.00 Build 0)  -->
<!DOCTYPE svg PUBLIC "-//W3C//DTD SVG 1.1//EN" "http://www.w3.org/Graphics/SVG/1.1/DTD/svg11.dtd">
<svg version="1.1" id="Layer_1" xmlns="http://www.w3.org/2000/svg" xmlns:xlink="http://www.w3.org/1999/xlink" x="0px" y="0px"
	 width="170.657px" height="254.813px" viewBox="16.97 18.863 170.657 254.813"
	 enable-background="new 16.97 18.863 170.657 254.813" xml:space="preserve">
<g>
	<path fill="#FFFFFF" d="M25.067,18.971H179.53c4.395,0,7.989,3.596,7.989,7.989v238.619c0,4.394-3.595,7.989-7.989,7.989H25.067
		c-4.395,0-7.989-3.596-7.989-7.989V26.96C17.078,22.566,20.673,18.971,25.067,18.971z"/>
	<path fill="none" stroke="#1F1A17" stroke-width="0.216" stroke-miterlimit="10" d="M25.067,18.971H179.53
		c4.395,0,7.989,3.596,7.989,7.989v238.619c0,4.394-3.595,7.989-7.989,7.989H25.067c-4.395,0-7.989-3.596-7.989-7.989V26.96
		C17.078,22.566,20.673,18.971,25.067,18.971z"/>
	<path fill="#1F1A17" d="M32.684,37.704L32.684,37.704c1.876,0,3.41,1.537,3.41,3.41v2.049c0,1.873-1.534,3.41-3.41,3.41
		c-1.875,0-3.409-1.534-3.409-3.41v-2.049C29.274,39.238,30.809,37.704,32.684,37.704 M32.684,34.87L32.684,34.87
		c3.018,0,5.485,2.469,5.485,5.485v3.37c0,0.116-0.004,0.229-0.012,0.343h0.012v9.611v0.796v0.762c0,3.016-2.468,5.485-5.485,5.485
		s-5.485-2.468-5.485-5.485V53.68h2.076v0.995c0,1.875,1.534,3.409,3.409,3.409c1.876,0,3.41-1.536,3.41-3.409v-0.199h-0.062v-6.415
		c-0.928,0.719-2.09,1.15-3.349,1.15c-3.017,0-5.485-2.468-5.485-5.485v-3.37C27.198,37.338,29.667,34.87,32.684,34.87z"/>
	<path fill="#1F1A17" d="M173.407,253.896L173.407,253.896c-1.876,0-3.41-1.537-3.41-3.41v-2.049c0-1.873,1.534-3.41,3.41-3.41
		c1.877,0,3.41,1.535,3.41,3.41v2.049C176.817,252.361,175.284,253.896,173.407,253.896 M173.407,256.73L173.407,256.73
		c-3.018,0-5.484-2.47-5.484-5.485v-3.371c0-0.115,0.004-0.229,0.012-0.343h-0.012v-9.61v-0.796v-0.762
		c0-3.016,2.468-5.485,5.484-5.485c3.018,0,5.485,2.468,5.485,5.485v1.559h-2.075v-0.995c0-1.875-1.533-3.409-3.41-3.409
		c-1.876,0-3.41,1.537-3.41,3.409v0.199h0.063v6.415c0.928-0.72,2.091-1.15,3.35-1.15c3.018,0,5.484,2.469,5.484,5.485v3.371
		C178.893,254.262,176.424,256.73,173.407,256.73z"/>
	<path fill="#171717" d="M41.06,74.475c-0.361-1.067-7.599-11.58-8.373-12.704v-0.104c-0.001,0.001-0.015,0.021-0.036,0.052
		c-0.021-0.03-0.034-0.051-0.035-0.052v0.104c-0.775,1.124-8.012,11.637-8.374,12.704c-0.381,1.128-0.566,3.297,0.548,4.535
		c1.115,1.239,2.354,1.982,3.222,1.982c0.393,0,1.051,0.043,1.818-0.273c0.875-0.546,1.766-1.656,1.854-3.912
		c0,0,0.157,3.855-1.328,6.098c-0.093,0.174-0.19,0.337-0.299,0.47c0,0,2.02-0.171,2.594-0.166c0.574-0.005,2.594,0.166,2.594,0.166
		c-0.107-0.133-0.205-0.295-0.298-0.47c-1.485-2.242-1.328-6.098-1.328-6.098c0.089,2.256,0.979,3.365,1.854,3.912
		c0.767,0.316,1.426,0.273,1.818,0.273c0.867,0,2.106-0.743,3.221-1.982C41.627,77.771,41.441,75.603,41.06,74.475"/>
	<path fill="#171717" d="M115.859,150.826c-0.625-1.848-13.14-20.025-14.479-21.969v-0.18c-0.003,0.003-0.026,0.037-0.063,0.09
		c-0.036-0.053-0.06-0.087-0.062-0.09v0.18c-1.34,1.943-13.854,20.122-14.48,21.969c-0.658,1.949-0.979,5.699,0.947,7.842
		c1.929,2.143,4.071,3.428,5.57,3.428c0.68,0,1.818,0.073,3.145-0.472c1.514-0.946,3.053-2.863,3.208-6.765
		c0,0,0.271,6.668-2.298,10.545c-0.16,0.301-0.328,0.582-0.516,0.813c0,0,3.492-0.296,4.485-0.287
		c0.993-0.009,4.483,0.287,4.483,0.287c-0.186-0.23-0.354-0.512-0.516-0.813c-2.568-3.877-2.296-10.545-2.296-10.545
		c0.153,3.901,1.693,5.818,3.208,6.765c1.325,0.545,2.465,0.472,3.143,0.472c1.502,0,3.644-1.285,5.57-3.428
		C116.84,156.525,116.519,152.775,115.859,150.826"/>
	<path fill="#171717" d="M164.965,216.65c0.361,1.068,7.599,11.58,8.371,12.705v0.104c0.002-0.001,0.017-0.021,0.037-0.052
		c0.021,0.03,0.035,0.051,0.035,0.052v-0.104c0.775-1.125,8.012-11.637,8.375-12.705c0.381-1.127,0.565-3.297-0.549-4.534
		c-1.115-1.239-2.354-1.982-3.222-1.982c-0.394,0-1.052-0.043-1.818,0.273c-0.875,0.546-1.766,1.655-1.854,3.911
		c0,0-0.156-3.855,1.328-6.098c0.094-0.174,0.19-0.337,0.299-0.47c0,0-2.02,0.171-2.594,0.166c-0.574,0.005-2.594-0.166-2.594-0.166
		c0.107,0.133,0.205,0.296,0.299,0.47c1.484,2.242,1.328,6.098,1.328,6.098c-0.09-2.256-0.98-3.365-1.855-3.911
		c-0.766-0.316-1.426-0.273-1.817-0.273c-0.866,0-2.106,0.743-3.221,1.982C164.397,213.354,164.583,215.523,164.965,216.65"/>
	<path fill="#171717" d="M81.014,120.671c-0.625-1.847-13.14-20.025-14.479-21.969v-0.179c-0.003,0.002-0.026,0.037-0.063,0.09
		c-0.036-0.054-0.06-0.088-0.062-0.09v0.179c-1.34,1.943-13.854,20.122-14.48,21.969c-0.658,1.951-0.979,5.701,0.947,7.843
		c1.929,2.142,4.071,3.428,5.57,3.428c0.68,0,1.818,0.073,3.145-0.472c1.514-0.945,3.053-2.863,3.208-6.766
		c0,0,0.271,6.668-2.298,10.545c-0.16,0.302-0.328,0.583-0.516,0.813c0,0,3.492-0.295,4.485-0.287
		c0.993-0.009,4.484,0.287,4.484,0.287c-0.186-0.229-0.354-0.511-0.516-0.813c-2.568-3.877-2.296-10.545-2.296-10.545
		c0.153,3.902,1.693,5.82,3.208,6.766c1.325,0.545,2.464,0.472,3.143,0.472c1.501,0,3.643-1.286,5.57-3.428
		C81.995,126.372,81.673,122.622,81.014,120.671"/>
	<path fill="#171717" d="M153.386,122.011c-0.625-1.847-13.14-20.025-14.479-21.969v-0.179c-0.003,0.002-0.025,0.037-0.063,0.09
		c-0.036-0.053-0.061-0.087-0.063-0.09v0.179c-1.339,1.943-13.854,20.122-14.479,21.969c-0.657,1.951-0.979,5.701,0.947,7.842
		c1.93,2.143,4.071,3.428,5.57,3.428c0.68,0,1.818,0.073,3.145-0.472c1.515-0.945,3.054-2.863,3.209-6.765
		c0,0,0.271,6.668-2.299,10.545c-0.16,0.301-0.328,0.583-0.516,0.813c0,0,3.492-0.296,4.484-0.287
		c0.992-0.009,4.484,0.287,4.484,0.287c-0.186-0.23-0.354-0.512-0.516-0.813c-2.568-3.877-2.296-10.545-2.296-10.545
		c0.153,3.902,1.692,5.82,3.207,6.765c1.325,0.545,2.465,0.472,3.144,0.472c1.502,0,3.643-1.286,5.57-3.428
		C154.368,127.712,154.045,123.962,153.386,122.011"/>
	<path fill="#171717" d="M152.715,71.083c-0.625-1.847-13.139-20.025-14.479-21.969v-0.18c-0.003,0.003-0.025,0.037-0.063,0.09
		c-0.035-0.053-0.061-0.087-0.063-0.09v0.18c-1.34,1.943-13.854,20.122-14.479,21.969c-0.659,1.95-0.98,5.7,0.947,7.842
		c1.926,2.142,4.07,3.428,5.569,3.428c0.681,0,1.817,0.073,3.146-0.472c1.514-0.946,3.053-2.863,3.207-6.765
		c0,0,0.271,6.668-2.297,10.545c-0.162,0.301-0.33,0.582-0.517,0.813c0,0,3.492-0.296,4.483-0.287
		c0.994-0.009,4.486,0.287,4.486,0.287c-0.188-0.23-0.354-0.511-0.517-0.813c-2.567-3.877-2.296-10.545-2.296-10.545
		c0.152,3.902,1.693,5.819,3.207,6.765c1.326,0.545,2.465,0.472,3.144,0.472c1.501,0,3.644-1.286,5.57-3.428
		C153.697,76.783,153.375,73.033,152.715,71.083"/>
	<path fill="#171717" d="M81.684,71.083c-0.624-1.847-13.14-20.025-14.479-21.969v-0.18c-0.003,0.003-0.026,0.037-0.063,0.09
		c-0.035-0.053-0.06-0.087-0.062-0.09v0.18c-1.34,1.943-13.854,20.122-14.48,21.969c-0.658,1.95-0.979,5.7,0.948,7.842
		c1.927,2.142,4.07,3.428,5.57,3.428c0.679,0,1.817,0.073,3.145-0.472c1.514-0.946,3.052-2.863,3.207-6.765
		c0,0,0.271,6.668-2.297,10.545c-0.161,0.301-0.329,0.582-0.517,0.813c0,0,3.492-0.296,4.485-0.287
		c0.993-0.009,4.485,0.287,4.485,0.287c-0.187-0.23-0.354-0.511-0.516-0.813c-2.569-3.877-2.297-10.545-2.297-10.545
		c0.153,3.902,1.693,5.819,3.208,6.765c1.325,0.545,2.464,0.472,3.143,0.472c1.501,0,3.644-1.286,5.57-3.428
		C82.665,76.783,82.344,73.033,81.684,71.083"/>
	<path fill="#171717" d="M124.304,172.044c0.624,1.849,13.14,20.024,14.479,21.97v0.18c0.002-0.004,0.025-0.037,0.063-0.09
		c0.035,0.053,0.061,0.086,0.063,0.09v-0.18c1.34-1.943,13.854-20.121,14.479-21.97c0.657-1.95,0.979-5.7-0.948-7.842
		c-1.927-2.142-4.07-3.429-5.57-3.429c-0.679,0-1.816-0.072-3.145,0.473c-1.514,0.945-3.053,2.863-3.207,6.765
		c0,0-0.271-6.668,2.297-10.545c0.161-0.301,0.329-0.582,0.518-0.813c0,0-3.494,0.297-4.485,0.287
		c-0.993,0.01-4.485-0.287-4.485-0.287c0.188,0.23,0.354,0.512,0.516,0.813c2.568,3.877,2.297,10.545,2.297,10.545
		c-0.152-3.901-1.692-5.819-3.207-6.765c-1.325-0.545-2.465-0.473-3.143-0.473c-1.502,0-3.645,1.287-5.57,3.429
		C123.322,166.344,123.644,170.094,124.304,172.044"/>
	<path fill="#171717" d="M51.932,170.704c0.624,1.847,13.14,20.026,14.479,21.969v0.179c0.003-0.002,0.026-0.037,0.063-0.09
		c0.035,0.055,0.06,0.088,0.062,0.09v-0.179c1.34-1.942,13.854-20.122,14.48-21.969c0.658-1.951,0.979-5.7-0.948-7.843
		c-1.927-2.142-4.07-3.428-5.57-3.428c-0.679,0-1.817-0.072-3.144,0.473c-1.515,0.945-3.053,2.863-3.208,6.766
		c0,0-0.271-6.668,2.297-10.545c0.161-0.302,0.329-0.583,0.517-0.813c0,0-3.492,0.295-4.485,0.287
		c-0.993,0.008-4.485-0.287-4.485-0.287c0.187,0.229,0.354,0.511,0.516,0.813c2.569,3.877,2.297,10.545,2.297,10.545
		c-0.153-3.902-1.693-5.82-3.208-6.766c-1.325-0.545-2.464-0.473-3.143-0.473c-1.501,0-3.643,1.286-5.57,3.428
		C50.95,165.003,51.271,168.753,51.932,170.704"/>
	<path fill="#171717" d="M51.932,221.632c0.624,1.849,13.14,20.026,14.479,21.97v0.179c0.003-0.003,0.026-0.037,0.063-0.091
		c0.035,0.054,0.06,0.088,0.062,0.091v-0.179c1.34-1.943,13.854-20.123,14.48-21.97c0.658-1.95,0.979-5.7-0.948-7.842
		c-1.928-2.144-4.07-3.429-5.57-3.429c-0.679,0-1.817-0.073-3.144,0.473c-1.515,0.945-3.053,2.863-3.208,6.766
		c0,0-0.271-6.668,2.297-10.545c0.161-0.302,0.329-0.584,0.517-0.813c0,0-3.492,0.296-4.485,0.286
		c-0.993,0.01-4.485-0.286-4.485-0.286c0.187,0.229,0.354,0.512,0.516,0.813c2.569,3.875,2.297,10.545,2.297,10.545
		c-0.153-3.902-1.693-5.82-3.208-6.766c-1.325-0.546-2.464-0.473-3.143-0.473c-1.501,0-3.643,1.287-5.57,3.429
		C50.95,215.932,51.271,219.682,51.932,221.632"/>
	<path fill="#171717" d="M124.304,221.632c0.624,1.849,13.14,20.026,14.479,21.97v0.179c0.002-0.003,0.025-0.037,0.063-0.091
		c0.035,0.054,0.061,0.088,0.063,0.091v-0.179c1.34-1.943,13.854-20.123,14.479-21.97c0.657-1.95,0.979-5.7-0.948-7.842
		c-1.928-2.144-4.07-3.429-5.57-3.429c-0.679,0-1.816-0.073-3.145,0.473c-1.514,0.945-3.053,2.863-3.207,6.766
		c0,0-0.271-6.668,2.297-10.545c0.161-0.302,0.329-0.584,0.518-0.813c0,0-3.494,0.296-4.485,0.286
		c-0.993,0.01-4.485-0.286-4.485-0.286c0.188,0.229,0.354,0.512,0.516,0.813c2.568,3.875,2.297,10.545,2.297,10.545
		c-0.152-3.902-1.692-5.82-3.207-6.766c-1.325-0.546-2.465-0.473-3.143-0.473c-1.502,0-3.645,1.287-5.57,3.429
		C123.322,215.932,123.644,219.682,124.304,221.632"/>
</g>
</svg>
