<?xml version="1.0" encoding="utf-8"?>
<!-- Generator: Adobe Illustrator 16.0.0, SVG Export Plug-In . SVG Version: 6.00 Build 0)  -->
<!DOCTYPE svg PUBLIC "-//W3C//DTD SVG 1.1//EN" "http://www.w3.org/Graphics/SVG/1.1/DTD/svg11.dtd">
<svg version="1.1" id="Layer_1" xmlns="http://www.w3.org/2000/svg" xmlns:xlink="http://www.w3.org/1999/xlink" x="0px" y="0px"
	 width="170.658px" height="254.814px" viewBox="7.442 13.087 170.658 254.814"
	 enable-background="new 7.442 13.087 170.658 254.814" xml:space="preserve">
<g>
	<path fill="#FFFFFF" d="M15.539,13.195h154.462c4.395,0,7.99,3.596,7.99,7.989v238.618c0,4.396-3.596,7.99-7.99,7.99H15.539
		c-4.396,0-7.989-3.597-7.989-7.99V21.185C7.549,16.791,11.144,13.195,15.539,13.195z"/>
	<path fill="none" stroke="#1F1A17" stroke-width="0.216" stroke-miterlimit="10" d="M15.539,13.195h154.462
		c4.395,0,7.99,3.596,7.99,7.989v238.618c0,4.396-3.596,7.99-7.99,7.99H15.539c-4.396,0-7.989-3.597-7.989-7.99V21.185
		C7.549,16.791,11.144,13.195,15.539,13.195z"/>
	<path fill="#1F1A17" d="M23.327,43.633L23.327,43.633c2.176,0,3.955,1.782,3.955,3.956v1.331c0,2.174-1.779,3.956-3.955,3.956
		c-2.177,0-3.956-1.78-3.956-3.956v-1.331C19.371,45.413,21.151,43.633,23.327,43.633 M23.327,31.298L23.327,31.298
		c2.021,0,3.677,1.656,3.677,3.677v1.238c0,2.02-1.654,3.677-3.677,3.677c-2.023,0-3.678-1.655-3.678-3.677v-1.238
		C19.65,32.952,21.304,31.298,23.327,31.298z M26.95,41.486c1.652,1.152,2.739,3.067,2.739,5.224v2.865
		c0,3.499-2.862,6.362-6.362,6.362s-6.363-2.862-6.363-6.362v-2.865c0-2.156,1.087-4.071,2.74-5.224
		c-1.393-1.085-2.292-2.774-2.292-4.666v-2.662c0-3.255,2.662-5.916,5.916-5.916c3.253,0,5.915,2.662,5.915,5.916v2.662
		C29.242,38.711,28.342,40.4,26.95,41.486z"/>
	<path fill="#1F1A17" d="M163.256,236.768L163.256,236.768c-2.176,0-3.956-1.782-3.956-3.956v-1.331c0-2.174,1.78-3.956,3.956-3.956
		s3.956,1.78,3.956,3.956v1.331C167.211,234.987,165.432,236.768,163.256,236.768 M163.256,249.103L163.256,249.103
		c-2.023,0-3.677-1.655-3.677-3.677v-1.238c0-2.02,1.653-3.677,3.677-3.677c2.022,0,3.677,1.655,3.677,3.677v1.238
		C166.933,247.448,165.279,249.103,163.256,249.103z M159.633,238.915c-1.653-1.152-2.74-3.067-2.74-5.225v-2.863
		c0-3.499,2.863-6.363,6.363-6.363s6.363,2.862,6.363,6.363v2.863c0,2.156-1.087,4.071-2.74,5.225
		c1.392,1.085,2.292,2.773,2.292,4.665v2.663c0,3.254-2.662,5.916-5.916,5.916c-3.253,0-5.916-2.663-5.916-5.916v-2.663
		C157.34,241.689,158.24,240,159.633,238.915z"/>
	<path fill="#171717" d="M32.346,68.578c-0.362-1.068-7.599-11.581-8.373-12.704V55.77c-0.001,0.001-0.016,0.021-0.037,0.053
		c-0.02-0.031-0.035-0.052-0.036-0.053v0.104c-0.773,1.123-8.012,11.636-8.374,12.704c-0.38,1.128-0.565,3.296,0.549,4.535
		c1.114,1.237,2.354,1.981,3.222,1.981c0.393,0,1.051,0.042,1.817-0.272c0.875-0.548,1.766-1.656,1.855-3.912
		c0,0,0.157,3.855-1.329,6.098c-0.093,0.174-0.189,0.336-0.299,0.47c0,0,2.02-0.17,2.594-0.166c0.574-0.005,2.594,0.166,2.594,0.166
		c-0.106-0.133-0.204-0.295-0.298-0.47c-1.484-2.242-1.328-6.098-1.328-6.098c0.089,2.256,0.979,3.364,1.855,3.912
		c0.767,0.314,1.425,0.272,1.817,0.272c0.867,0,2.106-0.744,3.221-1.981C32.914,71.874,32.727,69.706,32.346,68.578"/>
	<path fill="#171717" d="M154.652,212.641c0.362,1.068,7.6,11.581,8.373,12.705v0.104c0.001-0.002,0.017-0.021,0.037-0.054
		c0.021,0.031,0.035,0.052,0.036,0.054v-0.104c0.774-1.124,8.012-11.637,8.374-12.705c0.381-1.128,0.566-3.296-0.548-4.535
		c-1.115-1.237-2.354-1.981-3.222-1.981c-0.394,0-1.052-0.042-1.818,0.272c-0.875,0.547-1.765,1.655-1.855,3.912
		c0,0-0.156-3.855,1.329-6.098c0.094-0.175,0.19-0.337,0.3-0.471c0,0-2.021,0.172-2.595,0.166c-0.574,0.006-2.594-0.166-2.594-0.166
		c0.107,0.134,0.205,0.296,0.298,0.471c1.485,2.241,1.328,6.098,1.328,6.098c-0.088-2.257-0.979-3.365-1.854-3.912
		c-0.767-0.314-1.426-0.272-1.817-0.272c-0.868,0-2.107,0.744-3.221,1.981C154.084,209.345,154.271,211.513,154.652,212.641"/>
	<path fill="#171717" d="M71.485,143.847c-0.625-1.847-13.14-20.026-14.479-21.969v-0.18c-0.002,0.003-0.026,0.036-0.063,0.09
		c-0.034-0.054-0.06-0.087-0.062-0.09v0.18c-1.34,1.942-13.854,20.122-14.48,21.969c-0.658,1.95-0.979,5.7,0.948,7.842
		c1.928,2.144,4.071,3.43,5.57,3.43c0.679,0,1.816,0.072,3.145-0.474c1.515-0.944,3.054-2.862,3.208-6.765
		c0,0,0.271,6.668-2.297,10.545c-0.161,0.301-0.329,0.582-0.516,0.813c0,0,3.492-0.296,4.484-0.286
		c0.993-0.01,4.485,0.286,4.485,0.286c-0.187-0.229-0.354-0.512-0.516-0.813c-2.568-3.877-2.296-10.545-2.296-10.545
		c0.152,3.901,1.692,5.819,3.208,6.765c1.325,0.546,2.464,0.474,3.143,0.474c1.501,0,3.643-1.286,5.57-3.43
		C72.466,149.547,72.145,145.797,71.485,143.847"/>
	<path fill="#171717" d="M143.857,145.187c-0.625-1.847-13.14-20.024-14.479-21.969v-0.179c-0.002,0.002-0.026,0.037-0.063,0.09
		c-0.035-0.054-0.06-0.088-0.062-0.09v0.179c-1.34,1.943-13.854,20.122-14.48,21.969c-0.659,1.951-0.979,5.7,0.947,7.844
		c1.928,2.142,4.071,3.428,5.571,3.428c0.679,0,1.816,0.073,3.144-0.473c1.515-0.945,3.053-2.862,3.208-6.766
		c0,0,0.271,6.668-2.298,10.545c-0.161,0.302-0.329,0.582-0.516,0.813c0,0,3.492-0.296,4.484-0.286
		c0.993-0.01,4.485,0.286,4.485,0.286c-0.187-0.23-0.354-0.512-0.516-0.813c-2.568-3.877-2.297-10.545-2.297-10.545
		c0.154,3.902,1.693,5.819,3.208,6.766c1.325,0.546,2.465,0.473,3.144,0.473c1.501,0,3.643-1.286,5.57-3.428
		C144.838,150.887,144.516,147.138,143.857,145.187"/>
	<path fill="#171717" d="M143.187,65.308c-0.625-1.847-13.14-20.024-14.479-21.969v-0.18c-0.002,0.003-0.026,0.036-0.063,0.09
		c-0.036-0.054-0.06-0.087-0.062-0.09v0.18c-1.339,1.943-13.854,20.122-14.48,21.969c-0.658,1.95-0.979,5.7,0.948,7.842
		c1.928,2.143,4.071,3.429,5.57,3.429c0.679,0,1.816,0.072,3.145-0.473c1.514-0.945,3.053-2.862,3.208-6.765
		c0,0,0.272,6.668-2.297,10.545c-0.161,0.301-0.329,0.582-0.516,0.813c0,0,3.492-0.297,4.484-0.287
		c0.993-0.01,4.485,0.287,4.485,0.287c-0.188-0.23-0.354-0.512-0.516-0.813c-2.568-3.877-2.297-10.545-2.297-10.545
		c0.153,3.902,1.693,5.819,3.208,6.765c1.326,0.545,2.465,0.473,3.144,0.473c1.501,0,3.643-1.286,5.57-3.429
		C144.168,71.008,143.846,67.258,143.187,65.308"/>
	<path fill="#171717" d="M72.155,65.308c-0.625-1.847-13.14-20.024-14.479-21.969v-0.18c-0.002,0.003-0.026,0.036-0.063,0.09
		c-0.035-0.054-0.06-0.087-0.062-0.09v0.18c-1.339,1.943-13.854,20.122-14.48,21.969c-0.657,1.95-0.979,5.7,0.948,7.842
		c1.928,2.143,4.071,3.429,5.57,3.429c0.679,0,1.818,0.072,3.145-0.473c1.515-0.945,3.054-2.862,3.208-6.765
		c0,0,0.272,6.668-2.297,10.545c-0.161,0.301-0.329,0.582-0.516,0.813c0,0,3.493-0.297,4.484-0.287
		c0.993-0.01,4.485,0.287,4.485,0.287c-0.186-0.23-0.354-0.512-0.516-0.813c-2.568-3.877-2.296-10.545-2.296-10.545
		c0.152,3.902,1.692,5.819,3.208,6.765c1.325,0.545,2.465,0.473,3.144,0.473c1.5,0,3.644-1.286,5.57-3.429
		C73.137,71.008,72.814,67.258,72.155,65.308"/>
	<path fill="#171717" d="M42.402,215.856c0.625,1.849,13.141,20.026,14.479,21.97v0.18c0.002-0.003,0.026-0.037,0.063-0.09
		c0.036,0.053,0.061,0.087,0.063,0.09v-0.18c1.339-1.942,13.854-20.121,14.479-21.97c0.659-1.949,0.98-5.699-0.946-7.842
		c-1.929-2.143-4.071-3.429-5.57-3.429c-0.679,0-1.818-0.073-3.145,0.473c-1.515,0.945-3.054,2.863-3.208,6.766
		c0,0-0.271-6.668,2.298-10.546c0.161-0.301,0.329-0.581,0.516-0.813c0,0-3.493,0.296-4.485,0.287
		c-0.992,0.009-4.484-0.287-4.484-0.287c0.186,0.229,0.354,0.512,0.516,0.813c2.568,3.878,2.296,10.546,2.296,10.546
		c-0.152-3.901-1.692-5.819-3.208-6.766c-1.325-0.546-2.464-0.473-3.143-0.473c-1.501,0-3.644,1.286-5.57,3.429
		C41.421,210.156,41.743,213.906,42.402,215.856"/>
	<path fill="#171717" d="M114.774,215.856c0.625,1.849,13.141,20.026,14.479,21.97v0.18c0.003-0.003,0.025-0.037,0.063-0.09
		c0.035,0.053,0.061,0.087,0.063,0.09v-0.18c1.34-1.942,13.854-20.121,14.479-21.97c0.659-1.949,0.98-5.699-0.947-7.842
		c-1.929-2.143-4.071-3.429-5.57-3.429c-0.679,0-1.817-0.073-3.145,0.473c-1.514,0.945-3.053,2.863-3.208,6.766
		c0,0-0.271-6.668,2.298-10.546c0.16-0.301,0.328-0.581,0.517-0.813c0,0-3.493,0.296-4.485,0.287
		c-0.992,0.009-4.484-0.287-4.484-0.287c0.187,0.229,0.354,0.512,0.516,0.813c2.569,3.878,2.296,10.546,2.296,10.546
		c-0.152-3.901-1.692-5.819-3.208-6.766c-1.326-0.546-2.464-0.473-3.143-0.473c-1.501,0-3.644,1.286-5.57,3.429
		C113.793,210.156,114.115,213.906,114.774,215.856"/>
	<path fill="#171717" d="M108.606,103.909c-0.625-1.848-13.14-20.026-14.479-21.97v-0.18c-0.002,0.002-0.026,0.037-0.063,0.09
		c-0.036-0.053-0.06-0.088-0.062-0.09v0.18c-1.34,1.943-13.854,20.122-14.48,21.97c-0.658,1.95-0.979,5.7,0.948,7.842
		s4.071,3.428,5.57,3.428c0.679,0,1.816,0.074,3.145-0.472c1.515-0.946,3.053-2.863,3.208-6.766c0,0,0.271,6.667-2.297,10.545
		c-0.161,0.302-0.329,0.582-0.516,0.813c0,0,3.493-0.295,4.484-0.287c0.993-0.009,4.485,0.287,4.485,0.287
		c-0.188-0.23-0.354-0.511-0.516-0.813c-2.568-3.877-2.297-10.545-2.297-10.545c0.153,3.902,1.693,5.819,3.208,6.766
		c1.326,0.545,2.465,0.472,3.144,0.472c1.501,0,3.643-1.286,5.57-3.428C109.588,109.609,109.266,105.859,108.606,103.909"/>
	<path fill="#171717" d="M106.998,178.116c-0.625,1.847-13.141,20.024-14.479,21.969v0.18c-0.002-0.003-0.025-0.037-0.063-0.091
		c-0.036,0.054-0.061,0.088-0.063,0.091v-0.18c-1.34-1.943-13.854-20.122-14.479-21.969c-0.658-1.95-0.98-5.7,0.947-7.844
		c1.929-2.142,4.071-3.428,5.57-3.428c0.679,0,1.817-0.073,3.146,0.473c1.514,0.945,3.053,2.863,3.208,6.766
		c0,0,0.271-6.668-2.298-10.545c-0.16-0.303-0.328-0.582-0.516-0.813c0,0,3.493,0.296,4.485,0.287
		c0.993,0.009,4.484-0.287,4.484-0.287c-0.187,0.23-0.354,0.511-0.516,0.813c-2.568,3.877-2.296,10.545-2.296,10.545
		c0.153-3.901,1.693-5.819,3.208-6.766c1.326-0.546,2.464-0.473,3.143-0.473c1.501,0,3.644,1.286,5.57,3.428
		C107.979,172.416,107.658,176.166,106.998,178.116"/>
</g>
</svg>
