<?xml version="1.0" encoding="utf-8"?>
<!-- Generator: Adobe Illustrator 16.0.0, SVG Export Plug-In . SVG Version: 6.00 Build 0)  -->
<!DOCTYPE svg PUBLIC "-//W3C//DTD SVG 1.1//EN" "http://www.w3.org/Graphics/SVG/1.1/DTD/svg11.dtd">
<svg version="1.1" id="Layer_1" xmlns="http://www.w3.org/2000/svg" xmlns:xlink="http://www.w3.org/1999/xlink" x="0px" y="0px"
	 width="170.657px" height="254.812px" viewBox="10.165 7.631 170.657 254.812"
	 enable-background="new 10.165 7.631 170.657 254.812" xml:space="preserve">
<g>
	<path fill="#FFFFFF" d="M18.262,7.739h154.461c4.396,0,7.99,3.595,7.99,7.989v238.619c0,4.395-3.595,7.988-7.99,7.988H18.262
		c-4.395,0-7.989-3.595-7.989-7.988V15.729C10.273,11.334,13.868,7.739,18.262,7.739z"/>
	<path fill="none" stroke="#1F1A17" stroke-width="0.216" stroke-miterlimit="10" d="M18.262,7.739h154.461
		c4.396,0,7.99,3.595,7.99,7.989v238.619c0,4.395-3.595,7.988-7.99,7.988H18.262c-4.395,0-7.989-3.595-7.989-7.988V15.729
		C10.273,11.334,13.868,7.739,18.262,7.739z"/>
	<path fill="#171717" d="M35.07,63.121c-0.362-1.067-7.599-11.58-8.373-12.704v-0.104c-0.001,0.001-0.016,0.021-0.037,0.052
		c-0.02-0.03-0.035-0.051-0.036-0.052v0.104c-0.774,1.124-8.012,11.637-8.374,12.704c-0.38,1.128-0.566,3.297,0.548,4.535
		c1.115,1.239,2.354,1.982,3.222,1.982c0.393,0,1.051,0.043,1.818-0.272c0.875-0.547,1.765-1.656,1.855-3.912
		c0,0,0.157,3.855-1.329,6.098c-0.093,0.175-0.19,0.337-0.299,0.47c0,0,2.02-0.171,2.594-0.166c0.574-0.005,2.594,0.166,2.594,0.166
		c-0.107-0.133-0.205-0.295-0.298-0.47c-1.485-2.242-1.328-6.098-1.328-6.098c0.088,2.256,0.979,3.365,1.855,3.912
		c0.767,0.315,1.425,0.272,1.817,0.272c0.868,0,2.107-0.743,3.221-1.982C35.637,66.418,35.451,64.249,35.07,63.121"/>
	<path fill="#171717" d="M157.375,207.185c0.362,1.067,7.599,11.58,8.373,12.705v0.104c0.001-0.001,0.017-0.021,0.037-0.053
		c0.021,0.031,0.034,0.052,0.036,0.053v-0.104c0.773-1.125,8.012-11.638,8.373-12.705c0.382-1.127,0.566-3.297-0.547-4.535
		c-1.115-1.238-2.354-1.981-3.223-1.981c-0.393,0-1.051-0.043-1.818,0.272c-0.875,0.547-1.765,1.656-1.854,3.912
		c0,0-0.157-3.855,1.329-6.099c0.093-0.174,0.189-0.337,0.299-0.47c0,0-2.02,0.171-2.594,0.166
		c-0.574,0.005-2.594-0.166-2.594-0.166c0.106,0.133,0.205,0.296,0.298,0.47c1.485,2.242,1.327,6.099,1.327,6.099
		c-0.088-2.256-0.979-3.365-1.854-3.912c-0.767-0.315-1.425-0.272-1.817-0.272c-0.867,0-2.106,0.743-3.221,1.981
		C156.808,203.888,156.995,206.058,157.375,207.185"/>
	<path fill="#171717" d="M74.208,138.39c-0.625-1.847-13.14-20.024-14.479-21.969v-0.179c-0.002,0.002-0.026,0.036-0.063,0.09
		c-0.035-0.054-0.06-0.088-0.062-0.09v0.179c-1.34,1.943-13.854,20.122-14.48,21.969c-0.659,1.951-0.98,5.701,0.948,7.844
		c1.928,2.143,4.071,3.428,5.57,3.428c0.679,0,1.817,0.072,3.145-0.473c1.514-0.945,3.053-2.862,3.208-6.766
		c0,0,0.271,6.668-2.297,10.545c-0.161,0.303-0.329,0.583-0.516,0.813c0,0,3.492-0.296,4.485-0.287
		c0.993-0.009,4.485,0.287,4.485,0.287c-0.187-0.23-0.354-0.513-0.516-0.813c-2.568-3.877-2.296-10.545-2.296-10.545
		c0.153,3.902,1.693,5.819,3.208,6.766c1.326,0.545,2.464,0.473,3.143,0.473c1.501,0,3.643-1.285,5.57-3.428
		C75.19,144.091,74.868,140.341,74.208,138.39"/>
	<path fill="#171717" d="M146.581,139.729c-0.625-1.848-13.141-20.024-14.479-21.969v-0.18c-0.002,0.003-0.026,0.037-0.063,0.09
		c-0.035-0.053-0.06-0.087-0.062-0.09v0.18c-1.34,1.943-13.854,20.121-14.48,21.969c-0.659,1.951-0.98,5.701,0.947,7.843
		c1.928,2.143,4.07,3.428,5.57,3.428c0.68,0,1.817,0.074,3.145-0.472c1.514-0.945,3.053-2.863,3.208-6.766
		c0,0,0.271,6.668-2.298,10.545c-0.161,0.301-0.33,0.582-0.516,0.813c0,0,3.492-0.296,4.484-0.287
		c0.992-0.009,4.484,0.287,4.484,0.287c-0.186-0.229-0.354-0.513-0.516-0.813c-2.568-3.877-2.296-10.545-2.296-10.545
		c0.153,3.901,1.692,5.819,3.208,6.766c1.325,0.546,2.464,0.472,3.143,0.472c1.502,0,3.644-1.285,5.57-3.428
		C147.562,145.431,147.24,141.681,146.581,139.729"/>
	<path fill="#171717" d="M145.911,59.852c-0.625-1.848-13.141-20.026-14.479-21.969v-0.18c-0.002,0.002-0.027,0.037-0.063,0.09
		c-0.036-0.053-0.06-0.088-0.062-0.09v0.18c-1.34,1.942-13.854,20.121-14.48,21.969c-0.658,1.95-0.98,5.7,0.947,7.842
		c1.929,2.143,4.072,3.428,5.57,3.428c0.68,0,1.817,0.074,3.146-0.472c1.514-0.945,3.053-2.863,3.208-6.765
		c0,0,0.271,6.667-2.297,10.544c-0.162,0.302-0.33,0.583-0.517,0.813c0,0,3.493-0.296,4.485-0.287
		c0.992-0.009,4.484,0.287,4.484,0.287c-0.187-0.23-0.354-0.512-0.516-0.813c-2.568-3.877-2.296-10.544-2.296-10.544
		c0.153,3.901,1.692,5.819,3.208,6.765c1.326,0.546,2.464,0.472,3.143,0.472c1.502,0,3.644-1.285,5.57-3.428
		C146.892,65.552,146.569,61.802,145.911,59.852"/>
	<path fill="#171717" d="M74.879,59.852c-0.625-1.848-13.14-20.026-14.479-21.969v-0.18c-0.002,0.002-0.026,0.037-0.063,0.09
		c-0.036-0.053-0.06-0.088-0.062-0.09v0.18c-1.339,1.942-13.854,20.121-14.48,21.969c-0.658,1.95-0.98,5.7,0.948,7.842
		c1.928,2.143,4.071,3.428,5.57,3.428c0.679,0,1.818,0.074,3.145-0.472c1.514-0.945,3.053-2.863,3.208-6.765
		c0,0,0.272,6.667-2.297,10.544c-0.161,0.302-0.329,0.583-0.516,0.813c0,0,3.493-0.296,4.485-0.287
		c0.993-0.009,4.485,0.287,4.485,0.287c-0.186-0.23-0.354-0.512-0.516-0.813c-2.568-3.877-2.296-10.544-2.296-10.544
		c0.153,3.901,1.693,5.819,3.208,6.765c1.326,0.546,2.465,0.472,3.144,0.472c1.5,0,3.643-1.285,5.57-3.428
		C75.86,65.552,75.538,61.802,74.879,59.852"/>
	<path fill="#171717" d="M45.126,210.399c0.625,1.848,13.14,20.025,14.479,21.97v0.18c0.002-0.003,0.026-0.037,0.063-0.091
		c0.036,0.054,0.06,0.088,0.062,0.091v-0.18c1.339-1.943,13.854-20.122,14.479-21.97c0.659-1.95,0.98-5.699-0.947-7.842
		c-1.928-2.143-4.071-3.429-5.57-3.429c-0.679,0-1.818-0.073-3.145,0.472c-1.514,0.946-3.053,2.863-3.208,6.767
		c0,0-0.271-6.668,2.298-10.545c0.161-0.302,0.329-0.582,0.516-0.813c0,0-3.493,0.295-4.485,0.287
		c-0.993,0.008-4.485-0.287-4.485-0.287c0.186,0.23,0.354,0.512,0.516,0.813c2.568,3.877,2.296,10.545,2.296,10.545
		c-0.153-3.902-1.693-5.819-3.208-6.767c-1.325-0.545-2.464-0.472-3.143-0.472c-1.501,0-3.643,1.286-5.57,3.429
		C44.145,204.7,44.467,208.449,45.126,210.399"/>
	<path fill="#171717" d="M117.498,210.399c0.625,1.848,13.14,20.025,14.479,21.97v0.18c0.002-0.003,0.025-0.037,0.063-0.091
		c0.035,0.054,0.061,0.088,0.063,0.091v-0.18c1.34-1.943,13.854-20.122,14.479-21.97c0.659-1.95,0.979-5.699-0.948-7.842
		s-4.07-3.429-5.57-3.429c-0.679,0-1.816-0.073-3.144,0.472c-1.515,0.946-3.053,2.863-3.208,6.767c0,0-0.271-6.668,2.297-10.545
		c0.161-0.302,0.329-0.582,0.518-0.813c0,0-3.493,0.295-4.485,0.287c-0.993,0.008-4.485-0.287-4.485-0.287
		c0.188,0.23,0.354,0.512,0.516,0.813c2.57,3.877,2.297,10.545,2.297,10.545c-0.153-3.902-1.693-5.819-3.208-6.767
		c-1.326-0.545-2.464-0.472-3.144-0.472c-1.5,0-3.643,1.286-5.57,3.429C116.517,204.7,116.838,208.449,117.498,210.399"/>
	<path fill="#1F1A17" d="M26.683,45.854L26.683,45.854c-1.876,0-3.41-1.537-3.41-3.41v-2.049c0-1.874,1.534-3.41,3.41-3.41
		c1.875,0,3.41,1.534,3.41,3.41v2.049C30.093,44.318,28.559,45.854,26.683,45.854 M26.683,48.687L26.683,48.687
		c-3.017,0-5.485-2.47-5.485-5.485v-3.37c0-0.115,0.005-0.229,0.012-0.343h-0.012v-9.611v-0.796V28.32
		c0-3.016,2.468-5.485,5.485-5.485s5.485,2.468,5.485,5.485v1.558h-2.076v-0.994c0-1.876-1.534-3.41-3.41-3.41
		s-3.41,1.536-3.41,3.41v0.198h0.062v6.414c0.928-0.719,2.09-1.149,3.348-1.149c3.017,0,5.485,2.468,5.485,5.485v3.37
		C32.168,46.219,29.7,48.687,26.683,48.687z"/>
	<path fill="#1F1A17" d="M167.416,224.303L167.416,224.303c1.875,0,3.41,1.536,3.41,3.409v2.049c0,1.874-1.534,3.41-3.41,3.41
		s-3.41-1.534-3.41-3.41v-2.049C164.006,225.837,165.541,224.303,167.416,224.303 M167.416,221.469L167.416,221.469
		c3.017,0,5.485,2.47,5.485,5.485v3.37c0,0.114-0.006,0.229-0.012,0.344h0.012v9.61v0.796v0.762c0,3.017-2.469,5.485-5.485,5.485
		s-5.485-2.469-5.485-5.485v-1.558h2.076v0.994c0,1.875,1.534,3.41,3.41,3.41s3.41-1.537,3.41-3.41v-0.198h-0.063v-6.414
		c-0.928,0.719-2.09,1.149-3.348,1.149c-3.018,0-5.484-2.469-5.484-5.485v-3.37C161.931,223.937,164.399,221.469,167.416,221.469z"
		/>
</g>
</svg>
