<?xml version="1.0" encoding="utf-8"?>
<!-- Generator: Adobe Illustrator 16.0.0, SVG Export Plug-In . SVG Version: 6.00 Build 0)  -->
<!DOCTYPE svg PUBLIC "-//W3C//DTD SVG 1.1//EN" "http://www.w3.org/Graphics/SVG/1.1/DTD/svg11.dtd">
<svg version="1.1" id="Layer_1" xmlns="http://www.w3.org/2000/svg" xmlns:xlink="http://www.w3.org/1999/xlink" x="0px" y="0px"
	 width="170.657px" height="254.815px" viewBox="17.849 11.914 170.657 254.815"
	 enable-background="new 17.849 11.914 170.657 254.815" xml:space="preserve">
<g>
	<path fill="#FFFFFF" d="M25.946,12.022h154.463c4.395,0,7.989,3.597,7.989,7.989V258.63c0,4.395-3.596,7.99-7.989,7.99H25.946
		c-4.394,0-7.988-3.597-7.988-7.99V20.012C17.957,15.618,21.552,12.022,25.946,12.022z"/>
	<path fill="none" stroke="#1F1A17" stroke-width="0.216" stroke-miterlimit="10" d="M25.946,12.022h154.463
		c4.395,0,7.989,3.597,7.989,7.989V258.63c0,4.395-3.596,7.99-7.989,7.99H25.946c-4.394,0-7.988-3.597-7.988-7.99V20.012
		C17.957,15.618,21.552,12.022,25.946,12.022z"/>
	<path fill="#171717" d="M42.754,67.406c-0.361-1.068-7.6-11.581-8.373-12.705v-0.104c-0.001,0.002-0.015,0.021-0.036,0.053
		c-0.021-0.03-0.035-0.051-0.036-0.053V54.7c-0.774,1.124-8.012,11.637-8.374,12.705c-0.381,1.128-0.566,3.296,0.548,4.534
		c1.115,1.238,2.354,1.982,3.222,1.982c0.393,0,1.051,0.042,1.817-0.273c0.875-0.547,1.767-1.654,1.855-3.912
		c0,0,0.157,3.856-1.329,6.099c-0.093,0.175-0.19,0.337-0.298,0.471c0,0,2.02-0.172,2.594-0.166
		c0.574-0.006,2.594,0.166,2.594,0.166c-0.107-0.134-0.205-0.296-0.298-0.471c-1.485-2.241-1.328-6.099-1.328-6.099
		c0.089,2.258,0.979,3.365,1.855,3.912c0.767,0.315,1.425,0.273,1.817,0.273c0.868,0,2.106-0.744,3.222-1.982
		C43.321,70.701,43.135,68.533,42.754,67.406"/>
	<path fill="#171717" d="M165.06,211.468c0.362,1.068,7.6,11.581,8.373,12.704v0.104c0.002-0.002,0.017-0.021,0.037-0.053
		c0.021,0.031,0.035,0.051,0.035,0.053v-0.104c0.774-1.123,8.012-11.636,8.375-12.704c0.379-1.128,0.565-3.296-0.549-4.535
		c-1.115-1.238-2.354-1.981-3.222-1.981c-0.393,0-1.051-0.042-1.817,0.272c-0.877,0.547-1.767,1.655-1.855,3.912
		c0,0-0.158-3.855,1.328-6.098c0.094-0.176,0.191-0.337,0.299-0.472c0,0-2.02,0.172-2.594,0.166
		c-0.574,0.006-2.594-0.166-2.594-0.166c0.106,0.135,0.205,0.297,0.299,0.472c1.484,2.24,1.328,6.098,1.328,6.098
		c-0.09-2.257-0.98-3.365-1.855-3.912c-0.768-0.314-1.425-0.272-1.817-0.272c-0.867,0-2.106,0.743-3.222,1.981
		C164.493,208.172,164.679,210.34,165.06,211.468"/>
	<path fill="#171717" d="M154.743,222.642c-0.625-1.848-13.141-20.025-14.479-21.969v-0.18c-0.002,0.002-0.026,0.037-0.063,0.09
		c-0.035-0.053-0.062-0.088-0.063-0.09v0.18c-1.339,1.942-13.854,20.121-14.479,21.969c-0.658,1.95-0.979,5.7,0.947,7.842
		c1.929,2.144,4.07,3.429,5.57,3.429c0.679,0,1.816,0.073,3.145-0.473c1.515-0.944,3.054-2.862,3.207-6.765
		c0,0,0.271,6.668-2.297,10.545c-0.161,0.301-0.329,0.582-0.517,0.813c0,0,3.493-0.297,4.485-0.287
		c0.991-0.01,4.483,0.287,4.483,0.287c-0.186-0.23-0.354-0.513-0.516-0.813c-2.568-3.877-2.296-10.545-2.296-10.545
		c0.152,3.901,1.692,5.819,3.208,6.765c1.324,0.546,2.464,0.473,3.143,0.473c1.501,0,3.644-1.285,5.57-3.429
		C155.725,228.342,155.403,224.592,154.743,222.642"/>
	<path fill="#171717" d="M82.563,64.135c-0.625-1.847-13.14-20.025-14.479-21.969v-0.181c-0.002,0.004-0.026,0.037-0.063,0.091
		c-0.035-0.054-0.06-0.087-0.062-0.091v0.181c-1.34,1.942-13.854,20.122-14.48,21.969c-0.659,1.95-0.979,5.7,0.948,7.843
		s4.071,3.429,5.57,3.429c0.679,0,1.816,0.072,3.145-0.474c1.515-0.944,3.053-2.863,3.208-6.765c0,0,0.271,6.668-2.297,10.545
		c-0.161,0.301-0.329,0.582-0.516,0.813c0,0,3.491-0.296,4.484-0.286c0.993-0.01,4.485,0.286,4.485,0.286
		c-0.188-0.229-0.354-0.512-0.516-0.813c-2.568-3.877-2.297-10.545-2.297-10.545c0.153,3.9,1.693,5.818,3.208,6.765
		c1.326,0.546,2.466,0.474,3.144,0.474c1.501,0,3.643-1.286,5.57-3.429S83.223,66.085,82.563,64.135"/>
	<path fill="#171717" d="M118.563,142.24c-0.624-1.848-13.14-20.025-14.479-21.97v-0.18c-0.003,0.003-0.026,0.037-0.063,0.091
		c-0.036-0.054-0.06-0.088-0.062-0.091v0.18c-1.34,1.943-13.854,20.122-14.48,21.97c-0.658,1.949-0.979,5.699,0.947,7.843
		c1.929,2.142,4.071,3.428,5.57,3.428c0.68,0,1.817,0.073,3.145-0.472c1.514-0.946,3.053-2.863,3.208-6.767
		c0,0,0.271,6.668-2.298,10.545c-0.16,0.303-0.328,0.582-0.516,0.813c0,0,3.491-0.295,4.484-0.286
		c0.993-0.009,4.485,0.286,4.485,0.286c-0.188-0.23-0.355-0.511-0.517-0.813c-2.568-3.877-2.297-10.545-2.297-10.545
		c0.153,3.902,1.693,5.819,3.207,6.767c1.326,0.545,2.465,0.472,3.145,0.472c1.501,0,3.643-1.286,5.569-3.428
		C119.544,147.939,119.222,144.189,118.563,142.24"/>
	<path fill="#1F1A17" d="M170.497,237.545c-1.532-1.069-2.54-2.845-2.54-4.844v-2.656c0-3.245,2.654-5.901,5.9-5.901
		c3.244,0,5.9,2.655,5.9,5.901v0.525h-2.234c-0.043-1.979-1.676-3.589-3.666-3.589c-2.018,0-3.668,1.652-3.668,3.668v1.234
		c0,2.017,1.65,3.669,3.668,3.669c0.105,0,0.211-0.005,0.316-0.014v3.499c-0.105-0.011-0.211-0.016-0.316-0.016
		c-1.877,0-3.409,1.536-3.409,3.41v1.147c0,1.874,1.532,3.41,3.409,3.41c1.875,0,3.41-1.534,3.41-3.41v-0.003h2.074v0.762
		c0,3.017-2.469,5.485-5.484,5.485c-3.018,0-5.485-2.471-5.485-5.485v-2.47C168.372,240.118,169.206,238.551,170.497,237.545"/>
	<path fill="#1F1A17" d="M37.007,39.375c1.533,1.067,2.541,2.845,2.541,4.843v2.657c0,3.244-2.655,5.899-5.9,5.899
		s-5.9-2.654-5.9-5.899v-0.526h2.233c0.043,1.98,1.677,3.588,3.667,3.588c2.019,0,3.668-1.651,3.668-3.668v-1.233
		c0-2.017-1.649-3.668-3.668-3.668c-0.106,0-0.212,0.004-0.316,0.014v-3.5c0.104,0.01,0.21,0.015,0.316,0.015
		c1.875,0,3.41-1.536,3.41-3.409v-1.147c0-1.873-1.534-3.409-3.41-3.409s-3.41,1.534-3.41,3.409v0.003h-2.074v-0.761
		c0-3.019,2.468-5.485,5.484-5.485c3.018,0,5.485,2.469,5.485,5.485v2.47C39.132,36.802,38.298,38.368,37.007,39.375"/>
</g>
</svg>
