<?xml version="1.0" encoding="utf-8"?>
<!-- Generator: Adobe Illustrator 16.0.0, SVG Export Plug-In . SVG Version: 6.00 Build 0)  -->
<!DOCTYPE svg PUBLIC "-//W3C//DTD SVG 1.1//EN" "http://www.w3.org/Graphics/SVG/1.1/DTD/svg11.dtd">
<svg version="1.1" id="Layer_1" xmlns="http://www.w3.org/2000/svg" xmlns:xlink="http://www.w3.org/1999/xlink" x="0px" y="0px"
	 width="170.658px" height="254.813px" viewBox="14.191 20.964 170.658 254.813"
	 enable-background="new 14.191 20.964 170.658 254.813" xml:space="preserve">
<g>
	<path fill="#FFFFFF" d="M22.288,21.072H176.75c4.396,0,7.99,3.596,7.99,7.989V267.68c0,4.395-3.595,7.988-7.99,7.988H22.288
		c-4.395,0-7.989-3.596-7.989-7.988V29.062C14.299,24.668,17.894,21.072,22.288,21.072z"/>
	<path fill="none" stroke="#1F1A17" stroke-width="0.216" stroke-miterlimit="10" d="M22.288,21.072H176.75
		c4.396,0,7.99,3.596,7.99,7.989V267.68c0,4.395-3.595,7.988-7.99,7.988H22.288c-4.395,0-7.989-3.596-7.989-7.988V29.062
		C14.299,24.668,17.894,21.072,22.288,21.072z"/>
	<path fill="#171717" d="M39.096,76.455c-0.362-1.068-7.601-11.581-8.373-12.704v-0.104c-0.001,0.002-0.018,0.021-0.037,0.053
		c-0.021-0.031-0.035-0.051-0.036-0.053v0.104c-0.774,1.123-8.012,11.636-8.374,12.704c-0.38,1.128-0.566,3.296,0.548,4.535
		c1.115,1.238,2.354,1.982,3.222,1.982c0.395,0,1.053,0.042,1.818-0.273c0.875-0.547,1.765-1.655,1.855-3.912
		c0,0,0.155,3.856-1.329,6.098c-0.095,0.175-0.19,0.337-0.301,0.471c0,0,2.021-0.171,2.596-0.166
		c0.572-0.005,2.594,0.166,2.594,0.166c-0.107-0.134-0.205-0.296-0.298-0.471c-1.485-2.241-1.328-6.098-1.328-6.098
		c0.088,2.257,0.979,3.365,1.854,3.912c0.769,0.315,1.427,0.273,1.817,0.273c0.868,0,2.107-0.744,3.221-1.982
		C39.663,79.751,39.477,77.583,39.096,76.455"/>
	<path fill="#171717" d="M161.401,220.518c0.362,1.068,7.599,11.581,8.373,12.705v0.104c0.001-0.002,0.016-0.021,0.037-0.053
		c0.021,0.031,0.035,0.051,0.036,0.053v-0.104c0.772-1.124,8.012-11.637,8.374-12.705c0.381-1.128,0.564-3.296-0.55-4.535
		c-1.113-1.238-2.354-1.98-3.222-1.98c-0.393,0-1.051-0.043-1.818,0.271c-0.875,0.547-1.765,1.655-1.854,3.912
		c0,0-0.157-3.855,1.329-6.098c0.093-0.176,0.188-0.338,0.299-0.471c0,0-2.021,0.172-2.594,0.166
		c-0.574,0.006-2.596-0.166-2.596-0.166c0.107,0.133,0.205,0.295,0.3,0.471c1.483,2.242,1.327,6.098,1.327,6.098
		c-0.089-2.257-0.979-3.365-1.854-3.912c-0.766-0.314-1.425-0.271-1.817-0.271c-0.866,0-2.105,0.742-3.221,1.98
		C160.834,217.222,161.021,219.39,161.401,220.518"/>
	<path fill="#171717" d="M121.854,225.06c0.625,1.847,13.14,20.024,14.479,21.969v0.179c0.002-0.002,0.026-0.035,0.063-0.09
		c0.036,0.055,0.06,0.088,0.062,0.09v-0.179c1.339-1.942,13.854-20.122,14.48-21.969c0.658-1.951,0.979-5.701-0.948-7.843
		c-1.928-2.143-4.071-3.428-5.57-3.428c-0.679,0-1.816-0.074-3.145,0.471c-1.516,0.947-3.053,2.863-3.208,6.767
		c0,0-0.271-6.668,2.298-10.545c0.161-0.302,0.329-0.582,0.516-0.813c0,0-3.491,0.295-4.483,0.287
		c-0.993,0.008-4.485-0.287-4.485-0.287c0.188,0.23,0.354,0.513,0.517,0.813c2.567,3.877,2.297,10.545,2.297,10.545
		c-0.153-3.901-1.693-5.819-3.208-6.767c-1.325-0.545-2.465-0.471-3.145-0.471c-1.501,0-3.643,1.285-5.568,3.428
		C120.873,219.358,121.195,223.108,121.854,225.06"/>
	<path fill="#171717" d="M78.905,73.185c-0.625-1.847-13.14-20.025-14.479-21.969v-0.18c-0.002,0.003-0.024,0.037-0.063,0.091
		c-0.036-0.054-0.06-0.088-0.063-0.091v0.18c-1.339,1.943-13.854,20.122-14.479,21.969c-0.658,1.95-0.98,5.7,0.948,7.843
		c1.928,2.142,4.069,3.428,5.568,3.428c0.681,0,1.818,0.073,3.146-0.472c1.514-0.946,3.053-2.863,3.208-6.766
		c0,0,0.271,6.668-2.297,10.545c-0.161,0.302-0.329,0.582-0.518,0.813c0,0,3.493-0.296,4.485-0.287
		c0.993-0.009,4.485,0.287,4.485,0.287c-0.188-0.23-0.354-0.511-0.518-0.813c-2.566-3.877-2.296-10.545-2.296-10.545
		c0.153,3.902,1.693,5.819,3.208,6.766c1.326,0.545,2.465,0.472,3.146,0.472c1.5,0,3.643-1.286,5.568-3.428
		C79.886,78.885,79.564,75.135,78.905,73.185"/>
	<path fill="#1F1A17" d="M30.559,36.173L30.559,36.173c-3.019,0-5.485,2.47-5.485,5.485v0.009h2.16
		c0.345-1.518,1.708-2.66,3.326-2.66c1.875,0,3.409,1.534,3.409,3.41c0,0.968-0.272,1.432-0.694,2.313l-8.2,17.066l0.914,0.006
		l0.183,0.101l0.057-0.1l7.677,0.045h2.137h0.005v-2.613h-0.005v-3.063h-2.137v3.063l-4.816,0.001l-0.009,0.009l-0.327,0.045
		l6.443-13.177c0.854-1.747,1.039-2.887,0.905-4.454c-0.05-0.56-0.142-1.106-0.301-1.618l-0.004-0.076l-0.013,0.023
		C35.07,37.781,32.994,36.173,30.559,36.173"/>
	<path fill="#1F1A17" d="M170.872,272.483L170.872,272.483c3.019,0,5.485-2.469,5.485-5.484v-0.008h-2.16
		c-0.344,1.516-1.708,2.659-3.325,2.659c-1.875,0-3.41-1.534-3.41-3.409c0-0.969,0.272-1.434,0.694-2.314l8.201-17.064l-0.914-0.006
		l-0.185-0.102l-0.055,0.101l-7.677-0.045h-2.137h-0.006v2.61h0.006v3.063h2.137v-3.063h4.814l0.011-0.008l0.328-0.045
		l-6.443,13.176c-0.854,1.748-1.039,2.889-0.905,4.453c0.048,0.563,0.142,1.106,0.299,1.619l0.006,0.076l0.013-0.023
		C166.361,270.875,168.437,272.483,170.872,272.483"/>
</g>
</svg>
