<?xml version="1.0" encoding="utf-8"?>
<!-- Generator: Adobe Illustrator 16.0.0, SVG Export Plug-In . SVG Version: 6.00 Build 0)  -->
<!DOCTYPE svg PUBLIC "-//W3C//DTD SVG 1.1//EN" "http://www.w3.org/Graphics/SVG/1.1/DTD/svg11.dtd">
<svg version="1.1" id="Layer_1" xmlns="http://www.w3.org/2000/svg" xmlns:xlink="http://www.w3.org/1999/xlink" x="0px" y="0px"
	 width="170.656px" height="254.812px" viewBox="25.458 8.866 170.656 254.812"
	 enable-background="new 25.458 8.866 170.656 254.812" xml:space="preserve">
<g>
	<path fill="#FFFFFF" d="M33.555,8.974h154.462c4.395,0,7.988,3.595,7.988,7.989v238.618c0,4.396-3.595,7.989-7.988,7.989H33.555
		c-4.396,0-7.989-3.595-7.989-7.989V16.963C25.566,12.568,29.161,8.974,33.555,8.974z"/>
	<path fill="none" stroke="#1F1A17" stroke-width="0.216" stroke-miterlimit="10" d="M33.555,8.974h154.462
		c4.395,0,7.988,3.595,7.988,7.989v238.618c0,4.396-3.595,7.989-7.988,7.989H33.555c-4.396,0-7.989-3.595-7.989-7.989V16.963
		C25.566,12.568,29.161,8.974,33.555,8.974z"/>
	<path fill="#171717" d="M50.363,64.356c-0.362-1.068-7.599-11.581-8.373-12.705v-0.104c-0.001,0.002-0.016,0.021-0.037,0.053
		c-0.02-0.031-0.035-0.051-0.036-0.053v0.104c-0.772,1.124-8.012,11.637-8.374,12.705c-0.38,1.128-0.564,3.296,0.548,4.535
		c1.115,1.238,2.354,1.981,3.224,1.981c0.393,0,1.051,0.043,1.816-0.272c0.875-0.547,1.767-1.656,1.855-3.912
		c0,0,0.157,3.855-1.329,6.098c-0.093,0.175-0.19,0.337-0.299,0.47c0,0,2.02-0.171,2.594-0.165c0.574-0.006,2.594,0.165,2.594,0.165
		c-0.105-0.133-0.205-0.295-0.298-0.47c-1.483-2.242-1.328-6.098-1.328-6.098c0.088,2.256,0.979,3.365,1.855,3.912
		c0.767,0.315,1.425,0.272,1.815,0.272c0.868,0,2.107-0.743,3.223-1.981C50.93,67.652,50.744,65.484,50.363,64.356"/>
	<path fill="#171717" d="M172.668,208.418c0.362,1.067,7.601,11.582,8.373,12.705v0.104c0.001-0.002,0.018-0.021,0.037-0.053
		c0.021,0.031,0.035,0.051,0.036,0.053v-0.104c0.774-1.123,8.012-11.638,8.374-12.705c0.381-1.127,0.566-3.295-0.548-4.535
		c-1.115-1.237-2.354-1.981-3.224-1.981c-0.393,0-1.051-0.042-1.816,0.272c-0.875,0.548-1.767,1.656-1.855,3.912
		c0,0-0.155-3.855,1.329-6.099c0.093-0.175,0.19-0.337,0.299-0.471c0,0-2.02,0.171-2.594,0.166
		c-0.574,0.005-2.594-0.166-2.594-0.166c0.105,0.134,0.205,0.296,0.298,0.471c1.485,2.241,1.328,6.099,1.328,6.099
		c-0.088-2.256-0.979-3.364-1.855-3.912c-0.766-0.314-1.425-0.272-1.815-0.272c-0.868,0-2.107,0.744-3.223,1.981
		C172.101,205.124,172.288,207.292,172.668,208.418"/>
	<path fill="#171717" d="M161.204,61.086c-0.625-1.848-13.14-20.025-14.479-21.969v-0.18c-0.002,0.003-0.026,0.037-0.063,0.09
		c-0.036-0.053-0.06-0.087-0.062-0.09v0.18c-1.341,1.943-13.854,20.121-14.48,21.969c-0.658,1.95-0.979,5.7,0.948,7.842
		c1.928,2.143,4.071,3.428,5.57,3.428c0.679,0,1.815,0.074,3.145-0.472c1.514-0.945,3.053-2.863,3.208-6.765
		c0,0,0.272,6.668-2.297,10.545c-0.161,0.301-0.329,0.582-0.516,0.813c0,0,3.491-0.296,4.483-0.287
		c0.993-0.009,4.485,0.287,4.485,0.287c-0.188-0.23-0.354-0.512-0.518-0.813c-2.566-3.877-2.296-10.545-2.296-10.545
		c0.153,3.901,1.693,5.819,3.208,6.765c1.326,0.546,2.464,0.472,3.145,0.472c1.501,0,3.643-1.285,5.568-3.428
		C162.185,66.786,161.863,63.036,161.204,61.086"/>
	<path fill="#171717" d="M90.172,61.086c-0.625-1.848-13.14-20.025-14.479-21.969v-0.18c-0.002,0.003-0.026,0.037-0.063,0.09
		c-0.036-0.053-0.06-0.087-0.062-0.09v0.18c-1.339,1.943-13.854,20.121-14.48,21.969c-0.656,1.95-0.979,5.7,0.948,7.842
		c1.928,2.143,4.071,3.428,5.57,3.428c0.679,0,1.816,0.074,3.145-0.472c1.516-0.945,3.055-2.863,3.208-6.765
		c0,0,0.272,6.668-2.297,10.545c-0.161,0.301-0.329,0.582-0.516,0.813c0,0,3.493-0.296,4.483-0.287
		c0.993-0.009,4.485,0.287,4.485,0.287c-0.186-0.23-0.354-0.512-0.516-0.813c-2.568-3.877-2.296-10.545-2.296-10.545
		c0.151,3.901,1.691,5.819,3.208,6.765c1.324,0.546,2.465,0.472,3.144,0.472c1.5,0,3.643-1.285,5.57-3.428
		C91.153,66.786,90.831,63.036,90.172,61.086"/>
	<path fill="#171717" d="M60.419,211.635c0.625,1.848,13.142,20.025,14.479,21.969v0.18c0.002-0.002,0.024-0.037,0.063-0.09
		c0.036,0.053,0.062,0.088,0.063,0.09v-0.18c1.339-1.943,13.854-20.121,14.479-21.969c0.659-1.95,0.98-5.7-0.945-7.842
		c-1.93-2.145-4.071-3.43-5.57-3.43c-0.679,0-1.818-0.072-3.146,0.473c-1.514,0.945-3.053,2.863-3.208,6.766
		c0,0-0.271-6.668,2.3-10.545c0.159-0.301,0.327-0.582,0.516-0.813c0,0-3.493,0.295-4.485,0.287
		c-0.992,0.008-4.483-0.287-4.483-0.287c0.186,0.229,0.354,0.512,0.516,0.813c2.568,3.877,2.296,10.545,2.296,10.545
		c-0.152-3.9-1.691-5.818-3.208-6.766c-1.325-0.545-2.464-0.473-3.143-0.473c-1.501,0-3.645,1.285-5.57,3.43
		C59.438,205.935,59.76,209.685,60.419,211.635"/>
	<path fill="#171717" d="M132.791,211.635c0.625,1.848,13.142,20.025,14.479,21.969v0.18c0.003-0.002,0.024-0.037,0.063-0.09
		c0.035,0.053,0.062,0.088,0.063,0.09v-0.18c1.34-1.943,13.854-20.121,14.479-21.969c0.659-1.95,0.98-5.7-0.947-7.842
		c-1.929-2.145-4.07-3.43-5.569-3.43c-0.679,0-1.817-0.072-3.146,0.473c-1.514,0.945-3.053,2.863-3.208,6.766
		c0,0-0.271-6.668,2.298-10.545c0.16-0.301,0.328-0.582,0.518-0.813c0,0-3.493,0.295-4.485,0.287
		c-0.993,0.008-4.483-0.287-4.483-0.287c0.187,0.229,0.354,0.512,0.516,0.813c2.569,3.877,2.296,10.545,2.296,10.545
		c-0.152-3.9-1.692-5.818-3.208-6.766c-1.326-0.545-2.464-0.473-3.143-0.473c-1.501,0-3.645,1.285-5.57,3.43
		C131.81,205.935,132.131,209.685,132.791,211.635"/>
	<polygon fill="#1F1A17" points="37.533,47.537 36.876,47.537 34.592,47.537 41.428,25.383 43.628,25.383 37.873,44.925 
		41.247,44.925 41.247,40.648 43.384,40.648 43.384,44.93 47.055,44.93 47.055,47.537 47.05,47.537 44.913,47.537 43.384,47.537 
		43.384,51.123 41.247,51.123 41.247,47.537 	"/>
	<polygon fill="#1F1A17" points="186.271,225.495 186.928,225.495 189.212,225.495 182.375,247.65 180.176,247.65 185.931,228.107 
		182.557,228.107 182.557,232.385 180.419,232.385 180.419,228.104 176.749,228.104 176.749,225.495 176.754,225.495 
		178.891,225.495 180.419,225.495 180.419,221.911 182.557,221.911 182.557,225.495 	"/>
</g>
</svg>
