<?xml version="1.0" encoding="utf-8"?>
<!-- Generator: Adobe Illustrator 16.0.0, SVG Export Plug-In . SVG Version: 6.00 Build 0)  -->
<!DOCTYPE svg PUBLIC "-//W3C//DTD SVG 1.1//EN" "http://www.w3.org/Graphics/SVG/1.1/DTD/svg11.dtd">
<svg version="1.1" id="Layer_1" xmlns="http://www.w3.org/2000/svg" xmlns:xlink="http://www.w3.org/1999/xlink" x="0px" y="0px"
	 width="170.658px" height="254.813px" viewBox="25.099 4.075 170.658 254.813"
	 enable-background="new 25.099 4.075 170.658 254.813" xml:space="preserve">
<g>
	<path fill="#FFFFFF" d="M33.196,4.183h154.463c4.396,0,7.989,3.595,7.989,7.989V250.79c0,4.396-3.596,7.99-7.989,7.99H33.196
		c-4.395,0-7.989-3.596-7.989-7.99V12.172C25.207,7.778,28.802,4.183,33.196,4.183z"/>
	<path fill="none" stroke="#1F1A17" stroke-width="0.216" stroke-miterlimit="10" d="M33.196,4.183h154.463
		c4.396,0,7.989,3.595,7.989,7.989V250.79c0,4.396-3.596,7.99-7.989,7.99H33.196c-4.395,0-7.989-3.596-7.989-7.99V12.172
		C25.207,7.778,28.802,4.183,33.196,4.183z"/>
	<path fill="#1F1A17" d="M40.973,25.889l-2.715,8.887h5.43L40.973,25.889z M32.203,42.141h1.392
		c2.096-6.857,4.327-14.176,6.387-20.92l1.977-0.003c2.104,6.887,4.245,13.896,6.358,20.813l1.446,0.011v2.338
		c-2.32,0-4.651-0.041-7.02-0.041V42.03h3.161l-1.512-4.947h-6.84l-1.545,5.057h2.783v2.309h-6.588L32.203,42.141L32.203,42.141z"/>
	<path fill="#1F1A17" d="M180.925,236.809l2.716-8.887h-5.431L180.925,236.809z M189.693,220.556h-1.392
		c-2.095,6.858-4.327,14.176-6.386,20.92l-1.979,0.003c-2.104-6.887-4.244-13.896-6.357-20.813l-1.446-0.012v-2.338
		c2.32,0,4.651,0.042,7.021,0.042v2.308h-3.16l1.511,4.947h6.841l1.545-5.057h-2.783v-2.309h6.588v2.308H189.693z"/>
	<path fill="#171717" d="M50.229,59.361c-0.361-1.068-7.599-11.581-8.373-12.704v-0.104c-0.002,0.002-0.016,0.021-0.036,0.053
		c-0.021-0.031-0.035-0.051-0.036-0.053v0.104c-0.774,1.123-8.012,11.636-8.373,12.704c-0.381,1.128-0.567,3.296,0.548,4.535
		c1.115,1.238,2.354,1.982,3.221,1.982c0.394,0,1.052,0.042,1.818-0.273c0.876-0.547,1.766-1.656,1.855-3.912
		c0,0,0.157,3.856-1.329,6.098c-0.093,0.175-0.189,0.337-0.298,0.47c0,0,2.02-0.17,2.594-0.166c0.574-0.005,2.594,0.166,2.594,0.166
		c-0.108-0.133-0.205-0.295-0.299-0.47c-1.485-2.242-1.328-6.098-1.328-6.098c0.089,2.256,0.979,3.365,1.855,3.912
		c0.767,0.315,1.425,0.273,1.817,0.273c0.868,0,2.106-0.744,3.222-1.982C50.796,62.657,50.609,60.489,50.229,59.361"/>
	<path fill="#171717" d="M124.984,134.865c-0.625-1.85-13.154-20.049-14.494-21.994v-0.18c-0.004,0.002-0.026,0.037-0.063,0.09
		c-0.034-0.054-0.061-0.088-0.063-0.09v0.18c-1.34,1.945-13.868,20.145-14.495,21.994c-0.659,1.952-0.981,5.708,0.948,7.85
		c1.931,2.146,4.076,3.433,5.577,3.433c0.68,0,1.819,0.074,3.148-0.474c1.516-0.945,3.057-2.865,3.211-6.771
		c0,0,0.271,6.676-2.3,10.557c-0.161,0.301-0.329,0.584-0.517,0.813c0,0,3.497-0.296,4.49-0.287c0.994-0.009,4.49,0.287,4.49,0.287
		c-0.187-0.231-0.354-0.513-0.517-0.813c-2.571-3.881-2.299-10.557-2.299-10.557c0.152,3.906,1.694,5.826,3.211,6.771
		c1.326,0.548,2.467,0.474,3.146,0.474c1.503,0,3.647-1.287,5.577-3.433C125.968,140.571,125.646,136.817,124.984,134.865"/>
	<path fill="#171717" d="M173.128,203.211c0.36,1.067,7.599,11.58,8.373,12.705v0.104c0.001-0.001,0.015-0.021,0.036-0.053
		c0.021,0.031,0.033,0.052,0.035,0.053v-0.104c0.775-1.125,8.012-11.638,8.373-12.705c0.382-1.127,0.566-3.297-0.547-4.535
		c-1.115-1.239-2.354-1.982-3.223-1.982c-0.393,0-1.051-0.043-1.818,0.271c-0.875,0.548-1.766,1.656-1.854,3.912
		c0,0-0.156-3.854,1.328-6.098c0.093-0.174,0.189-0.337,0.299-0.47c0,0-2.02,0.171-2.594,0.166
		c-0.574,0.005-2.594-0.166-2.594-0.166c0.106,0.133,0.205,0.295,0.298,0.47c1.485,2.242,1.327,6.098,1.327,6.098
		c-0.088-2.256-0.979-3.364-1.854-3.912c-0.767-0.314-1.426-0.271-1.818-0.271c-0.867,0-2.105,0.743-3.221,1.982
		C172.561,199.917,172.746,202.084,173.128,203.211"/>
</g>
</svg>
