<?xml version="1.0" encoding="utf-8"?>
<!-- Generator: Adobe Illustrator 16.0.0, SVG Export Plug-In . SVG Version: 6.00 Build 0)  -->
<!DOCTYPE svg PUBLIC "-//W3C//DTD SVG 1.1//EN" "http://www.w3.org/Graphics/SVG/1.1/DTD/svg11.dtd">
<svg version="1.1" id="Layer_1" xmlns="http://www.w3.org/2000/svg" xmlns:xlink="http://www.w3.org/1999/xlink" x="0px" y="0px"
	 width="170.657px" height="254.813px" viewBox="16.476 16.344 170.657 254.813"
	 enable-background="new 16.476 16.344 170.657 254.813" xml:space="preserve">
<g>
	<path fill="#FFFFFF" d="M24.573,16.452h154.463c4.395,0,7.988,3.596,7.988,7.99V263.06c0,4.394-3.595,7.989-7.988,7.989H24.573
		c-4.396,0-7.989-3.596-7.989-7.989V24.442C16.584,20.048,20.179,16.452,24.573,16.452z"/>
	<path fill="none" stroke="#1F1A17" stroke-width="0.216" stroke-miterlimit="10" d="M24.573,16.452h154.463
		c4.395,0,7.988,3.596,7.988,7.99V263.06c0,4.394-3.595,7.989-7.988,7.989H24.573c-4.396,0-7.989-3.596-7.989-7.989V24.442
		C16.584,20.048,20.179,16.452,24.573,16.452z"/>
	<path fill="#171717" d="M41.381,71.835c-0.361-1.068-7.599-11.581-8.373-12.704v-0.104c-0.002,0.001-0.016,0.021-0.036,0.052
		c-0.021-0.031-0.035-0.051-0.036-0.052v0.104c-0.773,1.123-8.012,11.636-8.373,12.704c-0.381,1.128-0.566,3.297,0.548,4.535
		c1.115,1.238,2.354,1.982,3.222,1.982c0.394,0,1.052,0.042,1.817-0.273c0.876-0.547,1.767-1.655,1.855-3.912
		c0,0,0.157,3.856-1.329,6.099c-0.093,0.174-0.189,0.336-0.298,0.47c0,0,2.02-0.171,2.594-0.166
		c0.574-0.005,2.594,0.166,2.594,0.166c-0.107-0.134-0.205-0.296-0.299-0.47c-1.484-2.242-1.328-6.099-1.328-6.099
		c0.089,2.257,0.979,3.365,1.855,3.912c0.767,0.315,1.425,0.273,1.816,0.273c0.868,0,2.106-0.744,3.223-1.982
		C41.949,75.132,41.762,72.963,41.381,71.835"/>
	<path fill="#171717" d="M163.687,215.897c0.361,1.068,7.601,11.581,8.373,12.705v0.104c0.002-0.002,0.017-0.021,0.036-0.053
		c0.021,0.031,0.035,0.051,0.036,0.053v-0.104c0.773-1.124,8.012-11.637,8.373-12.705c0.381-1.127,0.566-3.296-0.548-4.535
		c-1.114-1.238-2.354-1.982-3.222-1.982c-0.394,0-1.052-0.041-1.817,0.273c-0.876,0.547-1.767,1.656-1.855,3.912
		c0,0-0.156-3.855,1.329-6.098c0.093-0.176,0.189-0.338,0.298-0.471c0,0-2.02,0.172-2.594,0.166
		c-0.574,0.006-2.594-0.166-2.594-0.166c0.107,0.133,0.205,0.295,0.299,0.471c1.485,2.242,1.328,6.098,1.328,6.098
		c-0.089-2.256-0.979-3.365-1.855-3.912c-0.767-0.314-1.425-0.273-1.816-0.273c-0.868,0-2.106,0.744-3.223,1.982
		C163.119,212.602,163.306,214.771,163.687,215.897"/>
	<path fill="#171717" d="M80.52,147.104c-0.625-1.847-13.14-20.025-14.479-21.969v-0.18c-0.003,0.003-0.026,0.037-0.063,0.091
		c-0.036-0.054-0.06-0.088-0.062-0.091v0.18c-1.34,1.943-13.854,20.122-14.48,21.969c-0.658,1.95-0.979,5.7,0.947,7.844
		c1.929,2.141,4.071,3.428,5.57,3.428c0.68,0,1.817,0.072,3.145-0.473c1.514-0.945,3.053-2.863,3.208-6.766
		c0,0,0.271,6.668-2.298,10.545c-0.16,0.302-0.328,0.582-0.516,0.813c0,0,3.491-0.295,4.484-0.287
		c0.993-0.008,4.484,0.287,4.484,0.287c-0.187-0.229-0.354-0.511-0.517-0.813c-2.567-3.877-2.296-10.545-2.296-10.545
		c0.153,3.9,1.693,5.818,3.208,6.766c1.325,0.545,2.464,0.473,3.144,0.473c1.501,0,3.643-1.287,5.569-3.428
		C81.501,152.804,81.179,149.054,80.52,147.104"/>
	<path fill="#171717" d="M152.892,148.444c-0.625-1.848-13.14-20.026-14.479-21.97v-0.179c-0.003,0.002-0.026,0.036-0.063,0.09
		c-0.036-0.054-0.061-0.088-0.063-0.09v0.179c-1.34,1.943-13.854,20.122-14.479,21.97c-0.658,1.95-0.979,5.7,0.947,7.842
		c1.929,2.144,4.071,3.428,5.57,3.428c0.68,0,1.817,0.074,3.145-0.471c1.514-0.947,3.053-2.863,3.208-6.767
		c0,0,0.271,6.668-2.298,10.545c-0.16,0.302-0.328,0.583-0.517,0.813c0,0,3.492-0.297,4.485-0.287
		c0.992-0.01,4.484,0.287,4.484,0.287c-0.187-0.23-0.354-0.512-0.517-0.813c-2.567-3.877-2.296-10.545-2.296-10.545
		c0.153,3.901,1.693,5.819,3.207,6.767c1.326,0.545,2.465,0.471,3.145,0.471c1.501,0,3.643-1.285,5.569-3.428
		C153.873,154.145,153.551,150.395,152.892,148.444"/>
	<path fill="#171717" d="M152.222,68.564c-0.625-1.847-13.14-20.025-14.479-21.969v-0.18c-0.003,0.003-0.026,0.037-0.063,0.091
		c-0.035-0.054-0.06-0.088-0.062-0.091v0.18c-1.341,1.943-13.854,20.122-14.479,21.969c-0.659,1.95-0.979,5.7,0.947,7.843
		c1.928,2.142,4.071,3.428,5.569,3.428c0.681,0,1.817,0.073,3.146-0.472c1.514-0.946,3.053-2.863,3.208-6.766
		c0,0,0.271,6.668-2.298,10.545c-0.161,0.302-0.329,0.582-0.517,0.813c0,0,3.492-0.296,4.484-0.286
		c0.993-0.01,4.485,0.286,4.485,0.286c-0.188-0.23-0.354-0.511-0.517-0.813c-2.567-3.877-2.296-10.545-2.296-10.545
		c0.153,3.902,1.693,5.819,3.207,6.766c1.326,0.545,2.465,0.472,3.145,0.472c1.501,0,3.643-1.286,5.569-3.428
		C153.203,74.265,152.881,70.515,152.222,68.564"/>
	<path fill="#171717" d="M81.189,68.564c-0.624-1.847-13.14-20.025-14.479-21.969v-0.18c-0.003,0.003-0.026,0.037-0.063,0.091
		c-0.035-0.054-0.06-0.088-0.062-0.091v0.18c-1.34,1.943-13.854,20.122-14.48,21.969c-0.658,1.95-0.979,5.7,0.948,7.843
		c1.928,2.142,4.07,3.428,5.57,3.428c0.679,0,1.816,0.073,3.145-0.472c1.515-0.946,3.052-2.863,3.207-6.766
		c0,0,0.271,6.668-2.297,10.545c-0.161,0.302-0.329,0.582-0.517,0.813c0,0,3.491-0.296,4.484-0.286
		c0.993-0.01,4.485,0.286,4.485,0.286c-0.188-0.23-0.354-0.511-0.516-0.813c-2.569-3.877-2.298-10.545-2.298-10.545
		c0.153,3.902,1.693,5.819,3.208,6.766c1.325,0.545,2.465,0.472,3.144,0.472c1.501,0,3.644-1.286,5.569-3.428
		C82.171,74.265,81.85,70.515,81.189,68.564"/>
	<path fill="#171717" d="M51.438,219.114c0.624,1.848,13.141,20.025,14.479,21.969v0.18c0.003-0.002,0.025-0.036,0.063-0.09
		c0.035,0.054,0.061,0.088,0.063,0.09v-0.18c1.34-1.942,13.854-20.121,14.479-21.969c0.658-1.951,0.979-5.701-0.947-7.843
		c-1.929-2.144-4.07-3.429-5.57-3.429c-0.679,0-1.817-0.072-3.145,0.473c-1.515,0.945-3.053,2.863-3.208,6.766
		c0,0-0.271-6.668,2.298-10.545c0.16-0.302,0.328-0.582,0.517-0.813c0,0-3.492,0.295-4.485,0.285
		c-0.993,0.01-4.484-0.285-4.484-0.285c0.187,0.229,0.354,0.511,0.516,0.813c2.569,3.877,2.297,10.545,2.297,10.545
		c-0.153-3.901-1.692-5.82-3.208-6.766c-1.325-0.545-2.464-0.473-3.143-0.473c-1.501,0-3.644,1.285-5.57,3.429
		C50.456,213.413,50.777,217.163,51.438,219.114"/>
	<path fill="#171717" d="M123.81,219.114c0.624,1.848,13.141,20.025,14.479,21.969v0.18c0.002-0.002,0.025-0.036,0.063-0.09
		c0.035,0.054,0.061,0.088,0.063,0.09v-0.18c1.34-1.942,13.854-20.121,14.479-21.969c0.658-1.951,0.979-5.701-0.948-7.843
		c-1.928-2.144-4.069-3.429-5.569-3.429c-0.68,0-1.817-0.072-3.146,0.473c-1.514,0.945-3.053,2.863-3.207,6.766
		c0,0-0.271-6.668,2.297-10.545c0.161-0.302,0.329-0.582,0.518-0.813c0,0-3.493,0.295-4.485,0.285
		c-0.993,0.01-4.484-0.285-4.484-0.285c0.187,0.229,0.354,0.511,0.516,0.813c2.568,3.877,2.297,10.545,2.297,10.545
		c-0.153-3.901-1.693-5.82-3.208-6.766c-1.325-0.545-2.465-0.473-3.143-0.473c-1.501,0-3.645,1.285-5.57,3.429
		C122.828,213.413,123.149,217.163,123.81,219.114"/>
	<polygon fill="#1F1A17" points="167.665,253.997 167.008,253.997 164.724,253.997 173.437,228.799 176.378,228.799 
		168.568,251.385 175.044,251.385 175.044,248.321 177.182,248.321 177.182,251.385 177.187,251.385 177.187,253.997 
		177.182,253.997 175.044,253.997 	"/>
	<polygon fill="#1F1A17" points="36.614,32.835 37.271,32.835 39.556,32.835 30.843,58.031 27.901,58.031 35.711,35.447 
		29.234,35.447 29.234,38.511 27.098,38.511 27.098,35.447 27.093,35.447 27.093,32.835 27.098,32.835 29.234,32.835 	"/>
	<path fill="#171717" d="M116.033,104.753c-0.625-1.847-13.141-20.025-14.479-21.969v-0.18c-0.003,0.003-0.026,0.037-0.063,0.091
		c-0.035-0.054-0.061-0.088-0.063-0.091v0.18c-1.34,1.943-13.854,20.122-14.479,21.969c-0.659,1.951-0.98,5.701,0.946,7.843
		c1.928,2.142,4.07,3.428,5.57,3.428c0.68,0,1.817,0.073,3.145-0.472c1.515-0.946,3.054-2.863,3.208-6.766
		c0,0,0.271,6.668-2.298,10.545c-0.161,0.302-0.329,0.582-0.516,0.813c0,0,3.492-0.295,4.484-0.287
		c0.992-0.008,4.484,0.287,4.484,0.287c-0.187-0.23-0.354-0.511-0.516-0.813c-2.568-3.877-2.296-10.545-2.296-10.545
		c0.152,3.902,1.692,5.819,3.207,6.766c1.325,0.545,2.465,0.472,3.144,0.472c1.501,0,3.644-1.286,5.57-3.428
		C117.015,110.454,116.692,106.704,116.033,104.753"/>
</g>
</svg>
