<?xml version="1.0" encoding="utf-8"?>
<!-- Generator: Adobe Illustrator 16.0.0, SVG Export Plug-In . SVG Version: 6.00 Build 0)  -->
<!DOCTYPE svg PUBLIC "-//W3C//DTD SVG 1.1//EN" "http://www.w3.org/Graphics/SVG/1.1/DTD/svg11.dtd">
<svg version="1.1" id="Layer_2" xmlns="http://www.w3.org/2000/svg" xmlns:xlink="http://www.w3.org/1999/xlink" x="0px" y="0px"
	 width="170.657px" height="254.814px" viewBox="0 0 170.657 254.814" enable-background="new 0 0 170.657 254.814"
	 xml:space="preserve">
<g>
	<g opacity="0.7">
		
			<path id="border" opacity="0.6" fill="none" stroke="#999999" stroke-width="5" stroke-miterlimit="10" enable-background="new    " d="
			M13.526,8.378h143.539c4.084,0,7.424,3.366,7.424,7.479V239.16c0,4.111-3.344,7.479-7.424,7.479H13.526
			c-4.083,0-7.423-3.367-7.423-7.479V15.856C6.102,11.743,9.443,8.378,13.526,8.378z"/>
		
			<path id="extBorder" opacity="0.1" fill="none" stroke="#999999" stroke-width="0.216" stroke-miterlimit="10" enable-background="new    " d="
			M8.096,0.11h154.463c4.396,0,7.99,3.596,7.99,7.99v238.612c0,4.396-3.596,7.99-7.99,7.99H8.096c-4.396,0-7.988-3.596-7.988-7.99
			V8.1C0.106,3.705,3.702,0.11,8.096,0.11z"/>
	</g>
	<g>
		<g opacity="0.7">
			<path fill="#FFFFFF" d="M23.001,64.976l75.685-15.383c2.154-0.438,4.271,0.967,4.713,3.12l23.762,116.918
				c0.438,2.153-0.968,4.272-3.117,4.71l-75.688,15.383c-2.153,0.438-4.271-0.966-4.708-3.118L19.884,69.687
				C19.445,67.534,20.848,65.413,23.001,64.976z"/>
			<path fill="none" stroke="#999999" stroke-width="0.216" stroke-miterlimit="10" d="M23.001,64.976l75.685-15.383
				c2.154-0.438,4.271,0.967,4.713,3.12l23.762,116.918c0.438,2.153-0.968,4.272-3.117,4.71l-75.688,15.383
				c-2.153,0.438-4.271-0.966-4.708-3.118L19.884,69.687C19.445,67.534,20.848,65.413,23.001,64.976z"/>
			<path fill="#999999" d="M28.974,74.838l-0.445,4.624l2.661-0.541L28.974,74.838z M26.296,83.674l0.683-0.138
				c0.343-3.57,0.707-7.378,1.044-10.888l0.97-0.199c1.717,3.166,3.465,6.388,5.188,9.565l0.709-0.14l0.233,1.146
				c-1.138,0.23-2.282,0.443-3.445,0.679l-0.229-1.132l1.55-0.314l-1.233-2.272l-3.352,0.681l-0.254,2.632l1.363-0.277l0.229,1.132
				l-3.228,0.656l-0.23-1.133h0.002V83.674z"/>
			<path fill="#999999" d="M29.326,88.049c-0.059-1.019,0.313-1.542,0.966-1.927c1.19-0.697,2.929-0.308,3.462,0.768
				c0.472,0.954,0.05,1.746-0.416,2.778c0.68-0.363,0.873-0.832,1.788-0.854c0.81-0.018,1.524,0.734,1.696,1.124
				c0.66,1.482-0.118,3.11-1.4,3.347c-0.578,0.106-0.842-0.091-1.154-0.254c-0.619-0.326-0.807-0.667-1.322-1.081
				c-0.131,0.297,0.066,0.588,0.169,0.825c0.133,0.312,0.37,0.506,0.519,0.752c0.166,0.275,0.262,0.633,0.426,0.893
				c0.144,0.226,0.558,0.354,0.38,0.659c-0.841,0.09-1.928,0.552-2.61,0.407c0.052-0.982,0.561-2.205-0.06-3.295
				c0.166,1.929-2.086,2.646-3.257,1.689c-0.849-0.693-1.632-3.112,0.614-3.848c0.429-0.14,0.912,0.034,1.365,0.091
				c-0.368-0.675-0.931-0.895-1.118-1.84C29.358,88.206,29.341,88.127,29.326,88.049"/>
		</g>
		<g opacity="0.7">
			<path fill="#FFFFFF" d="M40.424,63.108l77.083-4.794c2.193-0.137,4.1,1.546,4.236,3.74l7.406,119.078
				c0.139,2.192-1.546,4.098-3.738,4.233l-77.083,4.795c-2.193,0.137-4.099-1.547-4.235-3.738L36.686,67.344
				C36.548,65.152,38.231,63.245,40.424,63.108z"/>
			<path fill="none" stroke="#999999" stroke-width="0.216" stroke-miterlimit="10" d="M40.424,63.108l77.083-4.794
				c2.193-0.137,4.1,1.546,4.236,3.74l7.406,119.078c0.139,2.192-1.546,4.098-3.738,4.233l-77.083,4.795
				c-2.193,0.137-4.099-1.547-4.235-3.738L36.686,67.344C36.548,65.152,38.231,63.245,40.424,63.108z"/>
			<path fill="#999999" d="M44.978,73.7l-1.077,4.519l2.71-0.167L44.978,73.7z M41.106,82.082l0.695-0.043
				c0.834-3.486,1.72-7.208,2.538-10.638l0.986-0.063c1.266,3.371,2.55,6.805,3.819,10.188l0.723-0.039l0.072,1.168
				c-1.157,0.072-2.322,0.124-3.505,0.197l-0.07-1.152l1.576-0.098l-0.908-2.422l-3.413,0.214l-0.612,2.57l1.387-0.087l0.073,1.152
				l-3.288,0.205L41.106,82.082L41.106,82.082z"/>
			<path fill="#999999" d="M46.292,84.249c0,0-0.854,4.354-3.709,6.117c0,0,3.675,2.026,4.465,5.358c0,0,0.864-4.229,3.808-5.915
				C50.855,89.81,47.718,88.377,46.292,84.249"/>
		</g>
		<g opacity="0.7">
			<path fill="#FFFFFF" d="M56.268,63.421l77.072,4.968c2.193,0.142,3.869,2.051,3.728,4.243l-7.673,119.062
				c-0.143,2.193-2.055,3.871-4.243,3.729l-77.075-4.967c-2.192-0.142-3.87-2.052-3.728-4.244l7.675-119.063
				C52.164,64.956,54.075,63.279,56.268,63.421z"/>
			<path fill="none" stroke="#999999" stroke-width="0.216" stroke-miterlimit="10" d="M56.268,63.421l77.072,4.968
				c2.193,0.142,3.869,2.051,3.728,4.243l-7.673,119.062c-0.143,2.193-2.055,3.871-4.243,3.729l-77.075-4.967
				c-2.192-0.142-3.87-2.052-3.728-4.244l7.675-119.063C52.164,64.956,54.075,63.279,56.268,63.421z"/>
			<path fill="#999999" d="M59.449,74.5l-1.641,4.349l2.709,0.173L59.449,74.5z M54.55,82.327l0.694,0.044
				c1.267-3.352,2.614-6.934,3.86-10.231l0.986,0.062c0.829,3.505,1.671,7.072,2.502,10.59l0.724,0.052L63.24,84.01
				c-1.156-0.072-2.318-0.17-3.499-0.244l0.073-1.154l1.575,0.101l-0.593-2.517l-3.415-0.219l-0.933,2.473l1.389,0.089l-0.074,1.152
				l-3.287-0.211L54.55,82.327L54.55,82.327z"/>
			<path fill="#999999" d="M62.992,91.5c-0.146-0.545-3.42-6.022-3.77-6.607l0.003-0.054c-0.001,0.002-0.009,0.011-0.021,0.027
				c-0.009-0.017-0.016-0.026-0.015-0.027l-0.005,0.052c-0.421,0.536-4.371,5.547-4.586,6.069c-0.227,0.55-0.389,1.626,0.128,2.28
				c0.517,0.652,1.111,1.063,1.543,1.092c0.197,0.012,0.524,0.056,0.917-0.078c0.454-0.244,0.934-0.77,1.052-1.892
				c0,0-0.047,1.93-0.86,3c-0.051,0.087-0.104,0.164-0.164,0.226c0,0,1.013-0.02,1.301,0.001c0.285,0.016,1.287,0.166,1.287,0.166
				c-0.048-0.067-0.092-0.153-0.133-0.245c-0.671-1.166-0.467-3.084-0.467-3.084c-0.028,1.127,0.381,1.709,0.799,2.01
				c0.374,0.182,0.704,0.185,0.899,0.195c0.434,0.028,1.075-0.304,1.671-0.885C63.167,93.164,63.144,92.075,62.992,91.5"/>
		</g>
		<g opacity="0.7">
			<path fill="#FFFFFF" d="M71.785,65.592l75.831,14.65c2.158,0.418,3.581,2.523,3.166,4.68L128.15,202.065
				c-0.417,2.158-2.522,3.581-4.683,3.162L47.64,190.581c-2.158-0.418-3.581-2.523-3.165-4.68L67.106,68.758
				C67.523,66.6,69.627,65.177,71.785,65.592z"/>
			<path fill="none" stroke="#999999" stroke-width="0.216" stroke-miterlimit="10" d="M71.785,65.592l75.831,14.65
				c2.158,0.418,3.581,2.523,3.166,4.68L128.15,202.065c-0.417,2.158-2.522,3.581-4.683,3.162L47.64,190.581
				c-2.158-0.418-3.581-2.523-3.165-4.68L67.106,68.758C67.523,66.6,69.627,65.177,71.785,65.592z"/>
			<path fill="#9B9B9B" d="M75.182,89.641c-0.433-0.72-0.976-1.208-1.405-1.291c-0.418-0.08-1.419-0.377-2.622,1.22
				c-0.524-1.896-1.555-1.992-1.968-2.073c-0.43-0.083-1.113,0.167-1.785,0.674c-0.671,0.507-0.786,1.598-0.706,2.194
				c0.082,0.594,2.914,7.113,2.914,7.113s5.112-5.017,5.41-5.537C75.318,91.417,75.617,90.361,75.182,89.641"/>
			<path fill="#999999" d="M73.543,76.985l-2.177,4.106l2.667,0.515L73.543,76.985z M67.697,84.132l0.684,0.133
				c1.68-3.166,3.47-6.548,5.12-9.663l0.97,0.185c0.381,3.583,0.768,7.228,1.148,10.822l0.708,0.144l-0.222,1.147
				c-1.139-0.22-2.279-0.461-3.441-0.688l0.218-1.134l1.552,0.3l-0.272-2.57l-3.357-0.648l-1.24,2.335l1.366,0.264l-0.218,1.135
				l-3.233-0.624L67.697,84.132L67.697,84.132z"/>
			<path fill="#999999" d="M121.067,181.083c0.434,0.721,0.975,1.207,1.404,1.291c0.419,0.082,1.417,0.377,2.621-1.219
				c0.525,1.896,1.554,1.992,1.969,2.072c0.43,0.084,1.113-0.166,1.785-0.673c0.671-0.51,0.785-1.6,0.705-2.195
				c-0.082-0.593-2.915-7.11-2.915-7.11s-5.111,5.013-5.409,5.535C120.932,179.307,120.631,180.362,121.067,181.083"/>
			<path fill="#999999" d="M122.706,193.739l2.176-4.105l-2.666-0.516L122.706,193.739z M128.549,186.593l-0.684-0.133
				c-1.68,3.168-3.47,6.548-5.119,9.664l-0.97-0.186c-0.381-3.581-0.769-7.226-1.147-10.822l-0.711-0.141l0.225-1.15
				c1.139,0.221,2.279,0.463,3.441,0.688l-0.219,1.133l-1.552-0.299l0.272,2.569l3.356,0.65l1.239-2.336l-1.368-0.266l0.22-1.134
				l3.233,0.625L128.549,186.593L128.549,186.593z"/>
			<path fill="#999999" d="M105.977,129.895c-0.785-1.302-1.764-2.179-2.538-2.328c-0.755-0.146-2.563-0.685-4.733,2.2
				c-0.949-3.428-2.809-3.602-3.558-3.745c-0.776-0.15-2.012,0.301-3.226,1.217c-1.211,0.916-1.42,2.886-1.272,3.964
				c0.144,1.075,5.265,12.847,5.265,12.847s9.231-9.059,9.771-10.002C106.22,133.104,106.76,131.197,105.977,129.895"/>
		</g>
	</g>
</g>
</svg>
