<?xml version="1.0" encoding="utf-8"?>
<!-- Generator: Adobe Illustrator 16.0.0, SVG Export Plug-In . SVG Version: 6.00 Build 0)  -->
<!DOCTYPE svg PUBLIC "-//W3C//DTD SVG 1.1//EN" "http://www.w3.org/Graphics/SVG/1.1/DTD/svg11.dtd">
<svg version="1.1" id="Layer_1" xmlns="http://www.w3.org/2000/svg" xmlns:xlink="http://www.w3.org/1999/xlink" x="0px" y="0px"
	 width="170.657px" height="254.813px" viewBox="13.044 12.458 170.657 254.813"
	 enable-background="new 13.044 12.458 170.657 254.813" xml:space="preserve">
<g>
	<path fill="#FFFFFF" d="M21.141,12.566h154.462c4.396,0,7.989,3.596,7.989,7.989v238.618c0,4.395-3.595,7.989-7.989,7.989H21.141
		c-4.395,0-7.989-3.596-7.989-7.989V20.556C13.151,16.161,16.746,12.566,21.141,12.566z"/>
	<path fill="none" stroke="#1F1A17" stroke-width="0.216" stroke-miterlimit="10" d="M21.141,12.566h154.462
		c4.396,0,7.989,3.596,7.989,7.989v238.618c0,4.395-3.595,7.989-7.989,7.989H21.141c-4.395,0-7.989-3.596-7.989-7.989V20.556
		C13.151,16.161,16.746,12.566,21.141,12.566z"/>
	<path fill="#B32621" d="M63.721,40.828c0,0-3.945,15.052-14.32,20.604c0,0,12.421,7.892,14.466,19.729
		c0,0,3.945-14.612,14.613-19.872C78.479,61.287,67.812,55.587,63.721,40.828"/>
	<path fill="#B32621" d="M134.488,40.023c0,0-3.944,15.053-14.319,20.604c0,0,12.421,7.891,14.466,19.727
		c0,0,3.945-14.61,14.613-19.872C149.248,60.482,138.58,54.783,134.488,40.023"/>
	<path fill="#B32621" d="M134.488,200.058c0,0-3.944,15.052-14.319,20.604c0,0,12.421,7.891,14.466,19.728
		c0,0,3.945-14.612,14.613-19.873C149.248,220.516,138.58,214.816,134.488,200.058"/>
	<path fill="#B32621" d="M62.917,200.058c0,0-3.945,15.052-14.321,20.604c0,0,12.421,7.891,14.467,19.728
		c0,0,3.945-14.612,14.613-19.873C77.676,220.516,67.008,214.816,62.917,200.058"/>
	<path fill="#B32621" d="M30.382,55.304c0,0-2.293,8.749-8.324,11.977c0,0,7.22,4.587,8.409,11.468c0,0,2.293-8.494,8.494-11.553
		C38.961,67.195,32.76,63.882,30.382,55.304"/>
	<path fill="#B32621" d="M169.507,198.449c0,0-2.294,8.749-8.323,11.976c0,0,7.219,4.587,8.407,11.468c0,0,2.294-8.494,8.495-11.552
		C178.086,210.341,171.885,207.028,169.507,198.449"/>
	<polygon fill="#B32621" points="24.683,50.533 24.025,50.533 21.741,50.533 28.577,28.378 30.777,28.378 25.022,47.921 
		28.396,47.921 28.396,43.644 30.533,43.644 30.533,47.925 34.205,47.925 34.205,50.533 34.199,50.533 32.063,50.533 30.533,50.533 
		30.533,54.118 28.396,54.118 28.396,50.533 	"/>
	<polygon fill="#B32621" points="172.287,227.925 172.943,227.925 175.229,227.925 168.393,250.08 166.191,250.08 171.947,230.538 
		168.573,230.538 168.573,234.814 166.436,234.814 166.436,230.533 162.766,230.533 162.766,227.925 162.771,227.925 
		164.907,227.925 166.436,227.925 166.436,224.34 168.573,224.34 168.573,227.925 	"/>
</g>
</svg>
