<?xml version="1.0" encoding="utf-8"?>
<!-- Generator: Adobe Illustrator 16.0.0, SVG Export Plug-In . SVG Version: 6.00 Build 0)  -->
<!DOCTYPE svg PUBLIC "-//W3C//DTD SVG 1.1//EN" "http://www.w3.org/Graphics/SVG/1.1/DTD/svg11.dtd">
<svg version="1.1" id="Layer_1" xmlns="http://www.w3.org/2000/svg" xmlns:xlink="http://www.w3.org/1999/xlink" x="0px" y="0px"
	 width="170.657px" height="254.813px" viewBox="23.174 17.101 170.657 254.813"
	 enable-background="new 23.174 17.101 170.657 254.813" xml:space="preserve">
<g>
	<path fill="#FFFFFF" d="M31.271,17.209h154.463c4.395,0,7.989,3.596,7.989,7.99v238.617c0,4.395-3.595,7.989-7.989,7.989H31.271
		c-4.395,0-7.989-3.595-7.989-7.989V25.199C23.281,20.805,26.876,17.209,31.271,17.209z"/>
	<path fill="none" stroke="#1F1A17" stroke-width="0.216" stroke-miterlimit="10" d="M31.271,17.209h154.463
		c4.395,0,7.989,3.596,7.989,7.99v238.617c0,4.395-3.595,7.989-7.989,7.989H31.271c-4.395,0-7.989-3.595-7.989-7.989V25.199
		C23.281,20.805,26.876,17.209,31.271,17.209z"/>
	<path fill="#B32621" d="M39.047,38.915l-2.715,8.887h5.43L39.047,38.915z M30.277,55.167h1.392
		c2.096-6.857,4.327-14.176,6.387-20.92l1.977-0.003c2.104,6.887,4.245,13.896,6.358,20.813l1.446,0.011v2.34
		c-2.32,0-4.651-0.041-7.02-0.041v-2.31h3.161l-1.512-4.947h-6.84l-1.545,5.058h2.783v2.309h-6.588L30.277,55.167L30.277,55.167z"/>
	<path fill="#B32621" d="M179.871,249.532l2.715-8.888h-5.43L179.871,249.532z M188.641,233.281h-1.394
		c-2.095,6.856-4.326,14.176-6.386,20.92l-1.978,0.003c-2.104-6.888-4.244-13.896-6.357-20.813l-1.445-0.011v-2.339
		c2.319,0,4.649,0.042,7.02,0.042v2.308h-3.161l1.513,4.947h6.84l1.545-5.057h-2.783v-2.31h6.588L188.641,233.281L188.641,233.281z"
		/>
	<path fill="#B32621" d="M40.36,60.136c0,0-2.249,8.584-8.166,11.75c0,0,7.083,4.5,8.249,11.25c0,0,2.25-8.333,8.334-11.333
		C48.777,71.803,42.693,68.553,40.36,60.136"/>
	<path fill="#B32621" d="M108.265,122.667c0,0-4.272,16.302-15.511,22.314c0,0,13.453,8.546,15.669,21.366
		c0,0,4.271-15.826,15.826-21.522C124.25,144.825,112.695,138.652,108.265,122.667"/>
	<path fill="#B32621" d="M179.074,207.896c0,0-2.25,8.583-8.168,11.75c0,0,7.084,4.5,8.25,11.25c0,0,2.25-8.333,8.334-11.333
		C187.49,219.563,181.406,216.312,179.074,207.896"/>
</g>
</svg>
