<?xml version="1.0" encoding="utf-8"?>
<!-- Generator: Adobe Illustrator 16.0.0, SVG Export Plug-In . SVG Version: 6.00 Build 0)  -->
<!DOCTYPE svg PUBLIC "-//W3C//DTD SVG 1.1//EN" "http://www.w3.org/Graphics/SVG/1.1/DTD/svg11.dtd">
<svg version="1.1" id="Layer_1" xmlns="http://www.w3.org/2000/svg" xmlns:xlink="http://www.w3.org/1999/xlink" x="0px" y="0px"
	 width="170.657px" height="254.812px" viewBox="16.836 10.975 170.657 254.812"
	 enable-background="new 16.836 10.975 170.657 254.812" xml:space="preserve">
<g>
	<path fill="#FFFFFF" d="M24.933,11.083h154.462c4.396,0,7.989,3.595,7.989,7.989V257.69c0,4.396-3.595,7.989-7.989,7.989H24.933
		c-4.395,0-7.989-3.595-7.989-7.989V19.073C16.943,14.678,20.538,11.083,24.933,11.083z"/>
	<path fill="none" stroke="#1F1A17" stroke-width="0.216" stroke-miterlimit="10" d="M24.933,11.083h154.462
		c4.396,0,7.989,3.595,7.989,7.989V257.69c0,4.396-3.595,7.989-7.989,7.989H24.933c-4.395,0-7.989-3.595-7.989-7.989V19.073
		C16.943,14.678,20.538,11.083,24.933,11.083z"/>
	<path fill="#B32621" d="M67.513,39.344c0,0-3.945,15.052-14.32,20.604c0,0,12.421,7.891,14.467,19.728
		c0,0,3.944-14.612,14.612-19.873C82.271,59.803,71.604,54.104,67.513,39.344"/>
	<path fill="#B32621" d="M138.281,198.573c0,0-3.945,15.052-14.32,20.604c0,0,12.421,7.891,14.468,19.729
		c0,0,3.944-14.612,14.612-19.873C153.041,219.032,142.373,213.333,138.281,198.573"/>
	<path fill="#B32621" d="M34.174,53.819c0,0-2.293,8.749-8.324,11.978c0,0,7.221,4.587,8.409,11.467c0,0,2.293-8.493,8.494-11.551
		C42.753,65.712,36.552,62.398,34.174,53.819"/>
	<path fill="#B32621" d="M173.299,196.965c0,0-2.293,8.749-8.323,11.977c0,0,7.219,4.587,8.408,11.468c0,0,2.293-8.493,8.494-11.552
		C181.878,208.857,175.677,205.544,173.299,196.965"/>
	<path fill="#B32621" d="M33.203,26.687L33.203,26.687c-3.017,0-5.484,2.47-5.485,5.485v0.008h2.16
		c0.345-1.518,1.708-2.66,3.325-2.66c1.876,0,3.41,1.535,3.41,3.41c0,0.968-0.272,1.432-0.694,2.313l-8.2,17.065l0.913,0.006
		l0.184,0.102l0.055-0.101l7.677,0.045h2.137h0.006v-2.611h-0.006v-3.063h-2.137v3.063H31.73l-0.009,0.009l-0.328,0.045
		l6.444-13.177c0.854-1.747,1.038-2.887,0.904-4.453c-0.048-0.562-0.14-1.106-0.299-1.619l-0.005-0.076L38.426,30.5
		C37.715,28.294,35.639,26.687,33.203,26.687"/>
	<path fill="#B32621" d="M173.015,248.924L173.015,248.924c3.018,0,5.484-2.469,5.485-5.485v-0.008h-2.16
		c-0.345,1.519-1.708,2.66-3.325,2.66c-1.875,0-3.41-1.535-3.41-3.41c0-0.968,0.272-1.432,0.694-2.313l8.2-17.066l-0.913-0.006
		l-0.185-0.102l-0.055,0.101l-7.677-0.045h-2.137h-0.007v2.611h0.007v3.063h2.137v-3.063h4.815l0.01-0.009l0.328-0.045
		l-6.444,13.177c-0.854,1.747-1.038,2.888-0.903,4.453c0.047,0.562,0.14,1.106,0.299,1.619l0.004,0.076l0.014-0.023
		C168.503,247.316,170.579,248.924,173.015,248.924"/>
</g>
</svg>
