<?xml version="1.0" encoding="utf-8"?>
<!-- Generator: Adobe Illustrator 16.0.0, SVG Export Plug-In . SVG Version: 6.00 Build 0)  -->
<!DOCTYPE svg PUBLIC "-//W3C//DTD SVG 1.1//EN" "http://www.w3.org/Graphics/SVG/1.1/DTD/svg11.dtd">
<svg version="1.1" id="Layer_1" xmlns="http://www.w3.org/2000/svg" xmlns:xlink="http://www.w3.org/1999/xlink" x="0px" y="0px"
	 width="170.658px" height="254.813px" viewBox="37.057 28.458 170.658 254.813"
	 enable-background="new 37.057 28.458 170.658 254.813" xml:space="preserve">
<g>
	<path fill="#FFFFFF" d="M45.154,28.566h154.463c4.396,0,7.989,3.596,7.989,7.99v238.617c0,4.396-3.596,7.989-7.989,7.989H45.154
		c-4.395,0-7.989-3.595-7.989-7.989V36.557C37.165,32.162,40.76,28.566,45.154,28.566z"/>
	<path fill="none" stroke="#1F1A17" stroke-width="0.216" stroke-miterlimit="10" d="M45.154,28.566h154.463
		c4.396,0,7.989,3.596,7.989,7.99v238.617c0,4.396-3.596,7.989-7.989,7.989H45.154c-4.395,0-7.989-3.595-7.989-7.989V36.557
		C37.165,32.162,40.76,28.566,45.154,28.566z"/>
	<path fill="#B32621" d="M87.734,56.828c0,0-3.945,15.052-14.32,20.604c0,0,12.421,7.891,14.466,19.727
		c0,0,3.945-14.612,14.613-19.872C102.493,77.287,91.825,71.588,87.734,56.828"/>
	<path fill="#B32621" d="M158.503,56.024c0,0-3.945,15.052-14.32,20.604c0,0,12.422,7.892,14.467,19.729
		c0,0,3.945-14.612,14.613-19.873C173.263,76.482,162.594,70.783,158.503,56.024"/>
	<path fill="#B32621" d="M158.503,134.835c0,0-3.945,15.053-14.32,20.604c0,0,12.422,7.891,14.467,19.728
		c0,0,3.945-14.611,14.613-19.873C173.263,155.293,162.594,149.594,158.503,134.835"/>
	<path fill="#B32621" d="M86.931,134.835c0,0-3.945,15.053-14.321,20.604c0,0,12.421,7.891,14.467,19.728
		c0,0,3.945-14.611,14.613-19.873C101.689,155.293,91.021,149.594,86.931,134.835"/>
	<path fill="#B32621" d="M158.503,216.058c0,0-3.945,15.052-14.32,20.604c0,0,12.422,7.891,14.467,19.728
		c0,0,3.945-14.611,14.613-19.872C173.263,236.517,162.594,230.817,158.503,216.058"/>
	<path fill="#B32621" d="M86.931,216.058c0,0-3.945,15.052-14.321,20.604c0,0,12.421,7.891,14.467,19.728
		c0,0,3.945-14.611,14.613-19.872C101.689,236.517,91.021,230.817,86.931,216.058"/>
	<path fill="#B32621" d="M54.396,71.304c0,0-2.293,8.748-8.324,11.977c0,0,7.22,4.587,8.409,11.467c0,0,2.293-8.494,8.494-11.552
		C62.975,83.195,56.773,79.883,54.396,71.304"/>
	<path fill="#B32621" d="M193.521,214.449c0,0-2.293,8.749-8.324,11.977c0,0,7.221,4.588,8.408,11.468c0,0,2.295-8.493,8.496-11.552
		C202.101,226.342,195.897,223.028,193.521,214.449"/>
	<path fill="#B32621" d="M53.51,58.343L53.51,58.343c2.018,0,3.668,1.652,3.668,3.668v1.234c0,2.016-1.65,3.669-3.668,3.669
		c-2.018,0-3.668-1.65-3.668-3.669V62.01C49.842,59.993,51.492,58.343,53.51,58.343 M53.51,46.904L53.51,46.904
		c1.876,0,3.41,1.536,3.41,3.409v1.147c0,1.873-1.534,3.41-3.41,3.41c-1.876,0-3.409-1.535-3.409-3.41v-1.147
		C50.101,48.438,51.634,46.904,53.51,46.904z M56.87,56.352c1.532,1.067,2.54,2.845,2.54,4.844v2.656c0,3.244-2.654,5.899-5.9,5.899
		c-3.245,0-5.9-2.653-5.9-5.899v-2.656c0-2,1.008-3.775,2.54-4.844c-1.29-1.006-2.125-2.573-2.125-4.326v-2.47
		c0-3.019,2.469-5.485,5.485-5.485c3.018,0,5.485,2.47,5.485,5.485v2.47C58.995,53.778,58.161,55.346,56.87,56.352z"/>
	<path fill="#B32621" d="M193.438,252.506L193.438,252.506c-2.019,0-3.668-1.651-3.668-3.668v-1.233
		c0-2.017,1.649-3.668,3.668-3.668s3.668,1.649,3.668,3.668v1.233C197.106,250.855,195.457,252.506,193.438,252.506
		 M193.438,263.945L193.438,263.945c-1.875,0-3.41-1.536-3.41-3.41v-1.148c0-1.872,1.535-3.408,3.41-3.408s3.41,1.533,3.41,3.408
		v1.148C196.849,262.41,195.313,263.945,193.438,263.945z M190.079,254.498c-1.533-1.068-2.541-2.846-2.541-4.844v-2.657
		c0-3.244,2.654-5.899,5.9-5.899s5.9,2.654,5.9,5.899v2.657c0,1.999-1.009,3.773-2.541,4.844c1.291,1.005,2.125,2.572,2.125,4.326
		v2.469c0,3.019-2.468,5.485-5.484,5.485c-3.018,0-5.485-2.469-5.485-5.485v-2.469C187.953,257.071,188.788,255.504,190.079,254.498
		z"/>
	<path fill="#B32621" d="M123.923,95.43c0,0-3.945,15.052-14.32,20.604c0,0,12.421,7.891,14.466,19.728
		c0,0,3.945-14.611,14.613-19.872C138.683,115.888,128.015,110.188,123.923,95.43"/>
	<path fill="#B32621" d="M123.119,178.26c0,0-3.945,15.053-14.321,20.604c0,0,12.421,7.891,14.467,19.727
		c0,0,3.945-14.61,14.613-19.871C137.878,198.719,127.21,193.021,123.119,178.26"/>
</g>
</svg>
