<?xml version="1.0" encoding="utf-8"?>
<!-- Generator: Adobe Illustrator 16.0.0, SVG Export Plug-In . SVG Version: 6.00 Build 0)  -->
<!DOCTYPE svg PUBLIC "-//W3C//DTD SVG 1.1//EN" "http://www.w3.org/Graphics/SVG/1.1/DTD/svg11.dtd">
<svg version="1.1" id="Layer_1" xmlns="http://www.w3.org/2000/svg" xmlns:xlink="http://www.w3.org/1999/xlink" x="0px" y="0px"
	 width="170.658px" height="254.813px" viewBox="13.887 12.062 170.658 254.813"
	 enable-background="new 13.887 12.062 170.658 254.813" xml:space="preserve">
<g>
	<path fill="#FFFFFF" d="M21.984,12.17h154.462c4.395,0,7.99,3.595,7.99,7.989v238.618c0,4.395-3.596,7.989-7.99,7.989H21.984
		c-4.395,0-7.989-3.595-7.989-7.989V20.159C13.995,15.765,17.59,12.17,21.984,12.17z"/>
	<path fill="none" stroke="#1F1A17" stroke-width="0.216" stroke-miterlimit="10" d="M21.984,12.17h154.462
		c4.395,0,7.99,3.595,7.99,7.989v238.618c0,4.395-3.596,7.989-7.99,7.989H21.984c-4.395,0-7.989-3.595-7.989-7.989V20.159
		C13.995,15.765,17.59,12.17,21.984,12.17z"/>
	<path fill="#B32621" d="M64.564,40.431c0,0-3.945,15.052-14.321,20.604c0,0,12.421,7.891,14.467,19.727
		c0,0,3.945-14.611,14.613-19.872C79.324,60.89,68.656,55.19,64.564,40.431"/>
	<path fill="#B32621" d="M135.333,39.627c0,0-3.945,15.052-14.32,20.604c0,0,12.42,7.891,14.467,19.728
		c0,0,3.944-14.612,14.612-19.872C150.092,60.086,139.424,54.386,135.333,39.627"/>
	<path fill="#B32621" d="M135.333,118.438c0,0-3.945,15.052-14.32,20.604c0,0,12.42,7.891,14.467,19.728
		c0,0,3.944-14.612,14.612-19.872C150.092,138.896,139.424,133.196,135.333,118.438"/>
	<path fill="#B32621" d="M63.76,118.438c0,0-3.945,15.052-14.321,20.604c0,0,12.421,7.891,14.467,19.728
		c0,0,3.945-14.612,14.613-19.872C78.519,138.896,67.852,133.196,63.76,118.438"/>
	<path fill="#B32621" d="M135.333,199.66c0,0-3.945,15.053-14.32,20.604c0,0,12.42,7.892,14.467,19.728
		c0,0,3.944-14.613,14.612-19.873C150.092,220.119,139.424,214.419,135.333,199.66"/>
	<path fill="#B32621" d="M63.76,199.66c0,0-3.945,15.053-14.321,20.604c0,0,12.421,7.892,14.467,19.728
		c0,0,3.945-14.613,14.613-19.873C78.519,220.119,67.852,214.419,63.76,199.66"/>
	<path fill="#B32621" d="M31.226,54.906c0,0-2.293,8.749-8.324,11.977c0,0,7.22,4.587,8.409,11.467c0,0,2.293-8.494,8.495-11.552
		C39.805,66.798,33.604,63.485,31.226,54.906"/>
	<path fill="#B32621" d="M170.351,198.052c0,0-2.293,8.748-8.324,11.977c0,0,7.22,4.588,8.408,11.467c0,0,2.293-8.492,8.494-11.552
		C178.929,209.943,172.728,206.63,170.351,198.052"/>
	<path fill="#B32621" d="M100.753,79.032c0,0-3.945,15.052-14.321,20.604c0,0,12.42,7.891,14.467,19.729
		c0,0,3.945-14.612,14.613-19.873C115.513,99.49,104.845,93.791,100.753,79.032"/>
	<polygon fill="#B32621" points="34.334,27.873 34.992,27.873 36.674,27.873 30.369,54.274 28.03,54.274 33.431,30.485 
		26.955,30.486 26.955,33.549 24.818,33.549 24.818,30.486 24.813,30.486 24.813,27.873 24.818,27.873 26.955,27.873 	"/>
	<polygon fill="#B32621" points="165.864,251.287 165.207,251.287 163.524,251.287 169.83,224.884 172.169,224.884 166.769,248.673 
		173.244,248.673 173.244,245.61 175.381,245.61 175.381,248.673 175.386,248.673 175.386,251.287 175.381,251.287 173.244,251.287 
			"/>
</g>
</svg>
