<?xml version="1.0" encoding="utf-8"?>
<!-- Generator: Adobe Illustrator 16.0.0, SVG Export Plug-In . SVG Version: 6.00 Build 0)  -->
<!DOCTYPE svg PUBLIC "-//W3C//DTD SVG 1.1//EN" "http://www.w3.org/Graphics/SVG/1.1/DTD/svg11.dtd">
<svg version="1.1" id="Layer_1" xmlns="http://www.w3.org/2000/svg" xmlns:xlink="http://www.w3.org/1999/xlink" x="0px" y="0px"
	 width="170.657px" height="254.813px" viewBox="19.784 9.934 170.657 254.813"
	 enable-background="new 19.784 9.934 170.657 254.813" xml:space="preserve">
<g>
	<path fill="#FFFFFF" d="M27.881,10.042h154.462c4.396,0,7.99,3.595,7.99,7.989v238.617c0,4.396-3.595,7.99-7.99,7.99H27.881
		c-4.395,0-7.988-3.596-7.988-7.99V18.031C19.892,13.637,23.487,10.042,27.881,10.042z"/>
	<path fill="none" stroke="#1F1A17" stroke-width="0.216" stroke-miterlimit="10" d="M27.881,10.042h154.462
		c4.396,0,7.99,3.595,7.99,7.989v238.617c0,4.396-3.595,7.99-7.99,7.99H27.881c-4.395,0-7.988-3.596-7.988-7.99V18.031
		C19.892,13.637,23.487,10.042,27.881,10.042z"/>
	<path fill="#B32621" d="M70.461,38.304c0,0-3.944,15.051-14.32,20.604c0,0,12.421,7.891,14.467,19.728
		c0,0,3.944-14.612,14.613-19.873C85.221,58.762,74.553,53.063,70.461,38.304"/>
	<path fill="#B32621" d="M141.23,37.499c0,0-3.945,15.052-14.321,20.604c0,0,12.421,7.892,14.467,19.728
		c0,0,3.945-14.612,14.613-19.872C155.989,57.958,145.321,52.259,141.23,37.499"/>
	<path fill="#B32621" d="M104.838,119.325c0,0-3.944,15.052-14.32,20.604c0,0,12.421,7.891,14.467,19.728
		c0,0,3.945-14.612,14.613-19.872C119.597,139.784,108.929,134.085,104.838,119.325"/>
	<path fill="#B32621" d="M141.23,197.532c0,0-3.945,15.052-14.321,20.604c0,0,12.421,7.892,14.467,19.729
		c0,0,3.945-14.612,14.613-19.873C155.989,217.991,145.321,212.292,141.23,197.532"/>
	<path fill="#B32621" d="M69.657,197.532c0,0-3.945,15.052-14.321,20.604c0,0,12.421,7.892,14.468,19.729
		c0,0,3.944-14.612,14.612-19.873C84.416,217.991,73.749,212.292,69.657,197.532"/>
	<path fill="#B32621" d="M37.123,52.778c0,0-2.293,8.75-8.324,11.977c0,0,7.221,4.587,8.409,11.467c0,0,2.293-8.493,8.495-11.551
		C45.702,64.671,39.5,61.357,37.123,52.778"/>
	<path fill="#B32621" d="M176.247,195.925c0,0-2.293,8.749-8.324,11.976c0,0,7.221,4.588,8.409,11.469c0,0,2.293-8.494,8.494-11.553
		C184.826,207.816,178.625,204.503,176.247,195.925"/>
	<path fill="#B32621" d="M35.114,50.9L35.114,50.9c-3.018,0-5.485-2.47-5.485-5.485v-0.008h2.16c0.344,1.518,1.708,2.66,3.325,2.66
		c1.875,0,3.41-1.534,3.41-3.41v-4.714c0-1.875-1.534-3.41-3.41-3.41c-1.663,0-3.056,1.208-3.351,2.787H29.63
		c0.001-0.095,0.005-0.189,0.011-0.283h-0.012V25.278l8.828-0.052h2.138h0.005v2.612h-0.005v3.063h-2.138v-3.063h-6.69v7.206
		c0.928-0.72,2.09-1.15,3.349-1.149c3.017,0,5.485,2.469,5.485,5.484v6.035C40.599,48.432,38.131,50.9,35.114,50.9"/>
	<path fill="#B32621" d="M176.339,223.244L176.339,223.244c3.018,0,5.485,2.469,5.485,5.484v0.008h-2.16
		c-0.345-1.518-1.708-2.659-3.326-2.659c-1.875,0-3.408,1.534-3.408,3.409v4.715c0,1.875,1.533,3.41,3.409,3.41
		c1.663,0,3.056-1.209,3.352-2.787h2.133c-0.001,0.095-0.004,0.189-0.01,0.283h0.011v13.759l-8.828,0.052h-2.137h-0.005v-2.611
		h0.005v-3.063h2.137v3.063h6.691V239.1c-0.929,0.721-2.09,1.15-3.349,1.149c-3.017,0-5.485-2.469-5.485-5.485v-6.033
		C170.854,225.713,173.322,223.244,176.339,223.244"/>
</g>
</svg>
