<?xml version="1.0" encoding="utf-8"?>
<!-- Generator: Adobe Illustrator 16.0.0, SVG Export Plug-In . SVG Version: 6.00 Build 0)  -->
<!DOCTYPE svg PUBLIC "-//W3C//DTD SVG 1.1//EN" "http://www.w3.org/Graphics/SVG/1.1/DTD/svg11.dtd">
<svg version="1.1" id="Layer_1" xmlns="http://www.w3.org/2000/svg" xmlns:xlink="http://www.w3.org/1999/xlink" x="0px" y="0px"
	 width="170.658px" height="254.813px" viewBox="13.964 15.322 170.658 254.813"
	 enable-background="new 13.964 15.322 170.658 254.813" xml:space="preserve">
<g>
	<path fill="#FFFFFF" d="M22.061,15.43h154.463c4.395,0,7.989,3.595,7.989,7.989v238.618c0,4.395-3.596,7.989-7.989,7.989H22.061
		c-4.396,0-7.989-3.595-7.989-7.989V23.419C14.071,19.025,17.666,15.43,22.061,15.43z"/>
	<path fill="none" stroke="#1F1A17" stroke-width="0.216" stroke-miterlimit="10" d="M22.061,15.43h154.463
		c4.395,0,7.989,3.595,7.989,7.989v238.618c0,4.395-3.596,7.989-7.989,7.989H22.061c-4.396,0-7.989-3.595-7.989-7.989V23.419
		C14.071,19.025,17.666,15.43,22.061,15.43z"/>
	<path fill="#B32621" d="M29.678,34.162L29.678,34.162c1.875,0,3.408,1.537,3.408,3.41v2.049c0,1.873-1.533,3.41-3.408,3.41
		c-1.878,0-3.41-1.535-3.41-3.41v-2.049C26.268,35.698,27.801,34.162,29.678,34.162 M29.678,31.329L29.678,31.329
		c3.017,0,5.483,2.469,5.483,5.484v3.371c0,0.115-0.004,0.229-0.012,0.343h0.012v9.611v0.796v0.763c0,3.016-2.468,5.484-5.483,5.484
		c-3.019,0-5.486-2.468-5.486-5.484v-1.559h2.076v0.995c0,1.875,1.532,3.41,3.41,3.41c1.875,0,3.408-1.537,3.408-3.41v-0.199h-0.062
		V44.52c-0.928,0.72-2.09,1.15-3.349,1.15c-3.018,0-5.485-2.468-5.485-5.485v-3.371C24.191,33.797,26.66,31.329,29.678,31.329z"/>
	<path fill="#B32621" d="M64.641,43.691c0,0-3.945,15.053-14.32,20.604c0,0,12.421,7.891,14.467,19.728
		c0,0,3.945-14.611,14.613-19.872C79.4,64.15,68.732,58.45,64.641,43.691"/>
	<path fill="#B32621" d="M98.416,121.23c0,0-3.943,15.053-14.319,20.604c0,0,12.422,7.892,14.467,19.728
		c0,0,3.944-14.611,14.612-19.873C113.176,141.689,102.508,135.99,98.416,121.23"/>
	<path fill="#B32621" d="M135.41,42.887c0,0-3.945,15.052-14.322,20.604c0,0,12.422,7.891,14.468,19.728
		c0,0,3.944-14.613,14.612-19.873C150.168,63.346,139.5,57.646,135.41,42.887"/>
	<path fill="#B32621" d="M135.41,96.768c0,0-3.945,15.052-14.322,20.604c0,0,12.422,7.891,14.468,19.727
		c0,0,3.944-14.612,14.612-19.872C150.168,117.227,139.5,111.527,135.41,96.768"/>
	<path fill="#B32621" d="M63.836,96.768c0,0-3.944,15.052-14.319,20.604c0,0,12.422,7.891,14.467,19.727
		c0,0,3.945-14.612,14.613-19.872C78.596,117.227,67.928,111.527,63.836,96.768"/>
	<path fill="#B32621" d="M64.641,149.844c0,0-3.945,15.052-14.32,20.604c0,0,12.421,7.891,14.467,19.727
		c0,0,3.945-14.612,14.613-19.873C79.4,170.303,68.732,164.604,64.641,149.844"/>
	<path fill="#B32621" d="M135.41,149.04c0,0-3.945,15.052-14.322,20.604c0,0,12.422,7.892,14.468,19.729
		c0,0,3.944-14.612,14.612-19.873C150.168,169.499,139.5,163.799,135.41,149.04"/>
	<path fill="#B32621" d="M135.41,202.92c0,0-3.945,15.052-14.322,20.604c0,0,12.422,7.892,14.468,19.729
		c0,0,3.944-14.612,14.612-19.873C150.168,223.379,139.5,217.68,135.41,202.92"/>
	<path fill="#B32621" d="M63.836,202.92c0,0-3.944,15.052-14.319,20.604c0,0,12.422,7.892,14.467,19.729
		c0,0,3.945-14.612,14.613-19.873C78.596,223.379,67.928,217.68,63.836,202.92"/>
	<path fill="#B32621" d="M31.302,58.167c0,0-2.294,8.75-8.323,11.976c0,0,7.22,4.587,8.409,11.468c0,0,2.293-8.493,8.493-11.552
		C39.881,70.059,33.68,66.746,31.302,58.167"/>
	<path fill="#B32621" d="M170.426,201.312c0,0-2.293,8.75-8.323,11.978c0,0,7.221,4.586,8.41,11.467c0,0,2.293-8.494,8.493-11.551
		C179.006,213.204,172.805,209.891,170.426,201.312"/>
	<path fill="#B32621" d="M170.4,250.355L170.4,250.355c-1.875,0-3.41-1.537-3.41-3.41v-2.049c0-1.874,1.535-3.41,3.41-3.41
		s3.41,1.535,3.41,3.41v2.049C173.811,248.821,172.275,250.355,170.4,250.355 M170.4,253.189L170.4,253.189
		c-3.019,0-5.485-2.47-5.485-5.484v-3.371c0-0.115,0.005-0.229,0.012-0.343h-0.012v-9.611v-0.796v-0.763
		c0-3.016,2.468-5.484,5.485-5.484c3.017,0,5.484,2.468,5.484,5.484v1.559h-2.074v-0.995c0-1.875-1.535-3.41-3.41-3.41
		s-3.41,1.537-3.41,3.41v0.199h0.063v6.414c0.928-0.72,2.09-1.15,3.348-1.15c3.018,0,5.485,2.468,5.485,5.485v3.371
		C175.886,250.721,173.418,253.189,170.4,253.189z"/>
</g>
</svg>
