<?xml version="1.0" encoding="utf-8"?>
<!-- Generator: Adobe Illustrator 16.0.0, SVG Export Plug-In . SVG Version: 6.00 Build 0)  -->
<!DOCTYPE svg PUBLIC "-//W3C//DTD SVG 1.1//EN" "http://www.w3.org/Graphics/SVG/1.1/DTD/svg11.dtd">
<svg version="1.1" id="Layer_1" xmlns="http://www.w3.org/2000/svg" xmlns:xlink="http://www.w3.org/1999/xlink" x="0px" y="0px"
	 width="170.657px" height="254.813px" viewBox="29.082 28.8 170.657 254.813" enable-background="new 29.082 28.8 170.657 254.813"
	 xml:space="preserve">
<g>
	<path fill="#FFFFFF" d="M37.179,28.908h154.462c4.396,0,7.989,3.596,7.989,7.989v238.618c0,4.395-3.594,7.989-7.989,7.989H37.179
		c-4.395,0-7.989-3.596-7.989-7.989V36.897C29.19,32.504,32.785,28.908,37.179,28.908z"/>
	<path fill="none" stroke="#1F1A17" stroke-width="0.216" stroke-miterlimit="10" d="M37.179,28.908h154.462
		c4.396,0,7.989,3.596,7.989,7.989v238.618c0,4.395-3.594,7.989-7.989,7.989H37.179c-4.395,0-7.989-3.596-7.989-7.989V36.897
		C29.19,32.504,32.785,28.908,37.179,28.908z"/>
	<path fill="#B32621" d="M79.759,57.17c0,0-3.945,15.053-14.321,20.604c0,0,12.421,7.891,14.467,19.728
		c0,0,3.945-14.611,14.613-19.872C94.519,77.629,83.851,71.93,79.759,57.17"/>
	<path fill="#B32621" d="M150.528,216.399c0,0-3.944,15.052-14.321,20.604c0,0,12.422,7.892,14.467,19.729
		c0,0,3.945-14.612,14.613-19.873C165.287,236.857,154.619,231.158,150.528,216.399"/>
	<path fill="#B32621" d="M114.544,135.994c0,0-3.945,15.052-14.321,20.604c0,0,12.421,7.891,14.467,19.728
		c0,0,3.944-14.612,14.613-19.873C129.303,156.453,118.634,150.754,114.544,135.994"/>
	<path fill="#B32621" d="M46.42,71.646c0,0-2.293,8.749-8.324,11.976c0,0,7.22,4.587,8.409,11.468c0,0,2.293-8.493,8.495-11.552
		C55,83.537,48.798,80.225,46.42,71.646"/>
	<path fill="#B32621" d="M185.544,214.791c0,0-2.293,8.749-8.323,11.978c0,0,7.22,4.586,8.409,11.467c0,0,2.293-8.494,8.494-11.552
		C194.125,226.683,187.923,223.37,185.544,214.791"/>
	<path fill="#B32621" d="M48.896,55.752c1.533,1.068,2.541,2.846,2.541,4.845v2.655c0,3.244-2.655,5.9-5.9,5.9
		c-3.246,0-5.901-2.654-5.901-5.9v-0.525h2.234c0.043,1.979,1.676,3.589,3.667,3.589c2.018,0,3.668-1.653,3.668-3.668v-1.235
		c0-2.016-1.65-3.668-3.668-3.668c-0.107,0-0.212,0.005-0.317,0.014v-3.499c0.104,0.011,0.21,0.016,0.317,0.016
		c1.875,0,3.41-1.537,3.41-3.41v-1.147c0-1.874-1.534-3.409-3.41-3.409s-3.41,1.533-3.41,3.409v0.003H40.05v-0.762
		c0-3.018,2.468-5.484,5.486-5.484c3.017,0,5.485,2.47,5.485,5.484v2.47C51.021,53.179,50.186,54.746,48.896,55.752"/>
	<path fill="#B32621" d="M181.73,253.282c-1.533-1.069-2.541-2.845-2.541-4.844v-2.657c0-3.244,2.654-5.9,5.9-5.9s5.9,2.655,5.9,5.9
		v0.527h-2.234c-0.043-1.981-1.676-3.59-3.666-3.59c-2.019,0-3.668,1.652-3.668,3.668v1.234c0,2.018,1.649,3.668,3.668,3.668
		c0.105,0,0.211-0.004,0.315-0.013v3.499c-0.104-0.01-0.21-0.016-0.315-0.016c-1.877,0-3.41,1.536-3.41,3.41v1.147
		c0,1.874,1.533,3.41,3.41,3.41c1.875,0,3.41-1.535,3.41-3.41v-0.003h2.074v0.762c0,3.017-2.468,5.484-5.484,5.484
		c-3.019,0-5.486-2.47-5.486-5.484v-2.47C179.604,255.855,180.439,254.288,181.73,253.282"/>
</g>
</svg>
