<?xml version="1.0" encoding="utf-8"?>
<!-- Generator: Adobe Illustrator 16.0.0, SVG Export Plug-In . SVG Version: 6.00 Build 0)  -->
<!DOCTYPE svg PUBLIC "-//W3C//DTD SVG 1.1//EN" "http://www.w3.org/Graphics/SVG/1.1/DTD/svg11.dtd">
<svg version="1.1" id="Layer_1" xmlns="http://www.w3.org/2000/svg" xmlns:xlink="http://www.w3.org/1999/xlink" x="0px" y="0px"
	 width="170.656px" height="254.812px" viewBox="22.381 11.095 170.656 254.812"
	 enable-background="new 22.381 11.095 170.656 254.812" xml:space="preserve">
<g>
	<path fill="#FFFFFF" d="M30.478,11.203H184.94c4.395,0,7.988,3.595,7.988,7.989V257.81c0,4.395-3.595,7.988-7.988,7.988H30.478
		c-4.395,0-7.989-3.594-7.989-7.988V19.192C22.488,14.798,26.083,11.203,30.478,11.203z"/>
	<path fill="none" stroke="#1F1A17" stroke-width="0.216" stroke-miterlimit="10" d="M30.478,11.203H184.94
		c4.395,0,7.988,3.595,7.988,7.989V257.81c0,4.395-3.595,7.988-7.988,7.988H30.478c-4.395,0-7.989-3.594-7.989-7.988V19.192
		C22.488,14.798,26.083,11.203,30.478,11.203z"/>
	<path fill="#B32621" d="M73.058,39.465c0,0-3.945,15.051-14.32,20.604c0,0,12.421,7.891,14.466,19.728
		c0,0,3.945-14.612,14.613-19.873C87.816,59.923,77.148,54.224,73.058,39.465"/>
	<path fill="#B32621" d="M143.826,38.66c0,0-3.945,15.052-14.32,20.604c0,0,12.421,7.891,14.466,19.728
		c0,0,3.945-14.612,14.613-19.872C158.585,59.119,147.917,53.42,143.826,38.66"/>
	<path fill="#B32621" d="M143.826,198.693c0,0-3.945,15.053-14.32,20.604c0,0,12.421,7.892,14.466,19.729
		c0,0,3.945-14.611,14.613-19.873C158.585,219.152,147.917,213.453,143.826,198.693"/>
	<path fill="#B32621" d="M72.254,198.693c0,0-3.945,15.053-14.321,20.604c0,0,12.421,7.892,14.467,19.729
		c0,0,3.945-14.611,14.613-19.873C87.013,219.152,76.345,213.453,72.254,198.693"/>
	<path fill="#B32621" d="M39.719,53.939c0,0-2.293,8.75-8.324,11.977c0,0,7.22,4.587,8.409,11.467c0,0,2.293-8.493,8.494-11.551
		C48.298,65.832,42.097,62.519,39.719,53.939"/>
	<path fill="#B32621" d="M178.844,197.085c0,0-2.294,8.75-8.323,11.977c0,0,7.22,4.587,8.408,11.467c0,0,2.293-8.492,8.494-11.551
		C187.423,208.978,181.222,205.664,178.844,197.085"/>
	<path fill="#B32621" d="M39.429,50.052L39.429,50.052c-1.875,0-3.409-1.536-3.409-3.409v-2.05c0-1.873,1.534-3.409,3.409-3.409
		c1.876,0,3.41,1.534,3.41,3.409v2.05C42.839,48.518,41.305,50.052,39.429,50.052 M39.429,52.886L39.429,52.886
		c-3.017,0-5.485-2.47-5.485-5.485V44.03c0-0.115,0.005-0.229,0.013-0.343h-0.013v-9.61V33.28v-0.763
		c0-3.016,2.469-5.484,5.485-5.484c3.018,0,5.485,2.468,5.485,5.484v1.559h-2.075v-0.995c0-1.875-1.534-3.409-3.41-3.409
		c-1.875,0-3.409,1.536-3.409,3.409v0.199h0.062v6.414c0.928-0.72,2.09-1.149,3.348-1.149c3.018,0,5.485,2.468,5.485,5.484V47.4
		C44.914,50.418,42.446,52.886,39.429,52.886z"/>
	<path fill="#B32621" d="M179.481,226.208L179.481,226.208c1.875,0,3.41,1.537,3.41,3.41v2.049c0,1.873-1.535,3.41-3.41,3.41
		s-3.41-1.535-3.41-3.41v-2.049C176.071,227.744,177.606,226.208,179.481,226.208 M179.481,223.375L179.481,223.375
		c3.018,0,5.485,2.471,5.485,5.485v3.371c0,0.115-0.005,0.229-0.013,0.343h0.013v9.61v0.796v0.764c0,3.016-2.469,5.484-5.485,5.484
		c-3.018,0-5.484-2.469-5.484-5.484v-1.56h2.074v0.995c0,1.875,1.535,3.41,3.41,3.41s3.41-1.537,3.41-3.41v-0.199h-0.063v-6.414
		c-0.928,0.721-2.09,1.15-3.348,1.15c-3.019,0-5.485-2.469-5.485-5.485v-3.371C173.997,225.843,176.465,223.375,179.481,223.375z"/>
	<path fill="#B32621" d="M73.058,119.146c0,0-3.945,15.051-14.32,20.604c0,0,12.421,7.892,14.466,19.729
		c0,0,3.945-14.611,14.613-19.873C87.816,139.604,77.148,133.905,73.058,119.146"/>
	<path fill="#B32621" d="M143.826,119.146c0,0-3.945,15.051-14.32,20.604c0,0,12.421,7.892,14.466,19.729
		c0,0,3.945-14.611,14.613-19.873C158.585,139.604,147.917,133.905,143.826,119.146"/>
</g>
</svg>
