<?xml version="1.0" encoding="utf-8"?>
<!-- Generator: Adobe Illustrator 16.0.0, SVG Export Plug-In . SVG Version: 6.00 Build 0)  -->
<!DOCTYPE svg PUBLIC "-//W3C//DTD SVG 1.1//EN" "http://www.w3.org/Graphics/SVG/1.1/DTD/svg11.dtd">
<svg version="1.1" id="Layer_1" xmlns="http://www.w3.org/2000/svg" xmlns:xlink="http://www.w3.org/1999/xlink" x="0px" y="0px"
	 width="170.656px" height="254.813px" viewBox="50.396 29.309 170.656 254.813"
	 enable-background="new 50.396 29.309 170.656 254.813" xml:space="preserve">
<g>
	<path fill="#FFFFFF" d="M58.493,29.417h154.462c4.395,0,7.988,3.596,7.988,7.989v238.618c0,4.395-3.595,7.989-7.988,7.989H58.493
		c-4.396,0-7.989-3.596-7.989-7.989V37.407C50.503,33.012,54.098,29.417,58.493,29.417z"/>
	<path fill="none" stroke="#1F1A17" stroke-width="0.216" stroke-miterlimit="10" d="M58.493,29.417h154.462
		c4.395,0,7.988,3.596,7.988,7.989v238.618c0,4.395-3.595,7.989-7.988,7.989H58.493c-4.396,0-7.989-3.596-7.989-7.989V37.407
		C50.503,33.012,54.098,29.417,58.493,29.417z"/>
	<path fill="#B32621" d="M69.752,46.285L69.752,46.285c1.875,0,3.41,1.536,3.41,3.41v13.652c0,1.874-1.534,3.408-3.41,3.408
		s-3.41-1.533-3.41-3.408V49.695C66.342,47.819,67.876,46.285,69.752,46.285 M69.752,43.452L69.752,43.452
		c3.017,0,5.484,2.468,5.484,5.485V63.91c0,3.017-2.468,5.485-5.484,5.485c-3.019,0-5.485-2.469-5.485-5.485V48.937
		C64.267,45.919,66.734,43.452,69.752,43.452z"/>
	<rect x="58.728" y="43.442" fill="#B32621" width="2.138" height="25.936"/>
	<path fill="#B32621" d="M202.926,264.067L202.926,264.067c-1.876,0-3.409-1.535-3.409-3.409v-13.652c0-1.874,1.533-3.41,3.409-3.41
		s3.409,1.535,3.409,3.41v13.652C206.335,262.533,204.802,264.067,202.926,264.067 M202.926,266.901L202.926,266.901
		c-3.017,0-5.485-2.468-5.485-5.485v-14.974c0-3.018,2.47-5.485,5.485-5.485s5.485,2.468,5.485,5.485v14.974
		C208.411,264.433,205.942,266.901,202.926,266.901z"/>
	<rect x="211.813" y="240.975" fill="#B32621" width="2.139" height="25.936"/>
	<path fill="#B32621" d="M101.073,57.679c0,0-3.945,15.052-14.321,20.604c0,0,12.421,7.891,14.467,19.728
		c0,0,3.945-14.611,14.613-19.872C115.832,78.137,105.164,72.438,101.073,57.679"/>
	<path fill="#B32621" d="M134.849,84.217c0,0-3.945,15.052-14.321,20.604c0,0,12.422,7.891,14.468,19.728
		c0,0,3.944-14.611,14.612-19.873C149.608,104.676,138.94,98.977,134.849,84.217"/>
	<path fill="#B32621" d="M171.842,56.875c0,0-3.945,15.052-14.321,20.604c0,0,12.422,7.891,14.467,19.727
		c0,0,3.945-14.612,14.613-19.872C186.601,77.333,175.933,71.634,171.842,56.875"/>
	<path fill="#B32621" d="M171.842,110.755c0,0-3.945,15.053-14.321,20.604c0,0,12.422,7.891,14.467,19.728
		c0,0,3.945-14.611,14.613-19.873C186.601,131.214,175.933,125.515,171.842,110.755"/>
	<path fill="#B32621" d="M100.269,110.755c0,0-3.944,15.053-14.32,20.604c0,0,12.421,7.891,14.467,19.728
		c0,0,3.944-14.611,14.612-19.873C115.027,131.214,104.36,125.515,100.269,110.755"/>
	<path fill="#B32621" d="M101.073,163.832c0,0-3.945,15.052-14.321,20.604c0,0,12.421,7.891,14.467,19.728
		c0,0,3.945-14.612,14.613-19.873C115.832,184.291,105.164,178.591,101.073,163.832"/>
	<path fill="#B32621" d="M134.849,190.37c0,0-3.945,15.052-14.321,20.604c0,0,12.422,7.891,14.468,19.727
		c0,0,3.944-14.612,14.612-19.873C149.608,210.829,138.94,205.129,134.849,190.37"/>
	<path fill="#B32621" d="M171.842,163.027c0,0-3.945,15.052-14.321,20.604c0,0,12.422,7.892,14.467,19.729
		c0,0,3.945-14.612,14.613-19.873C186.601,183.486,175.933,177.787,171.842,163.027"/>
	<path fill="#B32621" d="M171.842,216.908c0,0-3.945,15.052-14.321,20.604c0,0,12.422,7.891,14.467,19.728
		c0,0,3.945-14.612,14.613-19.873C186.601,237.367,175.933,231.667,171.842,216.908"/>
	<path fill="#B32621" d="M100.269,216.908c0,0-3.944,15.052-14.32,20.604c0,0,12.421,7.891,14.467,19.728
		c0,0,3.944-14.612,14.612-19.873C115.027,237.367,104.36,231.667,100.269,216.908"/>
	<path fill="#B32621" d="M67.734,72.154c0,0-2.293,8.75-8.323,11.977c0,0,7.22,4.587,8.408,11.469c0,0,2.293-8.494,8.495-11.553
		C76.313,84.046,70.112,80.733,67.734,72.154"/>
	<path fill="#B32621" d="M206.858,215.3c0,0-2.293,8.75-8.323,11.977c0,0,7.221,4.587,8.408,11.467c0,0,2.293-8.494,8.494-11.551
		C215.438,227.192,209.236,223.879,206.858,215.3"/>
</g>
</svg>
