<?xml version="1.0" encoding="utf-8"?>
<!-- Generator: Adobe Illustrator 16.0.0, SVG Export Plug-In . SVG Version: 6.00 Build 0)  -->
<!DOCTYPE svg PUBLIC "-//W3C//DTD SVG 1.1//EN" "http://www.w3.org/Graphics/SVG/1.1/DTD/svg11.dtd">
<svg version="1.1" id="Layer_1" xmlns="http://www.w3.org/2000/svg" xmlns:xlink="http://www.w3.org/1999/xlink" x="0px" y="0px"
	 width="170.658px" height="254.814px" viewBox="15.16 7.566 170.658 254.814" enable-background="new 15.16 7.566 170.658 254.814"
	 xml:space="preserve">
<g>
	<path fill="#FFFFFF" d="M23.257,7.674h154.462c4.396,0,7.99,3.597,7.99,7.989v238.618c0,4.395-3.597,7.99-7.99,7.99H23.257
		c-4.395,0-7.989-3.597-7.989-7.99V15.663C15.268,11.27,18.863,7.674,23.257,7.674z"/>
	<path fill="none" stroke="#1F1A17" stroke-width="0.216" stroke-miterlimit="10" d="M23.257,7.674h154.462
		c4.396,0,7.99,3.597,7.99,7.989v238.618c0,4.395-3.597,7.99-7.99,7.99H23.257c-4.395,0-7.989-3.597-7.989-7.99V15.663
		C15.268,11.27,18.863,7.674,23.257,7.674z"/>
	<path fill="#B32621" d="M39.638,54.962c-1.125-1.25-2.375-2-3.25-2c-0.85,0-2.928-0.206-4.684,3.388
		c-1.749-3.525-3.808-3.324-4.652-3.324c-0.875,0-2.125,0.75-3.25,2s-0.938,3.438-0.553,4.575c0.385,1.139,8.42,12.861,8.42,12.861
		s8.137-11.786,8.521-12.925C40.575,58.399,40.763,56.212,39.638,54.962"/>
	<path fill="#B32621" d="M163.731,216.018c1.125,1.25,2.375,2,3.25,2c0.851,0,2.929,0.205,4.685-3.388
		c1.749,3.525,3.807,3.324,4.651,3.324c0.875,0,2.125-0.75,3.25-2s0.938-3.438,0.554-4.576c-0.386-1.138-8.42-12.86-8.42-12.86
		s-8.138,11.786-8.521,12.924C162.793,212.58,162.606,214.768,163.731,216.018"/>
	<path fill="#B32621" d="M81.281,40.69c-2.138-2.375-4.514-3.8-6.176-3.8c-1.614,0-5.563-0.393-8.9,6.435
		c-3.323-6.697-7.233-6.316-8.839-6.316c-1.663,0-4.038,1.426-6.177,3.802c-2.137,2.375-1.78,6.53-1.05,8.693
		c0.731,2.162,16,24.439,16,24.439S81.6,51.548,82.331,49.385C83.062,47.223,83.418,43.065,81.281,40.69"/>
	<path fill="#B32621" d="M151.854,40.69c-2.139-2.375-4.514-3.8-6.176-3.8c-1.615,0-5.563-0.393-8.9,6.435
		c-3.323-6.697-7.233-6.316-8.839-6.316c-1.663,0-4.038,1.426-6.176,3.802c-2.138,2.375-1.782,6.53-1.05,8.693
		c0.73,2.162,15.999,24.439,15.999,24.439s15.461-22.396,16.191-24.56C153.635,47.223,153.991,43.065,151.854,40.69"/>
	<path fill="#B32621" d="M120.758,230.591c2.138,2.376,4.513,3.802,6.176,3.802c1.615,0,5.563,0.391,8.901-6.437
		c3.323,6.698,7.231,6.317,8.839,6.317c1.663,0,4.038-1.426,6.176-3.801s1.781-6.531,1.05-8.695
		c-0.729-2.162-15.999-24.438-15.999-24.438s-15.461,22.396-16.191,24.559C118.977,224.06,118.62,228.216,120.758,230.591"/>
	<path fill="#B32621" d="M50.185,230.591c2.139,2.376,4.515,3.802,6.176,3.802c1.615,0,5.563,0.391,8.901-6.437
		c3.323,6.698,7.233,6.317,8.839,6.317c1.663,0,4.038-1.426,6.176-3.801s1.781-6.531,1.051-8.695c-0.731-2.162-16-24.438-16-24.438
		s-15.461,22.396-16.192,24.559C48.404,224.06,48.047,228.216,50.185,230.591"/>
	<path fill="#B32621" d="M84.572,120.563c2.139-2.376,4.514-3.801,6.177-3.801c1.614,0,5.563-0.392,8.9,6.436
		c3.323-6.698,7.233-6.316,8.839-6.316c1.663,0,4.038,1.426,6.177,3.801c2.137,2.375,1.78,6.53,1.05,8.694
		c-0.731,2.162-16,24.438-16,24.438s-15.461-22.396-16.192-24.559C82.791,127.094,82.434,122.938,84.572,120.563"/>
	<path fill="#B32621" d="M31.997,48.533L31.997,48.533c-3.018,0-5.485-2.47-5.485-5.485v-0.009h2.16
		c0.345,1.519,1.708,2.66,3.326,2.66c1.875,0,3.41-1.534,3.41-3.41v-4.714c0-1.874-1.534-3.409-3.41-3.409
		c-1.663,0-3.056,1.207-3.352,2.786h-2.133c0.001-0.095,0.004-0.188,0.01-0.283h-0.011V22.91l8.828-0.052h2.137h0.005v2.611h-0.005
		v3.063H35.34v-3.063h-6.691v7.206c0.929-0.72,2.09-1.148,3.349-1.148c3.017,0,5.485,2.469,5.485,5.485v6.034
		C37.482,46.064,35.014,48.533,31.997,48.533"/>
	<path fill="#B32621" d="M172.72,220.876L172.72,220.876c3.017,0,5.485,2.471,5.485,5.485v0.008h-2.16
		c-0.344-1.517-1.707-2.659-3.326-2.659c-1.875,0-3.408,1.534-3.408,3.409v4.714c0,1.875,1.533,3.41,3.409,3.41
		c1.663,0,3.056-1.208,3.351-2.787h2.135c-0.001,0.095-0.005,0.189-0.012,0.283h0.013v13.759l-8.828,0.053h-2.137h-0.007v-2.612
		h0.007v-3.063h2.137v3.063h6.69v-7.206c-0.928,0.72-2.09,1.149-3.349,1.149c-3.017,0-5.485-2.469-5.485-5.484v-6.035
		C167.235,223.344,169.704,220.876,172.72,220.876"/>
</g>
</svg>
