<?xml version="1.0" encoding="utf-8"?>
<!-- Generator: Adobe Illustrator 16.0.0, SVG Export Plug-In . SVG Version: 6.00 Build 0)  -->
<!DOCTYPE svg PUBLIC "-//W3C//DTD SVG 1.1//EN" "http://www.w3.org/Graphics/SVG/1.1/DTD/svg11.dtd">
<svg version="1.1" id="Layer_1" xmlns="http://www.w3.org/2000/svg" xmlns:xlink="http://www.w3.org/1999/xlink" x="0px" y="0px"
	 width="170.658px" height="254.813px" viewBox="24.672 32.858 170.658 254.813"
	 enable-background="new 24.672 32.858 170.658 254.813" xml:space="preserve">
<g>
	<path fill="#FFFFFF" d="M32.769,32.966h154.462c4.396,0,7.99,3.596,7.99,7.989v238.618c0,4.395-3.595,7.989-7.99,7.989H32.769
		c-4.395,0-7.989-3.596-7.989-7.989V40.956C24.779,36.561,28.374,32.966,32.769,32.966z"/>
	<path fill="none" stroke="#1F1A17" stroke-width="0.216" stroke-miterlimit="10" d="M32.769,32.966h154.462
		c4.396,0,7.99,3.596,7.99,7.989v238.618c0,4.395-3.595,7.989-7.99,7.989H32.769c-4.395,0-7.989-3.596-7.989-7.989V40.956
		C24.779,36.561,28.374,32.966,32.769,32.966z"/>
	<path fill="#B32621" d="M48.563,78.901c-1.125-1.25-2.375-2-3.25-2c-0.85,0-2.928-0.206-4.685,3.387
		c-1.749-3.524-3.808-3.324-4.651-3.324c-0.875,0-2.125,0.75-3.25,2s-0.938,3.438-0.553,4.576s8.42,12.861,8.42,12.861
		s8.137-11.786,8.522-12.924C49.501,82.338,49.689,80.151,48.563,78.901"/>
	<path fill="#B32621" d="M40.545,54.671l-2.715,8.889h5.43L40.545,54.671z M31.775,70.924h1.393
		c2.095-6.856,4.327-14.176,6.386-20.919l1.977-0.003c2.105,6.888,4.245,13.896,6.358,20.813l1.446,0.012v2.338
		c-2.32,0-4.651-0.041-7.021-0.041v-2.309h3.161l-1.511-4.946h-6.84l-1.545,5.056h2.782v2.31h-6.587V70.924z"/>
	<path fill="#B32621" d="M173.35,241.06c1.125,1.25,2.375,2,3.25,2c0.852,0,2.928,0.206,4.686-3.388
		c1.749,3.525,3.807,3.324,4.65,3.324c0.875,0,2.125-0.75,3.25-2s0.938-3.438,0.553-4.576c-0.385-1.138-8.42-12.861-8.42-12.861
		s-8.137,11.785-8.521,12.925C172.413,237.623,172.225,239.81,173.35,241.06"/>
	<path fill="#B32621" d="M181.369,265.29l2.715-8.888h-5.431L181.369,265.29z M190.138,249.037h-1.392
		c-2.096,6.858-4.327,14.176-6.387,20.919l-1.977,0.003c-2.105-6.886-4.245-13.896-6.358-20.813l-1.445-0.012v-2.338
		c2.319,0,4.65,0.041,7.02,0.041v2.31h-3.161l1.512,4.946h6.84l1.544-5.057h-2.783v-2.308h6.587L190.138,249.037L190.138,249.037z"
		/>
	<path fill="#B32621" d="M124.302,146.268c-2.032-2.259-4.29-3.613-5.87-3.613c-1.535,0-5.289-0.371-8.461,6.118
		c-3.159-6.367-6.876-6.005-8.402-6.005c-1.581,0-3.838,1.354-5.87,3.612c-2.032,2.258-1.693,6.208-0.999,8.266
		c0.694,2.056,15.209,23.23,15.209,23.23s14.696-21.289,15.392-23.345C125.995,152.477,126.334,148.525,124.302,146.268"/>
</g>
</svg>
