<?xml version="1.0" encoding="utf-8"?>
<!-- Generator: Adobe Illustrator 16.0.0, SVG Export Plug-In . SVG Version: 6.00 Build 0)  -->
<!DOCTYPE svg PUBLIC "-//W3C//DTD SVG 1.1//EN" "http://www.w3.org/Graphics/SVG/1.1/DTD/svg11.dtd">
<svg version="1.1" id="Layer_1" xmlns="http://www.w3.org/2000/svg" xmlns:xlink="http://www.w3.org/1999/xlink" x="0px" y="0px"
	 width="170.658px" height="254.812px" viewBox="14.823 11.571 170.658 254.812"
	 enable-background="new 14.823 11.571 170.658 254.812" xml:space="preserve">
<g>
	<path fill="#FFFFFF" d="M22.92,11.679h154.463c4.395,0,7.989,3.596,7.989,7.989v238.618c0,4.395-3.596,7.988-7.989,7.988H22.92
		c-4.395,0-7.989-3.595-7.989-7.988V19.668C14.931,15.274,18.526,11.679,22.92,11.679z"/>
	<path fill="none" stroke="#1F1A17" stroke-width="0.216" stroke-miterlimit="10" d="M22.92,11.679h154.463
		c4.395,0,7.989,3.596,7.989,7.989v238.618c0,4.395-3.596,7.988-7.989,7.988H22.92c-4.395,0-7.989-3.595-7.989-7.988V19.668
		C14.931,15.274,18.526,11.679,22.92,11.679z"/>
	<path fill="#B32621" d="M39.301,58.967c-1.125-1.25-2.375-2-3.25-2c-0.85,0-2.928-0.206-4.684,3.387
		c-1.749-3.524-3.808-3.323-4.652-3.323c-0.875,0-2.125,0.75-3.25,2s-0.938,3.438-0.553,4.574c0.385,1.14,8.42,12.862,8.42,12.862
		s8.137-11.786,8.521-12.925C40.238,62.404,40.426,60.217,39.301,58.967"/>
	<path fill="#B32621" d="M163.394,220.022c1.125,1.25,2.375,2,3.25,2c0.852,0,2.928,0.205,4.686-3.387
		c1.748,3.524,3.807,3.324,4.65,3.324c0.875,0,2.125-0.75,3.25-2s0.938-3.438,0.554-4.576c-0.386-1.138-8.421-12.861-8.421-12.861
		s-8.137,11.786-8.521,12.924C162.456,216.585,162.269,218.772,163.394,220.022"/>
	<path fill="#B32621" d="M80.944,44.695c-2.138-2.376-4.514-3.8-6.176-3.8c-1.615,0-5.563-0.392-8.9,6.436
		c-3.323-6.697-7.233-6.316-8.84-6.316c-1.662,0-4.037,1.425-6.176,3.801c-2.137,2.375-1.781,6.531-1.05,8.694
		c0.731,2.162,16,24.439,16,24.439S81.263,55.552,81.994,53.39C82.725,51.228,83.081,47.07,80.944,44.695"/>
	<path fill="#B32621" d="M151.517,44.695c-2.138-2.376-4.513-3.8-6.175-3.8c-1.615,0-5.564-0.392-8.901,6.436
		c-3.322-6.697-7.232-6.316-8.839-6.316c-1.663,0-4.038,1.425-6.176,3.801c-2.138,2.375-1.782,6.531-1.05,8.694
		c0.73,2.162,16,24.439,16,24.439s15.461-22.396,16.19-24.56C153.298,51.228,153.654,47.07,151.517,44.695"/>
	<path fill="#B32621" d="M120.421,234.596c2.138,2.376,4.513,3.801,6.176,3.801c1.615,0,5.563,0.392,8.9-6.436
		c3.322,6.698,7.232,6.316,8.839,6.316c1.663,0,4.038-1.426,6.176-3.801s1.781-6.531,1.051-8.694c-0.73-2.162-16-24.438-16-24.438
		s-15.461,22.396-16.191,24.558C118.64,228.064,118.283,232.221,120.421,234.596"/>
	<path fill="#B32621" d="M49.848,234.596c2.138,2.376,4.514,3.801,6.176,3.801c1.615,0,5.563,0.392,8.901-6.436
		c3.323,6.698,7.233,6.316,8.839,6.316c1.663,0,4.038-1.426,6.176-3.801s1.781-6.531,1.051-8.694c-0.731-2.162-16-24.438-16-24.438
		s-15.462,22.396-16.192,24.558C48.067,228.064,47.71,232.221,49.848,234.596"/>
	<path fill="#B32621" d="M121.426,124.567c2.138-2.375,4.513-3.8,6.175-3.8c1.615,0,5.563-0.391,8.9,6.437
		c3.324-6.698,7.232-6.316,8.84-6.316c1.662,0,4.037,1.425,6.176,3.8c2.137,2.375,1.781,6.531,1.05,8.695
		c-0.73,2.162-15.999,24.438-15.999,24.438s-15.461-22.396-16.191-24.558C119.645,131.1,119.289,126.943,121.426,124.567"/>
	<path fill="#B32621" d="M49.848,124.567c2.138-2.375,4.514-3.8,6.176-3.8c1.615,0,5.563-0.391,8.901,6.437
		c3.323-6.698,7.233-6.316,8.839-6.316c1.663,0,4.038,1.425,6.176,3.8s1.781,6.531,1.051,8.695c-0.731,2.162-16,24.438-16,24.438
		s-15.462-22.396-16.192-24.558C48.067,131.1,47.71,126.943,49.848,124.567"/>
	<path fill="#B32621" d="M85.238,84.358c2.139-2.375,4.514-3.8,6.176-3.8c1.614,0,5.563-0.392,8.9,6.436
		c3.323-6.697,7.233-6.316,8.839-6.316c1.663,0,4.038,1.426,6.177,3.801c2.137,2.375,1.78,6.531,1.05,8.694
		c-0.731,2.163-15.999,24.438-15.999,24.438S84.918,95.216,84.188,93.053C83.457,90.891,83.1,86.733,85.238,84.358"/>
	<polygon fill="#B32621" points="35.385,27.43 36.042,27.43 38.327,27.43 29.613,52.627 26.672,52.627 34.481,30.042 28.005,30.042 
		28.005,33.105 25.868,33.105 25.868,30.042 25.863,30.042 25.863,27.43 25.868,27.43 28.005,27.43 	"/>
	<polygon fill="#B32621" points="165.516,249.653 164.859,249.653 162.574,249.653 171.287,224.456 174.229,224.456 166.42,247.04 
		172.896,247.04 172.896,243.978 175.033,243.978 175.033,247.04 175.039,247.04 175.039,249.653 175.033,249.653 172.896,249.653 	
		"/>
</g>
</svg>
