<?xml version="1.0" encoding="utf-8"?>
<!-- Generator: Adobe Illustrator 16.0.0, SVG Export Plug-In . SVG Version: 6.00 Build 0)  -->
<!DOCTYPE svg PUBLIC "-//W3C//DTD SVG 1.1//EN" "http://www.w3.org/Graphics/SVG/1.1/DTD/svg11.dtd">
<svg version="1.1" id="Layer_1" xmlns="http://www.w3.org/2000/svg" xmlns:xlink="http://www.w3.org/1999/xlink" x="0px" y="0px"
	 width="170.658px" height="254.813px" viewBox="8.839 9.15 170.658 254.813" enable-background="new 8.839 9.15 170.658 254.813"
	 xml:space="preserve">
<g>
	<path fill="#FFFFFF" d="M16.936,9.258h154.463c4.395,0,7.989,3.596,7.989,7.989v238.618c0,4.395-3.596,7.989-7.989,7.989H16.936
		c-4.396,0-7.989-3.596-7.989-7.989V17.247C8.946,12.853,12.541,9.258,16.936,9.258z"/>
	<path fill="none" stroke="#1F1A17" stroke-width="0.216" stroke-miterlimit="10" d="M16.936,9.258h154.463
		c4.395,0,7.989,3.596,7.989,7.989v238.618c0,4.395-3.596,7.989-7.989,7.989H16.936c-4.396,0-7.989-3.596-7.989-7.989V17.247
		C8.946,12.853,12.541,9.258,16.936,9.258z"/>
	<path fill="#B32621" d="M33.316,56.546c-1.125-1.251-2.375-2-3.25-2c-0.852,0-2.928-0.206-4.686,3.388
		c-1.749-3.525-3.807-3.324-4.65-3.324c-0.875,0-2.125,0.75-3.25,2s-0.938,3.438-0.553,4.575c0.385,1.139,8.42,12.861,8.42,12.861
		s8.137-11.787,8.521-12.925S34.441,57.796,33.316,56.546"/>
	<path fill="#B32621" d="M157.409,217.602c1.125,1.25,2.375,1.999,3.25,1.999c0.85,0,2.928,0.206,4.684-3.387
		c1.749,3.524,3.808,3.324,4.652,3.324c0.875,0,2.125-0.75,3.25-2s0.938-3.438,0.553-4.576c-0.385-1.138-8.42-12.86-8.42-12.86
		s-8.137,11.786-8.521,12.924C156.472,214.164,156.284,216.352,157.409,217.602"/>
	<path fill="#B32621" d="M74.959,42.274c-2.138-2.376-4.514-3.801-6.176-3.801c-1.615,0-5.563-0.392-8.9,6.436
		c-3.322-6.698-7.232-6.316-8.839-6.316c-1.663,0-4.038,1.426-6.176,3.802c-2.138,2.374-1.781,6.53-1.051,8.693
		c0.73,2.162,15.999,24.438,15.999,24.438S75.278,53.131,76.01,50.969C76.74,48.806,77.097,44.649,74.959,42.274"/>
	<path fill="#B32621" d="M144.527,202.727c-2.138-2.376-4.514-3.801-6.176-3.801c-1.615,0-5.563-0.392-8.9,6.436
		c-3.323-6.698-7.233-6.316-8.84-6.316c-1.662,0-4.037,1.426-6.176,3.802c-2.138,2.375-1.781,6.53-1.051,8.693
		c0.731,2.162,15.999,24.439,15.999,24.439s15.463-22.396,16.192-24.56C146.309,209.259,146.665,205.102,144.527,202.727"/>
	<path fill="#B32621" d="M28.698,37.392c1.532,1.067,2.54,2.845,2.54,4.844v2.656c0,3.243-2.654,5.899-5.9,5.899
		s-5.899-2.653-5.899-5.899v-0.526h2.232c0.043,1.98,1.677,3.589,3.667,3.589c2.019,0,3.668-1.653,3.668-3.668v-1.235
		c0-2.016-1.649-3.668-3.668-3.668c-0.105,0-0.212,0.006-0.315,0.015v-3.499c0.104,0.01,0.21,0.015,0.315,0.015
		c1.876,0,3.41-1.537,3.41-3.41v-1.147c0-1.873-1.534-3.409-3.41-3.409s-3.409,1.534-3.409,3.409v0.004h-2.075v-0.762
		c0-3.019,2.468-5.485,5.484-5.485c3.018,0,5.485,2.469,5.485,5.485v2.47C30.823,34.818,29.988,36.385,28.698,37.392"/>
	<path fill="#B32621" d="M161.51,236.378c-1.531-1.067-2.541-2.845-2.541-4.844v-2.656c0-3.244,2.655-5.899,5.901-5.899
		c3.245,0,5.9,2.653,5.9,5.899v0.526h-2.234c-0.043-1.98-1.676-3.588-3.666-3.588c-2.019,0-3.669,1.651-3.669,3.668v1.233
		c0,2.017,1.65,3.668,3.669,3.668c0.106,0,0.212-0.005,0.316-0.014v3.5c-0.104-0.01-0.21-0.015-0.316-0.015
		c-1.876,0-3.41,1.536-3.41,3.409v1.147c0,1.873,1.534,3.409,3.41,3.409c1.875,0,3.409-1.534,3.409-3.409v-0.003h2.076v0.761
		c0,3.019-2.469,5.485-5.485,5.485c-3.018,0-5.485-2.469-5.485-5.485v-2.47C159.385,238.951,160.219,237.384,161.51,236.378"/>
	<path fill="#B32621" d="M109.429,121.53c-2.14-2.376-4.515-3.801-6.177-3.801c-1.614,0-5.563-0.392-8.9,6.436
		c-3.323-6.698-7.232-6.315-8.839-6.315c-1.662,0-4.038,1.425-6.177,3.801c-2.137,2.375-1.78,6.531-1.05,8.693
		c0.731,2.162,15.999,24.438,15.999,24.438s15.461-22.396,16.192-24.558C111.209,128.062,111.566,123.905,109.429,121.53"/>
</g>
</svg>
