<?xml version="1.0" encoding="utf-8"?>
<!-- Generator: Adobe Illustrator 16.0.0, SVG Export Plug-In . SVG Version: 6.00 Build 0)  -->
<!DOCTYPE svg PUBLIC "-//W3C//DTD SVG 1.1//EN" "http://www.w3.org/Graphics/SVG/1.1/DTD/svg11.dtd">
<svg version="1.1" id="Layer_1" xmlns="http://www.w3.org/2000/svg" xmlns:xlink="http://www.w3.org/1999/xlink" x="0px" y="0px"
	 width="170.657px" height="254.815px" viewBox="13.967 9.663 170.657 254.815"
	 enable-background="new 13.967 9.663 170.657 254.815" xml:space="preserve">
<g>
	<path fill="#FFFFFF" d="M22.064,9.771h154.463c4.395,0,7.989,3.596,7.989,7.99v238.619c0,4.394-3.595,7.99-7.989,7.99H22.064
		c-4.394,0-7.989-3.597-7.989-7.99V17.762C14.075,13.367,17.67,9.771,22.064,9.771z"/>
	<path fill="none" stroke="#1F1A17" stroke-width="0.216" stroke-miterlimit="10" d="M22.064,9.771h154.463
		c4.395,0,7.989,3.596,7.989,7.99v238.619c0,4.394-3.595,7.99-7.989,7.99H22.064c-4.394,0-7.989-3.597-7.989-7.99V17.762
		C14.075,13.367,17.67,9.771,22.064,9.771z"/>
	<path fill="#B32621" d="M29.682,28.504L29.682,28.504c1.875,0,3.41,1.537,3.41,3.41v2.049c0,1.874-1.534,3.41-3.41,3.41
		s-3.41-1.534-3.41-3.41v-2.049C26.271,30.039,27.806,28.504,29.682,28.504 M29.682,25.671L29.682,25.671
		c3.017,0,5.485,2.469,5.485,5.485v3.37c0,0.116-0.004,0.229-0.012,0.344h0.012v9.61v0.796v0.762c0,3.015-2.468,5.485-5.485,5.485
		c-3.018,0-5.485-2.468-5.485-5.485V44.48h2.075v0.995c0,1.875,1.534,3.409,3.41,3.409c1.875,0,3.41-1.536,3.41-3.409v-0.199H33.03
		v-6.414c-0.928,0.719-2.09,1.149-3.348,1.149c-3.018,0-5.485-2.468-5.485-5.485v-3.37C24.196,28.139,26.664,25.671,29.682,25.671z"
		/>
	<path fill="#B32621" d="M170.405,244.698L170.405,244.698c-1.877,0-3.409-1.537-3.409-3.41v-2.049c0-1.873,1.532-3.41,3.409-3.41
		c1.875,0,3.409,1.535,3.409,3.41v2.049C173.814,243.163,172.28,244.698,170.405,244.698 M170.405,247.532L170.405,247.532
		c-3.018,0-5.485-2.471-5.485-5.486v-3.371c0-0.114,0.004-0.229,0.012-0.342h-0.012v-9.61v-0.796v-0.762
		c0-3.017,2.469-5.485,5.485-5.485s5.484,2.468,5.484,5.485v1.559h-2.075v-0.995c0-1.875-1.534-3.41-3.409-3.41
		c-1.877,0-3.409,1.537-3.409,3.41v0.198h0.061v6.416c0.928-0.721,2.091-1.15,3.35-1.15c3.018,0,5.484,2.469,5.484,5.484v3.371
		C175.89,245.063,173.421,247.532,170.405,247.532z"/>
	<path fill="#B32621" d="M38.445,57.06c-1.125-1.25-2.375-2-3.25-2c-0.85,0-2.928-0.206-4.684,3.387
		c-1.749-3.525-3.807-3.324-4.652-3.324c-0.875,0-2.125,0.75-3.25,2s-0.938,3.438-0.553,4.576c0.385,1.138,8.42,12.862,8.42,12.862
		s8.137-11.786,8.521-12.924C39.383,60.497,39.57,58.31,38.445,57.06"/>
	<path fill="#B32621" d="M162.539,218.116c1.125,1.25,2.375,2,3.25,2c0.85,0,2.928,0.205,4.684-3.388
		c1.75,3.524,3.807,3.323,4.652,3.323c0.875,0,2.125-0.75,3.25-2s0.938-3.438,0.553-4.575s-8.42-12.862-8.42-12.862
		s-8.137,11.786-8.521,12.924C161.602,214.676,161.414,216.866,162.539,218.116"/>
	<path fill="#B32621" d="M80.088,42.788c-2.138-2.375-4.514-3.8-6.176-3.8c-1.615,0-5.563-0.391-8.901,6.435
		c-3.323-6.697-7.233-6.316-8.839-6.316c-1.663,0-4.038,1.425-6.176,3.801c-2.137,2.375-1.781,6.531-1.05,8.694s16,24.439,16,24.439
		s15.461-22.396,16.192-24.559C81.869,49.32,82.226,45.164,80.088,42.788"/>
	<path fill="#B32621" d="M150.662,42.788c-2.139-2.375-4.515-3.8-6.177-3.8c-1.614,0-5.563-0.391-8.899,6.435
		c-3.323-6.697-7.233-6.316-8.84-6.316c-1.662,0-4.037,1.425-6.176,3.801c-2.138,2.375-1.781,6.531-1.05,8.694
		c0.729,2.163,15.998,24.439,15.998,24.439s15.462-22.396,16.192-24.559C152.442,49.32,152.798,45.164,150.662,42.788"/>
	<path fill="#B32621" d="M79.083,97.57c-2.138-2.375-4.513-3.8-6.175-3.8c-1.615,0-5.564-0.391-8.901,6.435
		c-3.323-6.698-7.233-6.317-8.839-6.317c-1.662,0-4.038,1.426-6.176,3.801c-2.137,2.375-1.781,6.531-1.05,8.694s16,24.439,16,24.439
		s15.461-22.396,16.192-24.558C80.864,104.102,81.221,99.945,79.083,97.57"/>
	<path fill="#B32621" d="M150.662,97.57c-2.139-2.375-4.515-3.8-6.177-3.8c-1.614,0-5.563-0.391-8.899,6.435
		c-3.323-6.698-7.233-6.317-8.84-6.317c-1.662,0-4.037,1.426-6.176,3.801c-2.138,2.375-1.781,6.531-1.05,8.694
		c0.729,2.163,15.998,24.439,15.998,24.439s15.462-22.396,16.192-24.558C152.442,104.102,152.798,99.945,150.662,97.57"/>
	<path fill="#B32621" d="M113.806,122.029c-2.139-2.376-4.514-3.801-6.176-3.801c-1.615,0-5.564-0.391-8.9,6.435
		c-3.324-6.698-7.234-6.316-8.84-6.316c-1.662,0-4.038,1.425-6.176,3.801c-2.137,2.375-1.781,6.531-1.05,8.694
		c0.731,2.163,16,24.44,16,24.44s15.461-22.397,16.192-24.559C115.585,128.561,115.942,124.404,113.806,122.029"/>
	<path fill="#B32621" d="M119.565,232.689c2.14,2.375,4.515,3.8,6.177,3.8c1.614,0,5.563,0.391,8.899-6.435
		c3.323,6.698,7.233,6.315,8.84,6.315c1.662,0,4.037-1.425,6.177-3.8c2.137-2.375,1.78-6.532,1.049-8.694
		c-0.73-2.164-15.998-24.439-15.998-24.439s-15.463,22.396-16.193,24.559S117.428,230.313,119.565,232.689"/>
	<path fill="#B32621" d="M48.992,232.689c2.138,2.375,4.514,3.8,6.176,3.8c1.615,0,5.563,0.391,8.901-6.435
		c3.323,6.698,7.233,6.315,8.839,6.315c1.663,0,4.038-1.425,6.176-3.8c2.137-2.375,1.781-6.532,1.05-8.694
		c-0.731-2.164-16-24.439-16-24.439s-15.461,22.396-16.192,24.559S46.855,230.313,48.992,232.689"/>
	<path fill="#B32621" d="M120.571,177.907c2.138,2.377,4.513,3.801,6.175,3.801c1.615,0,5.563,0.392,8.901-6.436
		c3.322,6.697,7.231,6.316,8.838,6.316c1.663,0,4.039-1.424,6.177-3.801c2.139-2.375,1.78-6.531,1.051-8.693
		c-0.731-2.163-16-24.439-16-24.439s-15.461,22.396-16.191,24.558S118.433,175.532,120.571,177.907"/>
	<path fill="#B32621" d="M48.992,177.907c2.138,2.377,4.514,3.801,6.176,3.801c1.615,0,5.563,0.392,8.901-6.436
		c3.323,6.697,7.233,6.316,8.839,6.316c1.663,0,4.038-1.424,6.176-3.801c2.137-2.375,1.781-6.531,1.05-8.693
		c-0.731-2.163-16-24.439-16-24.439s-15.461,22.396-16.192,24.558S46.855,175.532,48.992,177.907"/>
</g>
</svg>
