<?xml version="1.0" encoding="utf-8"?>
<!-- Generator: Adobe Illustrator 16.0.0, SVG Export Plug-In . SVG Version: 6.00 Build 0)  -->
<!DOCTYPE svg PUBLIC "-//W3C//DTD SVG 1.1//EN" "http://www.w3.org/Graphics/SVG/1.1/DTD/svg11.dtd">
<svg version="1.1" id="Layer_1" xmlns="http://www.w3.org/2000/svg" xmlns:xlink="http://www.w3.org/1999/xlink" x="0px" y="0px"
	 width="170.658px" height="254.813px" viewBox="26.728 8.309 170.658 254.813"
	 enable-background="new 26.728 8.309 170.658 254.813" xml:space="preserve">
<g>
	<path fill="#FFFFFF" d="M34.825,8.417h154.463c4.396,0,7.989,3.596,7.989,7.989v238.617c0,4.396-3.595,7.99-7.989,7.99H34.825
		c-4.395,0-7.989-3.596-7.989-7.99V16.406C26.836,12.013,30.431,8.417,34.825,8.417z"/>
	<path fill="none" stroke="#1F1A17" stroke-width="0.216" stroke-miterlimit="10" d="M34.825,8.417h154.463
		c4.396,0,7.989,3.596,7.989,7.989v238.617c0,4.396-3.595,7.99-7.989,7.99H34.825c-4.395,0-7.989-3.596-7.989-7.99V16.406
		C26.836,12.013,30.431,8.417,34.825,8.417z"/>
	<path fill="#B32621" d="M51.206,55.705c-1.125-1.25-2.375-2-3.25-2c-0.851,0-2.928-0.206-4.685,3.387
		c-1.749-3.525-3.808-3.324-4.651-3.324c-0.875,0-2.125,0.75-3.25,2s-0.938,3.438-0.553,4.576c0.385,1.138,8.42,12.861,8.42,12.861
		s8.137-11.786,8.521-12.925C52.144,59.143,52.331,56.955,51.206,55.705"/>
	<path fill="#B32621" d="M175.299,216.761c1.125,1.25,2.375,2,3.25,2c0.851,0,2.929,0.206,4.685-3.387
		c1.749,3.524,3.808,3.324,4.651,3.324c0.875,0,2.125-0.75,3.25-2s0.938-3.438,0.554-4.576s-8.42-12.861-8.42-12.861
		s-8.138,11.786-8.521,12.925C174.361,213.323,174.174,215.511,175.299,216.761"/>
	<path fill="#B32621" d="M92.849,41.434c-2.139-2.375-4.514-3.8-6.177-3.8c-1.614,0-5.563-0.392-8.899,6.435
		c-3.323-6.697-7.233-6.316-8.839-6.316c-1.662,0-4.038,1.426-6.177,3.801c-2.138,2.375-1.78,6.531-1.051,8.694
		c0.731,2.163,16,24.439,16,24.439s15.461-22.396,16.192-24.559C94.63,47.966,94.986,43.81,92.849,41.434"/>
	<path fill="#B32621" d="M163.422,41.434c-2.138-2.375-4.514-3.8-6.176-3.8c-1.615,0-5.563-0.392-8.899,6.435
		c-3.323-6.697-7.233-6.316-8.84-6.316c-1.662,0-4.037,1.426-6.176,3.801c-2.138,2.375-1.781,6.531-1.051,8.694
		c0.731,2.163,15.999,24.439,15.999,24.439s15.462-22.396,16.192-24.559C165.203,47.966,165.56,43.81,163.422,41.434"/>
	<path fill="#B32621" d="M132.326,231.335c2.138,2.375,4.514,3.8,6.176,3.8c1.615,0,5.563,0.391,8.9-6.435
		c3.323,6.696,7.232,6.315,8.839,6.315c1.663,0,4.038-1.426,6.176-3.801c2.139-2.375,1.781-6.531,1.051-8.693
		c-0.73-2.164-16-24.439-16-24.439s-15.461,22.396-16.191,24.559C130.545,224.803,130.188,228.959,132.326,231.335"/>
	<path fill="#B32621" d="M61.753,231.335c2.139,2.375,4.515,3.8,6.177,3.8c1.614,0,5.563,0.391,8.899-6.435
		c3.323,6.696,7.233,6.315,8.839,6.315c1.663,0,4.038-1.426,6.177-3.801c2.138-2.375,1.78-6.531,1.051-8.693
		c-0.731-2.164-15.999-24.439-15.999-24.439s-15.462,22.396-16.192,24.559C59.972,224.803,59.615,228.959,61.753,231.335"/>
	<polygon fill="#B32621" points="38.934,45.817 38.276,45.817 35.992,45.817 42.829,23.663 45.028,23.663 39.273,43.205 
		42.647,43.205 42.647,38.929 44.784,38.929 44.784,43.21 48.456,43.21 48.456,45.817 48.45,45.817 46.313,45.817 44.784,45.817 
		44.784,49.402 42.647,49.402 42.647,45.817 	"/>
	<polygon fill="#B32621" points="186.538,224.342 187.195,224.342 189.479,224.342 182.643,246.496 180.443,246.496 
		186.198,226.954 182.824,226.954 182.824,231.23 180.688,231.23 180.688,226.949 177.016,226.949 177.016,224.342 177.021,224.342 
		179.158,224.342 180.688,224.342 180.688,220.757 182.824,220.757 182.824,224.342 	"/>
</g>
</svg>
