<?xml version="1.0" encoding="utf-8"?>
<!-- Generator: Adobe Illustrator 16.0.0, SVG Export Plug-In . SVG Version: 6.00 Build 0)  -->
<!DOCTYPE svg PUBLIC "-//W3C//DTD SVG 1.1//EN" "http://www.w3.org/Graphics/SVG/1.1/DTD/svg11.dtd">
<svg version="1.1" id="Layer_1" xmlns="http://www.w3.org/2000/svg" xmlns:xlink="http://www.w3.org/1999/xlink" x="0px" y="0px"
	 width="170.657px" height="254.812px" viewBox="31.739 23.445 170.657 254.812"
	 enable-background="new 31.739 23.445 170.657 254.812" xml:space="preserve">
<g>
	<path fill="#FFFFFF" d="M39.835,23.553h154.463c4.396,0,7.989,3.595,7.989,7.989V270.16c0,4.395-3.595,7.988-7.989,7.988H39.835
		c-4.395,0-7.988-3.595-7.988-7.988V31.542C31.846,27.148,35.44,23.553,39.835,23.553z"/>
	<path fill="none" stroke="#1F1A17" stroke-width="0.216" stroke-miterlimit="10" d="M39.835,23.553h154.463
		c4.396,0,7.989,3.595,7.989,7.989V270.16c0,4.395-3.595,7.988-7.989,7.988H39.835c-4.395,0-7.988-3.595-7.988-7.988V31.542
		C31.846,27.148,35.44,23.553,39.835,23.553z"/>
	<path fill="#B32621" d="M51.094,40.421L51.094,40.421c1.876,0,3.409,1.535,3.409,3.41v13.651c0,1.874-1.533,3.409-3.409,3.409
		c-1.875,0-3.409-1.534-3.409-3.409V43.831C47.685,41.955,49.219,40.421,51.094,40.421 M51.094,37.587L51.094,37.587
		c3.018,0,5.484,2.468,5.484,5.485v14.973c0,3.018-2.468,5.486-5.484,5.486c-3.018,0-5.484-2.469-5.484-5.486V43.073
		C45.609,40.055,48.077,37.587,51.094,37.587z"/>
	<path fill="#B32621" d="M184.269,258.203L184.269,258.203c-1.876,0-3.41-1.535-3.41-3.409v-13.652c0-1.874,1.534-3.41,3.41-3.41
		c1.875,0,3.409,1.535,3.409,3.41v13.652C187.678,256.669,186.144,258.203,184.269,258.203 M184.269,261.037L184.269,261.037
		c-3.019,0-5.485-2.469-5.485-5.485v-14.974c0-3.018,2.468-5.485,5.485-5.485c3.017,0,5.484,2.468,5.484,5.485v14.974
		C189.754,258.569,187.285,261.037,184.269,261.037z"/>
	<rect x="40.07" y="37.578" fill="#B32621" width="2.137" height="25.936"/>
	<rect x="193.155" y="235.11" fill="#B32621" width="2.137" height="25.937"/>
	<path fill="#B32621" d="M96.07,56.293c-2.067-2.297-4.363-3.674-5.971-3.674c-1.563,0-5.379-0.378-8.605,6.221
		c-3.213-6.475-6.993-6.106-8.545-6.106c-1.607,0-3.904,1.378-5.972,3.676c-2.066,2.296-1.723,6.313-1.016,8.404
		c0.707,2.092,15.469,23.628,15.469,23.628S96.379,66.79,97.085,64.699C97.792,62.608,98.137,58.59,96.07,56.293"/>
	<path fill="#B32621" d="M167.771,56.293c-2.066-2.297-4.363-3.674-5.971-3.674c-1.562,0-5.379-0.378-8.604,6.221
		c-3.213-6.475-6.993-6.106-8.546-6.106c-1.607,0-3.904,1.378-5.971,3.676c-2.066,2.296-1.723,6.313-1.017,8.404
		c0.707,2.092,15.469,23.628,15.469,23.628s14.947-21.651,15.654-23.742C169.494,62.608,169.839,58.59,167.771,56.293"/>
	<path fill="#B32621" d="M130.916,83.768c-2.066-2.296-4.362-3.673-5.971-3.673c-1.563,0-5.379-0.378-8.605,6.221
		c-3.213-6.476-6.992-6.105-8.545-6.105c-1.606,0-3.903,1.378-5.972,3.674c-2.066,2.296-1.722,6.315-1.015,8.406
		s15.468,23.628,15.468,23.628s14.948-21.652,15.654-23.743C132.638,90.083,132.982,86.064,130.916,83.768"/>
	<path fill="#B32621" d="M96.07,109.902c-2.067-2.296-4.363-3.674-5.971-3.674c-1.563,0-5.379-0.378-8.605,6.223
		c-3.213-6.477-6.993-6.107-8.545-6.107c-1.607,0-3.904,1.378-5.972,3.674c-2.066,2.296-1.723,6.314-1.016,8.406
		c0.707,2.091,15.469,23.628,15.469,23.628s14.947-21.652,15.653-23.743C97.792,116.217,98.137,112.199,96.07,109.902"/>
	<path fill="#B32621" d="M167.771,110.573c-2.066-2.297-4.363-3.674-5.971-3.674c-1.562,0-5.379-0.378-8.604,6.222
		c-3.213-6.477-6.993-6.106-8.546-6.106c-1.607,0-3.904,1.378-5.971,3.674c-2.067,2.296-1.723,6.315-1.017,8.406
		c0.707,2.091,15.469,23.628,15.469,23.628s14.947-21.652,15.654-23.743S169.839,112.869,167.771,110.573"/>
	<path fill="#B32621" d="M138.68,244.92c2.065,2.296,4.362,3.674,5.971,3.674c1.562,0,5.378,0.378,8.604-6.222
		c3.213,6.476,6.992,6.105,8.545,6.105c1.607,0,3.904-1.378,5.972-3.674c2.066-2.296,1.723-6.314,1.016-8.406
		c-0.707-2.091-15.468-23.628-15.468-23.628s-14.948,21.652-15.655,23.743C136.958,238.605,136.613,242.624,138.68,244.92"/>
	<path fill="#B32621" d="M66.978,244.92c2.066,2.296,4.363,3.674,5.971,3.674c1.563,0,5.379,0.378,8.605-6.222
		c3.213,6.476,6.992,6.105,8.545,6.105c1.607,0,3.903-1.378,5.972-3.674c2.066-2.296,1.722-6.314,1.015-8.406
		c-0.707-2.091-15.468-23.628-15.468-23.628s-14.948,21.652-15.654,23.743C65.256,238.605,64.911,242.624,66.978,244.92"/>
	<path fill="#B32621" d="M103.834,217.446c2.066,2.297,4.363,3.675,5.972,3.675c1.562,0,5.378,0.378,8.604-6.223
		c3.213,6.477,6.992,6.107,8.545,6.107c1.607,0,3.904-1.377,5.971-3.674c2.066-2.296,1.724-6.314,1.017-8.406
		c-0.707-2.091-15.468-23.627-15.468-23.627s-14.948,21.652-15.655,23.743C102.112,211.13,101.768,215.149,103.834,217.446"/>
	<path fill="#B32621" d="M138.68,191.311c2.065,2.297,4.362,3.674,5.971,3.674c1.562,0,5.378,0.379,8.604-6.221
		c3.213,6.477,6.992,6.107,8.545,6.107c1.607,0,3.904-1.378,5.972-3.676c2.065-2.296,1.723-6.313,1.016-8.404
		s-15.468-23.628-15.468-23.628s-14.948,21.651-15.655,23.743C136.958,184.996,136.613,189.015,138.68,191.311"/>
	<path fill="#B32621" d="M66.978,190.641c2.066,2.296,4.363,3.674,5.971,3.674c1.563,0,5.379,0.378,8.605-6.221
		c3.213,6.475,6.992,6.106,8.545,6.106c1.607,0,3.903-1.378,5.972-3.676c2.066-2.296,1.722-6.313,1.015-8.404
		c-0.707-2.092-15.468-23.628-15.468-23.628s-14.948,21.651-15.654,23.742C65.256,184.326,64.911,188.344,66.978,190.641"/>
	<path fill="#B32621" d="M55.968,69.36c-1.126-1.25-2.376-2-3.25-2c-0.851,0-2.929-0.206-4.685,3.388
		c-1.749-3.525-3.807-3.324-4.651-3.324c-0.875,0-2.126,0.75-3.251,2c-1.124,1.25-0.938,3.438-0.553,4.576
		c0.386,1.138,8.421,12.861,8.421,12.861s8.138-11.785,8.521-12.924C56.904,72.797,57.093,70.61,55.968,69.36"/>
	<path fill="#B32621" d="M179.515,231.612c1.125,1.25,2.375,2,3.249,2c0.851,0,2.929,0.205,4.685-3.387
		c1.749,3.524,3.807,3.324,4.651,3.324c0.875,0,2.126-0.75,3.251-2c1.124-1.25,0.938-3.438,0.553-4.576
		c-0.386-1.138-8.42-12.861-8.42-12.861s-8.138,11.786-8.522,12.925C178.577,228.174,178.389,230.362,179.515,231.612"/>
</g>
</svg>
