<?xml version="1.0" encoding="utf-8"?>
<!-- Generator: Adobe Illustrator 16.0.0, SVG Export Plug-In . SVG Version: 6.00 Build 0)  -->
<!DOCTYPE svg PUBLIC "-//W3C//DTD SVG 1.1//EN" "http://www.w3.org/Graphics/SVG/1.1/DTD/svg11.dtd">
<svg version="1.1" id="Layer_1" xmlns="http://www.w3.org/2000/svg" xmlns:xlink="http://www.w3.org/1999/xlink" x="0px" y="0px"
	 width="170.657px" height="254.814px" viewBox="19.627 11.414 170.657 254.814"
	 enable-background="new 19.627 11.414 170.657 254.814" xml:space="preserve">
<g>
	<path fill="#FFFFFF" d="M27.723,11.522h154.462c4.396,0,7.99,3.596,7.99,7.989v238.619c0,4.395-3.596,7.99-7.99,7.99H27.723
		c-4.395,0-7.988-3.597-7.988-7.99V19.512C19.734,15.118,23.328,11.522,27.723,11.522z"/>
	<path fill="none" stroke="#1F1A17" stroke-width="0.216" stroke-miterlimit="10" d="M27.723,11.522h154.462
		c4.396,0,7.99,3.596,7.99,7.989v238.619c0,4.395-3.596,7.99-7.99,7.99H27.723c-4.395,0-7.988-3.597-7.988-7.99V19.512
		C19.734,15.118,23.328,11.522,27.723,11.522z"/>
	<path fill="#B32621" d="M44.104,58.811c-1.125-1.25-2.375-2-3.25-2c-0.85,0-2.928-0.206-4.684,3.387
		c-1.75-3.524-3.807-3.324-4.652-3.324c-0.875,0-2.125,0.75-3.25,2s-0.938,3.438-0.553,4.576c0.385,1.138,8.42,12.861,8.42,12.861
		s8.137-11.786,8.521-12.925C45.041,62.248,45.229,60.061,44.104,58.811"/>
	<path fill="#B32621" d="M168.197,219.866c1.125,1.25,2.375,2,3.25,2c0.85,0,2.928,0.207,4.684-3.387
		c1.748,3.525,3.807,3.324,4.652,3.324c0.875,0,2.125-0.75,3.25-2s0.938-3.438,0.553-4.576s-8.42-12.861-8.42-12.861
		s-8.137,11.786-8.521,12.926C167.26,216.429,167.072,218.616,168.197,219.866"/>
	<path fill="#B32621" d="M85.746,44.539c-2.137-2.375-4.514-3.8-6.176-3.8c-1.615,0-5.563-0.391-8.9,6.435
		c-3.322-6.697-7.232-6.316-8.838-6.316c-1.664,0-4.039,1.426-6.176,3.801c-2.139,2.375-1.781,6.531-1.051,8.694
		s15.998,24.439,15.998,24.439s15.463-22.396,16.193-24.559C87.527,51.071,87.885,46.915,85.746,44.539"/>
	<path fill="#B32621" d="M125.223,234.44c2.139,2.375,4.514,3.801,6.176,3.801c1.615,0,5.564,0.391,8.9-6.436
		c3.324,6.697,7.234,6.316,8.84,6.316c1.662,0,4.037-1.427,6.176-3.802c2.138-2.375,1.781-6.53,1.052-8.694
		c-0.732-2.162-16-24.438-16-24.438s-15.462,22.396-16.191,24.56C123.441,227.909,123.086,232.064,125.223,234.44"/>
	<path fill="#B32621" d="M34.729,26.256L34.729,26.256c-3.018,0-5.484,2.47-5.486,5.485v0.008h2.16
		c0.346-1.517,1.709-2.659,3.326-2.659c1.875,0,3.41,1.534,3.41,3.41c0,0.968-0.273,1.432-0.695,2.312l-8.199,17.067l0.912,0.005
		l0.184,0.101l0.055-0.099l7.678,0.045h2.137h0.006v-2.613h-0.006v-3.063h-2.137v3.063h-4.816l-0.01,0.01l-0.326,0.044l6.443-13.176
		c0.854-1.748,1.037-2.887,0.904-4.454c-0.049-0.56-0.141-1.106-0.299-1.618l-0.006-0.076l-0.012,0.022
		C39.24,27.863,37.164,26.256,34.729,26.256"/>
	<path fill="#B32621" d="M175.141,250.64L175.141,250.64c3.019,0,5.486-2.47,5.486-5.485v-0.008h-2.16
		c-0.346,1.518-1.707,2.659-3.326,2.659c-1.875,0-3.408-1.534-3.408-3.409c0-0.968,0.271-1.434,0.693-2.313l8.201-17.066
		l-0.914-0.006l-0.184-0.102l-0.055,0.1l-7.677-0.045h-2.137h-0.007v2.613h0.007v3.063h2.137v-3.063h4.813l0.011-0.01l0.328-0.045
		l-6.443,13.178c-0.854,1.746-1.039,2.887-0.905,4.453c0.049,0.561,0.141,1.105,0.301,1.617l0.004,0.077l0.012-0.022
		C170.629,249.032,172.707,250.64,175.141,250.64"/>
</g>
</svg>
