<?xml version="1.0" encoding="utf-8"?>
<!-- Generator: Adobe Illustrator 16.0.0, SVG Export Plug-In . SVG Version: 6.00 Build 0)  -->
<!DOCTYPE svg PUBLIC "-//W3C//DTD SVG 1.1//EN" "http://www.w3.org/Graphics/SVG/1.1/DTD/svg11.dtd">
<svg version="1.1" id="Layer_1" xmlns="http://www.w3.org/2000/svg" xmlns:xlink="http://www.w3.org/1999/xlink" x="0px" y="0px"
	 width="170.657px" height="254.813px" viewBox="11.563 10.135 170.657 254.813"
	 enable-background="new 11.563 10.135 170.657 254.813" xml:space="preserve">
<g>
	<path fill="#FFFFFF" d="M19.66,10.243h154.463c4.395,0,7.988,3.596,7.988,7.988V256.85c0,4.396-3.595,7.99-7.988,7.99H19.66
		c-4.395,0-7.989-3.596-7.989-7.99V18.232C11.671,13.839,15.266,10.243,19.66,10.243z"/>
	<path fill="none" stroke="#1F1A17" stroke-width="0.216" stroke-miterlimit="10" d="M19.66,10.243h154.463
		c4.395,0,7.988,3.596,7.988,7.988V256.85c0,4.396-3.595,7.99-7.988,7.99H19.66c-4.395,0-7.989-3.596-7.989-7.99V18.232
		C11.671,13.839,15.266,10.243,19.66,10.243z"/>
	<path fill="#B32621" d="M36.041,57.531c-1.125-1.25-2.375-2-3.25-2c-0.851,0-2.928-0.206-4.685,3.387
		c-1.749-3.524-3.807-3.324-4.651-3.324c-0.875,0-2.125,0.75-3.25,2s-0.938,3.438-0.553,4.576c0.385,1.138,8.42,12.861,8.42,12.861
		s8.137-11.786,8.521-12.926C36.979,60.969,37.166,58.781,36.041,57.531"/>
	<path fill="#B32621" d="M160.133,218.587c1.125,1.25,2.375,2,3.25,2c0.851,0,2.929,0.206,4.685-3.387
		c1.749,3.524,3.808,3.323,4.652,3.323c0.875,0,2.125-0.75,3.25-2s0.938-3.438,0.553-4.575c-0.385-1.139-8.42-12.861-8.42-12.861
		s-8.138,11.786-8.521,12.925C159.196,215.149,159.008,217.337,160.133,218.587"/>
	<path fill="#B32621" d="M77.684,43.26c-2.138-2.375-4.513-3.8-6.176-3.8c-1.615,0-5.563-0.392-8.9,6.435
		c-3.323-6.696-7.233-6.315-8.839-6.315c-1.662,0-4.038,1.426-6.176,3.801c-2.138,2.375-1.781,6.531-1.051,8.694
		c0.731,2.162,16,24.438,16,24.438s15.461-22.396,16.192-24.559C79.465,49.792,79.821,45.636,77.684,43.26"/>
	<path fill="#B32621" d="M148.256,43.26c-2.137-2.375-4.514-3.8-6.176-3.8c-1.615,0-5.563-0.392-8.899,6.435
		c-3.323-6.696-7.233-6.315-8.839-6.315c-1.663,0-4.038,1.426-6.176,3.801c-2.139,2.375-1.781,6.531-1.051,8.694
		c0.73,2.162,15.998,24.438,15.998,24.438s15.463-22.396,16.192-24.559C150.038,49.792,150.395,45.636,148.256,43.26"/>
	<path fill="#B32621" d="M117.161,233.161c2.139,2.375,4.514,3.8,6.176,3.8c1.615,0,5.563,0.391,8.9-6.436
		c3.323,6.697,7.233,6.316,8.84,6.316c1.662,0,4.037-1.426,6.176-3.801c2.138-2.375,1.781-6.531,1.051-8.694
		c-0.731-2.163-16-24.438-16-24.438s-15.461,22.396-16.192,24.558C115.379,226.629,115.023,230.785,117.161,233.161"/>
	<path fill="#B32621" d="M46.588,233.161c2.138,2.375,4.514,3.8,6.176,3.8c1.615,0,5.563,0.391,8.9-6.436
		c3.323,6.697,7.233,6.316,8.839,6.316c1.663,0,4.038-1.426,6.176-3.801c2.138-2.375,1.781-6.531,1.051-8.694
		c-0.731-2.163-15.999-24.438-15.999-24.438s-15.462,22.396-16.192,24.558C44.807,226.629,44.45,230.785,46.588,233.161"/>
	<path fill="#B32621" d="M118.167,123.133c2.138-2.376,4.514-3.801,6.176-3.801c1.615,0,5.563-0.392,8.9,6.436
		c3.322-6.698,7.232-6.315,8.838-6.315c1.664,0,4.039,1.425,6.176,3.801c2.139,2.375,1.783,6.531,1.052,8.694
		c-0.731,2.161-15.999,24.438-15.999,24.438s-15.462-22.396-16.191-24.559C116.385,129.664,116.028,125.508,118.167,123.133"/>
	<path fill="#B32621" d="M46.588,123.133c2.138-2.376,4.514-3.801,6.176-3.801c1.615,0,5.563-0.392,8.9,6.436
		c3.323-6.698,7.233-6.315,8.839-6.315c1.663,0,4.038,1.425,6.176,3.801c2.138,2.375,1.781,6.531,1.051,8.694
		c-0.731,2.161-15.999,24.438-15.999,24.438s-15.462-22.396-16.192-24.559C44.807,129.664,44.45,125.508,46.588,123.133"/>
	<path fill="#B32621" d="M26.473,49.161L26.473,49.161c-1.876,0-3.41-1.536-3.41-3.409v-2.049c0-1.874,1.534-3.41,3.41-3.41
		s3.41,1.534,3.41,3.41v2.049C29.883,47.627,28.349,49.161,26.473,49.161 M26.473,51.995L26.473,51.995
		c-3.018,0-5.485-2.47-5.485-5.485v-3.37c0-0.115,0.005-0.229,0.012-0.344h-0.012v-9.61V32.39v-0.762
		c0-3.017,2.468-5.485,5.485-5.485s5.485,2.468,5.485,5.485v1.558h-2.075V32.19c0-1.875-1.534-3.408-3.41-3.408
		s-3.41,1.535-3.41,3.408v0.199h0.062v6.414c0.928-0.719,2.091-1.149,3.349-1.149c3.018,0,5.485,2.469,5.485,5.485v3.37
		C31.958,49.527,29.49,51.995,26.473,51.995z"/>
	<path fill="#B32621" d="M168.01,225.198L168.01,225.198c1.876,0,3.41,1.535,3.41,3.409v2.05c0,1.873-1.534,3.409-3.41,3.409
		c-1.875,0-3.409-1.534-3.409-3.409v-2.05C164.601,226.732,166.135,225.198,168.01,225.198 M168.01,222.365L168.01,222.365
		c3.018,0,5.484,2.47,5.484,5.484v3.371c0,0.115-0.004,0.229-0.012,0.343h0.012v9.61v0.796v0.763c0,3.017-2.468,5.485-5.484,5.485
		c-3.018,0-5.485-2.469-5.485-5.485v-1.559h2.076v0.995c0,1.875,1.534,3.41,3.409,3.41c1.876,0,3.41-1.537,3.41-3.41v-0.199h-0.063
		v-6.414c-0.928,0.72-2.09,1.15-3.35,1.15c-3.016,0-5.484-2.47-5.484-5.485v-3.371C162.524,224.833,164.993,222.365,168.01,222.365z
		"/>
</g>
</svg>
