<?xml version="1.0" encoding="utf-8"?>
<!-- Generator: Adobe Illustrator 16.0.0, SVG Export Plug-In . SVG Version: 6.00 Build 0)  -->
<!DOCTYPE svg PUBLIC "-//W3C//DTD SVG 1.1//EN" "http://www.w3.org/Graphics/SVG/1.1/DTD/svg11.dtd">
<svg version="1.1" id="Layer_1" xmlns="http://www.w3.org/2000/svg" xmlns:xlink="http://www.w3.org/1999/xlink" x="0px" y="0px"
	 width="170.658px" height="254.812px" viewBox="10.524 5.751 170.658 254.812"
	 enable-background="new 10.524 5.751 170.658 254.812" xml:space="preserve">
<g>
	<path fill="#FFFFFF" d="M18.621,5.859h154.463c4.396,0,7.989,3.595,7.989,7.989v238.618c0,4.394-3.596,7.988-7.989,7.988H18.621
		c-4.395,0-7.989-3.596-7.989-7.988V13.849C10.632,9.454,14.227,5.859,18.621,5.859z"/>
	<path fill="none" stroke="#1F1A17" stroke-width="0.216" stroke-miterlimit="10" d="M18.621,5.859h154.463
		c4.396,0,7.989,3.595,7.989,7.989v238.618c0,4.394-3.596,7.988-7.989,7.988H18.621c-4.395,0-7.989-3.596-7.989-7.988V13.849
		C10.632,9.454,14.227,5.859,18.621,5.859z"/>
	<path fill="#B32621" d="M35.002,53.147c-1.125-1.25-2.375-2-3.25-2c-0.851,0-2.928-0.206-4.685,3.387
		c-1.749-3.525-3.807-3.324-4.651-3.324c-0.875,0-2.125,0.75-3.25,2s-0.938,3.438-0.553,4.576c0.385,1.137,8.42,12.861,8.42,12.861
		s8.137-11.787,8.521-12.925C35.938,56.584,36.127,54.397,35.002,53.147"/>
	<path fill="#B32621" d="M159.095,214.203c1.125,1.25,2.375,2,3.25,2c0.85,0,2.928,0.207,4.684-3.388
		c1.75,3.524,3.809,3.324,4.652,3.324c0.875,0,2.125-0.75,3.25-2s0.938-3.438,0.553-4.574c-0.385-1.14-8.42-12.862-8.42-12.862
		s-8.137,11.787-8.521,12.926C158.157,210.765,157.97,212.953,159.095,214.203"/>
	<path fill="#B32621" d="M76.645,38.876c-2.138-2.375-4.513-3.801-6.176-3.801c-1.615,0-5.563-0.391-8.9,6.436
		c-3.323-6.697-7.233-6.316-8.839-6.316c-1.662,0-4.038,1.426-6.176,3.801c-2.138,2.375-1.781,6.531-1.051,8.694
		c0.731,2.163,16,24.438,16,24.438S76.964,49.733,77.695,47.57C78.426,45.407,78.782,41.251,76.645,38.876"/>
	<path fill="#B32621" d="M147.218,38.876c-2.138-2.375-4.514-3.801-6.176-3.801c-1.615,0-5.563-0.391-8.9,6.436
		c-3.322-6.697-7.232-6.316-8.838-6.316c-1.664,0-4.039,1.426-6.177,3.801s-1.78,6.531-1.051,8.694
		c0.731,2.163,15.999,24.438,15.999,24.438s15.462-22.395,16.191-24.558C148.999,45.407,149.354,41.251,147.218,38.876"/>
	<path fill="#B32621" d="M116.122,228.776c2.138,2.375,4.514,3.802,6.176,3.802c1.615,0,5.563,0.391,8.9-6.437
		c3.322,6.696,7.232,6.315,8.839,6.315c1.663,0,4.038-1.426,6.176-3.801s1.781-6.531,1.052-8.693c-0.731-2.164-16-24.438-16-24.438
		s-15.461,22.396-16.193,24.56C114.341,222.246,113.983,226.401,116.122,228.776"/>
	<path fill="#B32621" d="M45.549,228.776c2.138,2.375,4.514,3.802,6.176,3.802c1.615,0,5.563,0.391,8.9-6.437
		c3.323,6.696,7.233,6.315,8.839,6.315c1.663,0,4.038-1.426,6.176-3.801c2.138-2.375,1.781-6.531,1.051-8.693
		c-0.731-2.164-15.999-24.438-15.999-24.438S45.23,217.919,44.5,220.083C43.768,222.246,43.411,226.401,45.549,228.776"/>
	<path fill="#B32621" d="M117.127,118.749c2.138-2.376,4.515-3.801,6.177-3.801c1.614,0,5.563-0.391,8.899,6.436
		c3.323-6.698,7.233-6.316,8.839-6.316c1.663,0,4.038,1.425,6.176,3.801c2.139,2.375,1.782,6.531,1.051,8.693
		c-0.73,2.163-15.998,24.439-15.998,24.439s-15.463-22.396-16.192-24.56C115.347,125.28,114.989,121.124,117.127,118.749"/>
	<path fill="#B32621" d="M45.549,118.749c2.138-2.376,4.514-3.801,6.176-3.801c1.615,0,5.563-0.391,8.9,6.436
		c3.323-6.698,7.233-6.316,8.839-6.316c1.663,0,4.038,1.425,6.176,3.801c2.138,2.375,1.781,6.531,1.051,8.693
		c-0.731,2.163-15.999,24.439-15.999,24.439S45.23,129.605,44.5,127.442C43.768,125.28,43.411,121.124,45.549,118.749"/>
	<path fill="#B32621" d="M26.977,35.636L26.977,35.636c2.018,0,3.668,1.652,3.668,3.668v1.234c0,2.016-1.65,3.668-3.668,3.668
		s-3.668-1.65-3.668-3.668v-1.234C23.309,37.286,24.959,35.636,26.977,35.636 M26.977,24.196L26.977,24.196
		c1.876,0,3.41,1.537,3.41,3.41v1.148c0,1.873-1.534,3.409-3.41,3.409c-1.875,0-3.409-1.534-3.409-3.409v-1.148
		C23.567,25.731,25.102,24.196,26.977,24.196z M30.337,33.644c1.532,1.068,2.541,2.846,2.541,4.844v2.656
		c0,3.244-2.655,5.9-5.901,5.9c-3.245,0-5.9-2.654-5.9-5.9v-2.656c0-1.999,1.008-3.775,2.54-4.844
		c-1.29-1.006-2.125-2.572-2.125-4.326v-2.469c0-3.018,2.469-5.486,5.485-5.486c3.018,0,5.485,2.47,5.485,5.486v2.469
		C32.462,31.071,31.628,32.638,30.337,33.644z"/>
	<path fill="#B32621" d="M166.905,229.798L166.905,229.798c-2.018,0-3.668-1.652-3.668-3.668v-1.234c0-2.016,1.65-3.668,3.668-3.668
		c2.019,0,3.669,1.65,3.669,3.668v1.234C170.574,228.147,168.924,229.798,166.905,229.798 M166.905,241.237L166.905,241.237
		c-1.875,0-3.409-1.536-3.409-3.409v-1.148c0-1.873,1.534-3.408,3.409-3.408c1.876,0,3.41,1.533,3.41,3.408v1.148
		C170.315,239.703,168.781,241.237,166.905,241.237z M163.546,231.791c-1.533-1.068-2.541-2.847-2.541-4.845v-2.655
		c0-3.244,2.655-5.9,5.9-5.9c3.246,0,5.9,2.654,5.9,5.9v2.655c0,2-1.008,3.775-2.541,4.845c1.291,1.006,2.127,2.571,2.127,4.326
		v2.469c0,3.018-2.47,5.485-5.486,5.485c-3.018,0-5.484-2.469-5.484-5.485v-2.469C161.421,234.362,162.255,232.796,163.546,231.791z
		"/>
	<path fill="#B32621" d="M80.938,78.539c2.138-2.376,4.514-3.8,6.176-3.8c1.615,0,5.563-0.391,8.9,6.435
		c3.323-6.698,7.233-6.316,8.84-6.316c1.662,0,4.037,1.425,6.176,3.801c2.137,2.374,1.781,6.531,1.05,8.694
		c-0.731,2.162-15.999,24.439-15.999,24.439S80.619,89.396,79.889,87.233C79.157,85.071,78.801,80.915,80.938,78.539"/>
	<path fill="#B32621" d="M110.226,187.603c-2.138,2.375-4.513,3.801-6.176,3.801c-1.613,0-5.563,0.391-8.9-6.436
		c-3.323,6.697-7.233,6.316-8.839,6.316c-1.662,0-4.038-1.427-6.176-3.802c-2.138-2.375-1.781-6.53-1.05-8.694
		c0.73-2.162,15.999-24.438,15.999-24.438s15.461,22.396,16.192,24.558C112.007,181.071,112.362,185.228,110.226,187.603"/>
</g>
</svg>
