<?xml version="1.0" encoding="utf-8"?>
<!-- Generator: Adobe Illustrator 16.0.0, SVG Export Plug-In . SVG Version: 6.00 Build 0)  -->
<!DOCTYPE svg PUBLIC "-//W3C//DTD SVG 1.1//EN" "http://www.w3.org/Graphics/SVG/1.1/DTD/svg11.dtd">
<svg version="1.1" id="Layer_1" xmlns="http://www.w3.org/2000/svg" xmlns:xlink="http://www.w3.org/1999/xlink" x="0px" y="0px"
	 width="170.657px" height="254.814px" viewBox="0 0 170.657 254.814" enable-background="new 0 0 170.657 254.814"
	 xml:space="preserve">
<g opacity="0.1">
	<g>
		
			<path id="border" opacity="0.2" fill="none" stroke="#999999" stroke-width="5" stroke-miterlimit="10" enable-background="new    " d="
			M13.526,8.378h143.539c4.084,0,7.424,3.366,7.424,7.478V239.16c0,4.111-3.344,7.478-7.424,7.478H13.526
			c-4.083,0-7.423-3.367-7.423-7.478V15.856C6.102,11.743,9.443,8.378,13.526,8.378z"/>
		<g id="center">
			<path opacity="0.2" fill="#DEDFE0" stroke="#999999" stroke-miterlimit="10" enable-background="new    " d="M112.292,141.949
				c1.851-0.625,20.025-13.142,21.972-14.479h0.18c-0.002-0.004-0.037-0.025-0.09-0.063c0.053-0.036,0.088-0.06,0.09-0.063h-0.18
				c-1.943-1.34-20.121-13.854-21.972-14.479c-1.946-0.658-5.696-0.979-7.842,0.947c-2.143,1.929-3.428,4.069-3.428,5.569
				c0,0.681-0.074,1.816,0.471,3.146c0.947,1.514,2.863,3.053,6.769,3.208c0,0-6.669,0.271-10.546-2.298
				c-0.303-0.16-0.582-0.328-0.813-0.517c0,0,0.295,3.49,0.285,4.483c0.01,0.992-0.285,4.484-0.285,4.484
				c0.23-0.188,0.51-0.355,0.813-0.519c3.877-2.568,10.546-2.297,10.546-2.297c-3.902,0.152-5.818,1.693-6.769,3.207
				c-0.545,1.327-0.471,2.466-0.471,3.146c0,1.502,1.285,3.644,3.428,5.568C106.594,142.93,110.344,142.608,112.292,141.949"/>
			<path opacity="0.2" fill="#DEDFE0" stroke="#999999" stroke-miterlimit="10" enable-background="new    " d="M34.032,127.643
				c0,0,16.302,4.271,22.313,15.51c0,0,8.546-13.452,21.366-15.667c0,0-15.826-4.271-21.521-15.826
				C56.19,111.657,50.016,123.213,34.032,127.643"/>
			<path opacity="0.2" fill="#DEDFE0" stroke="#999999" stroke-miterlimit="10" enable-background="new    " d="M99.629,86.141
				c-2.031-2.26-4.289-3.612-5.869-3.612c-1.535,0-5.289-0.371-8.461,6.117c-3.16-6.366-6.877-6.005-8.402-6.005
				c-1.582,0-3.838,1.354-5.87,3.611c-2.032,2.258-1.693,6.208-0.999,8.267c0.693,2.057,15.209,23.229,15.209,23.229
				s14.695-21.289,15.393-23.345C101.323,92.35,101.663,88.398,99.629,86.141"/>
			<path opacity="0.2" fill="#DEDFE0" stroke="#999999" stroke-miterlimit="10" enable-background="new    " d="M94.456,166.781
				c-0.582,4.023-2.44,5.777-5.295,6.756c-5.191,1.777-11.677-1.117-12.903-5.736c-1.088-4.096,1.189-6.854,3.824-10.516
				c-2.936,0.881-4.063,2.555-7.646,1.912c-3.179-0.568-5.367-4.078-5.734-5.732c-1.398-6.307,2.934-12.047,8.125-11.948
				c2.334,0.045,3.213,1.026,4.3,1.911c2.155,1.761,2.612,3.244,4.302,5.259c0.745-1.05,0.209-2.34,0-3.349
				c-0.273-1.313-1.051-2.262-1.435-3.344c-0.428-1.207-0.518-2.68-0.957-3.824c-0.376-0.985-1.89-1.813-0.954-2.864
				c3.352,0.313,7.957-0.634,10.513,0.477c-0.992,3.791-3.941,8.16-2.391,12.904c0.885-7.66,10.244-8.672,14.049-4.013
				c2.764,3.382,3.897,13.439-5.443,14.523c-1.789,0.209-3.541-0.85-5.256-1.434c0.895,2.924,2.914,4.229,2.9,8.063
				C94.454,166.147,94.454,166.467,94.456,166.781"/>
			
				<ellipse opacity="0.2" fill="none" stroke="#999999" stroke-width="6" stroke-miterlimit="10" enable-background="new    " cx="85.329" cy="127.407" rx="61.5" ry="59.372"/>
		</g>
	</g>
	
		<path id="extBorder" opacity="0.1" fill="none" stroke="#999999" stroke-width="0.216" stroke-miterlimit="10" enable-background="new    " d="
		M8.096,0.11h154.463c4.396,0,7.99,3.596,7.99,7.99v238.614c0,4.396-3.596,7.99-7.99,7.99H8.096c-4.395,0-7.988-3.596-7.988-7.99
		V8.1C0.106,3.705,3.702,0.11,8.096,0.11z"/>
</g>
</svg>
