<?xml version="1.0" encoding="utf-8"?>
<!-- Generator: Adobe Illustrator 16.0.0, SVG Export Plug-In . SVG Version: 6.00 Build 0)  -->
<!DOCTYPE svg PUBLIC "-//W3C//DTD SVG 1.1//EN" "http://www.w3.org/Graphics/SVG/1.1/DTD/svg11.dtd">
<svg version="1.1" id="Layer_1" xmlns="http://www.w3.org/2000/svg" xmlns:xlink="http://www.w3.org/1999/xlink" x="0px" y="0px"
	 width="170.658px" height="254.813px" viewBox="37.363 15.031 170.658 254.813"
	 enable-background="new 37.363 15.031 170.658 254.813" xml:space="preserve">
<g>
	<path fill="#FFFFFF" d="M45.46,15.138h154.463c4.395,0,7.989,3.596,7.989,7.989v238.618c0,4.395-3.596,7.989-7.989,7.989H45.46
		c-4.395,0-7.989-3.595-7.989-7.989V23.128C37.471,18.734,41.066,15.138,45.46,15.138z"/>
	<path fill="none" stroke="#1F1A17" stroke-width="0.216" stroke-miterlimit="10" d="M45.46,15.138h154.463
		c4.395,0,7.989,3.596,7.989,7.989v238.618c0,4.395-3.596,7.989-7.989,7.989H45.46c-4.395,0-7.989-3.595-7.989-7.989V23.128
		C37.471,18.734,41.066,15.138,45.46,15.138z"/>
	<path fill="#1F1A17" d="M53.237,36.844l-2.715,8.888h5.431L53.237,36.844z M44.468,53.096h1.392
		c2.096-6.857,4.327-14.177,6.387-20.921l1.977-0.002c2.104,6.887,4.245,13.896,6.358,20.813l1.445,0.011v2.339
		c-2.32,0-4.65-0.041-7.02-0.041v-2.309h3.161l-1.511-4.947h-6.841l-1.545,5.058h2.783v2.309h-6.587V53.096z"/>
	<path fill="#171717" d="M48.664,62.878c0.291-2.021,1.227-2.9,2.659-3.392c2.608-0.894,5.864,0.561,6.481,2.881
		c0.546,2.057-0.598,3.444-1.921,5.282c1.475-0.442,2.042-1.282,3.841-0.961c1.595,0.287,2.695,2.049,2.88,2.88
		c0.703,3.168-1.474,6.05-4.081,6.001c-1.173-0.021-1.614-0.515-2.161-0.959c-1.083-0.884-1.313-1.63-2.159-2.642
		c-0.375,0.528-0.106,1.177,0,1.682c0.137,0.662,0.526,1.136,0.719,1.68c0.215,0.606,0.261,1.346,0.48,1.921
		c0.188,0.495,0.949,0.911,0.479,1.439c-1.683-0.157-3.997,0.317-5.28-0.239c0.498-1.904,1.979-4.099,1.2-6.482
		c-0.443,3.849-5.144,4.356-7.057,2.015c-1.387-1.698-1.958-6.75,2.734-7.295c0.899-0.104,1.779,0.428,2.642,0.721
		c-0.452-1.469-1.466-2.124-1.459-4.051C48.664,63.198,48.664,63.038,48.664,62.878"/>
	<path fill="#1F1A17" d="M193.19,247.764l2.715-8.889h-5.43L193.19,247.764z M201.959,231.511h-1.393
		c-2.095,6.857-4.326,14.177-6.386,20.92l-1.977,0.003c-2.104-6.887-4.245-13.896-6.358-20.813l-1.446-0.012v-2.338
		c2.32,0,4.651,0.041,7.021,0.041v2.309h-3.161l1.511,4.946h6.84l1.545-5.057h-2.782v-2.309h6.587V231.511z"/>
	<path fill="#171717" d="M197.763,221.729c-0.292,2.021-1.227,2.9-2.659,3.393c-2.607,0.895-5.865-0.561-6.48-2.881
		c-0.546-2.057,0.598-3.444,1.921-5.281c-1.476,0.442-2.042,1.282-3.841,0.961c-1.596-0.286-2.695-2.049-2.882-2.881
		c-0.702-3.167,1.475-6.05,4.081-6.001c1.174,0.021,1.615,0.517,2.161,0.96c1.083,0.884,1.313,1.63,2.16,2.642
		c0.375-0.527,0.105-1.177,0-1.682c-0.137-0.661-0.527-1.136-0.72-1.68c-0.215-0.606-0.261-1.346-0.48-1.921
		c-0.188-0.495-0.948-0.911-0.479-1.439c1.683,0.157,3.997-0.316,5.28,0.239c-0.498,1.904-1.979,4.099-1.2,6.481
		c0.442-3.849,5.144-4.355,7.056-2.015c1.386,1.698,1.958,6.75-2.734,7.295c-0.898,0.104-1.778-0.428-2.641-0.721
		c0.451,1.469,1.465,2.123,1.459,4.051C197.763,221.41,197.763,221.57,197.763,221.729"/>
	<path fill="#171717" d="M114.291,129.614c0.58-4.023,2.443-5.776,5.294-6.755c5.193-1.778,11.678,1.117,12.905,5.735
		c1.087,4.096-1.19,6.857-3.825,10.516c2.936-0.881,4.063-2.553,7.646-1.913c3.178,0.57,5.367,4.079,5.736,5.735
		c1.398,6.306-2.935,12.045-8.125,11.947c-2.335-0.043-3.215-1.025-4.301-1.911c-2.156-1.76-2.613-3.244-4.301-5.258
		c-0.746,1.05-0.21,2.341,0,3.348c0.273,1.315,1.05,2.261,1.434,3.344c0.428,1.208,0.519,2.68,0.957,3.824
		c0.375,0.985,1.89,1.814,0.954,2.865c-3.351-0.313-7.958,0.633-10.514-0.476c0.992-3.792,3.941-8.161,2.391-12.905
		c-0.883,7.661-10.242,8.673-14.049,4.012c-2.761-3.382-3.899-13.439,5.444-14.525c1.789-0.208,3.541,0.852,5.258,1.435
		c-0.897-2.924-2.917-4.228-2.904-8.063C114.291,130.249,114.291,129.93,114.291,129.614"/>
</g>
</svg>
