<?xml version="1.0" encoding="utf-8"?>
<!-- Generator: Adobe Illustrator 16.0.0, SVG Export Plug-In . SVG Version: 6.00 Build 0)  -->
<!DOCTYPE svg PUBLIC "-//W3C//DTD SVG 1.1//EN" "http://www.w3.org/Graphics/SVG/1.1/DTD/svg11.dtd">
<svg version="1.1" id="Layer_1" xmlns="http://www.w3.org/2000/svg" xmlns:xlink="http://www.w3.org/1999/xlink" x="0px" y="0px"
	 width="170.658px" height="254.812px" viewBox="10.677 6.413 170.658 254.812"
	 enable-background="new 10.677 6.413 170.658 254.812" xml:space="preserve">
<g>
	<path fill="#FFFFFF" d="M18.774,6.521h154.462c4.396,0,7.99,3.595,7.99,7.989v238.619c0,4.394-3.596,7.988-7.99,7.988H18.774
		c-4.395,0-7.989-3.596-7.989-7.988V14.51C10.785,10.115,14.38,6.521,18.774,6.521z"/>
	<path fill="none" stroke="#1F1A17" stroke-width="0.216" stroke-miterlimit="10" d="M18.774,6.521h154.462
		c4.396,0,7.99,3.595,7.99,7.989v238.619c0,4.394-3.596,7.988-7.99,7.988H18.774c-4.395,0-7.989-3.596-7.989-7.988V14.51
		C10.785,10.115,14.38,6.521,18.774,6.521z"/>
	<path fill="#171717" d="M22.42,54.375c0.291-2.021,1.228-2.9,2.659-3.393c2.608-0.893,5.865,0.562,6.481,2.881
		c0.546,2.057-0.598,3.445-1.921,5.281c1.475-0.442,2.041-1.281,3.841-0.961c1.596,0.287,2.695,2.049,2.881,2.881
		c0.703,3.168-1.474,6.05-4.081,6.002c-1.173-0.022-1.615-0.517-2.16-0.961c-1.083-0.883-1.313-1.629-2.16-2.641
		c-0.375,0.528-0.105,1.176,0,1.682c0.138,0.661,0.527,1.135,0.72,1.68c0.215,0.605,0.261,1.346,0.48,1.92
		c0.188,0.496,0.949,0.912,0.479,1.439c-1.683-0.156-3.997,0.318-5.28-0.238c0.498-1.904,1.979-4.1,1.2-6.482
		c-0.443,3.848-5.145,4.356-7.057,2.015c-1.386-1.698-1.958-6.75,2.735-7.296c0.898-0.104,1.778,0.428,2.641,0.722
		c-0.451-1.47-1.465-2.124-1.459-4.051C22.42,54.694,22.42,54.534,22.42,54.375"/>
	<path fill="#171717" d="M171.643,212.653c-0.291,2.021-1.227,2.901-2.658,3.394c-2.608,0.894-5.865-0.563-6.481-2.881
		c-0.546-2.058,0.599-3.444,1.922-5.281c-1.475,0.441-2.042,1.281-3.842,0.961c-1.595-0.287-2.694-2.049-2.881-2.881
		c-0.702-3.168,1.476-6.051,4.082-6.002c1.173,0.021,1.614,0.517,2.159,0.959c1.082,0.886,1.313,1.631,2.16,2.643
		c0.375-0.527,0.104-1.176,0-1.682c-0.138-0.661-0.526-1.137-0.721-1.68c-0.215-0.605-0.261-1.346-0.48-1.92
		c-0.188-0.496-0.948-0.912-0.479-1.439c1.684,0.156,3.996-0.317,5.279,0.238c-0.498,1.903-1.979,4.1-1.2,6.481
		c0.442-3.849,5.146-4.356,7.058-2.015c1.386,1.697,1.959,6.75-2.734,7.295c-0.898,0.105-1.779-0.428-2.643-0.721
		c0.453,1.469,1.465,2.123,1.459,4.051C171.643,212.333,171.643,212.494,171.643,212.653"/>
	<path fill="#171717" d="M51.02,43.137c0.571-3.956,2.404-5.681,5.208-6.643c5.108-1.75,11.485,1.098,12.692,5.642
		c1.069,4.027-1.17,6.745-3.762,10.343c2.888-0.867,3.997-2.511,7.521-1.882c3.125,0.561,5.279,4.012,5.642,5.642
		c1.377,6.202-2.886,11.848-7.991,11.752c-2.298-0.043-3.164-1.01-4.231-1.88c-2.12-1.73-2.569-3.192-4.229-5.172
		c-0.734,1.033-0.207,2.303,0,3.292c0.269,1.295,1.032,2.224,1.409,3.289c0.421,1.188,0.511,2.635,0.941,3.762
		c0.369,0.97,1.858,1.785,0.938,2.818c-3.295-0.307-7.827,0.622-10.34-0.468c0.975-3.729,3.876-8.026,2.35-12.693
		C56.3,68.474,47.095,69.47,43.35,64.884c-2.714-3.325-3.835-13.22,5.355-14.287c1.76-0.204,3.483,0.838,5.172,1.411
		c-0.884-2.877-2.869-4.158-2.857-7.932C51.02,43.762,51.02,43.449,51.02,43.137"/>
	<path fill="#171717" d="M122.723,42.467c0.569-3.957,2.402-5.681,5.207-6.643c5.107-1.75,11.485,1.098,12.692,5.642
		c1.069,4.027-1.171,6.745-3.763,10.343c2.889-0.867,3.998-2.512,7.521-1.883c3.125,0.562,5.278,4.013,5.643,5.643
		c1.377,6.202-2.887,11.847-7.992,11.752c-2.297-0.043-3.163-1.01-4.23-1.88c-2.121-1.731-2.57-3.192-4.229-5.172
		c-0.735,1.033-0.207,2.303,0,3.291c0.269,1.296,1.031,2.225,1.408,3.29c0.42,1.188,0.512,2.635,0.94,3.762
		c0.369,0.97,1.858,1.784,0.938,2.818c-3.295-0.308-7.827,0.622-10.34-0.468c0.976-3.729,3.877-8.026,2.351-12.693
		c-0.868,7.535-10.073,8.53-13.818,3.944c-2.715-3.324-3.835-13.219,5.355-14.287c1.76-0.204,3.481,0.838,5.172,1.412
		c-0.884-2.877-2.869-4.158-2.856-7.932C122.723,43.092,122.723,42.778,122.723,42.467"/>
	<path fill="#171717" d="M88.211,122.347c0.57-3.957,2.403-5.682,5.207-6.644c5.107-1.75,11.486,1.099,12.693,5.642
		c1.068,4.027-1.17,6.745-3.762,10.343c2.887-0.867,3.996-2.511,7.521-1.882c3.125,0.561,5.278,4.012,5.642,5.643
		c1.377,6.201-2.886,11.848-7.992,11.752c-2.297-0.043-3.162-1.011-4.229-1.881c-2.12-1.73-2.569-3.191-4.229-5.172
		c-0.733,1.033-0.207,2.303,0,3.292c0.27,1.295,1.032,2.224,1.41,3.289c0.42,1.188,0.51,2.636,0.939,3.763
		c0.369,0.969,1.859,1.784,0.939,2.817c-3.297-0.308-7.829,0.622-10.342-0.468c0.976-3.729,3.877-8.026,2.351-12.693
		c-0.868,7.535-10.073,8.531-13.818,3.945c-2.715-3.325-3.835-13.22,5.355-14.287c1.76-0.204,3.482,0.838,5.172,1.411
		c-0.884-2.877-2.869-4.158-2.857-7.932C88.211,122.972,88.211,122.658,88.211,122.347"/>
	<path fill="#171717" d="M141.352,223.824c-0.572,3.957-2.404,5.68-5.209,6.643c-5.107,1.75-11.484-1.098-12.691-5.643
		c-1.069-4.027,1.17-6.744,3.762-10.342c-2.888,0.866-3.997,2.512-7.521,1.883c-3.125-0.563-5.278-4.014-5.642-5.643
		c-1.377-6.202,2.886-11.848,7.991-11.752c2.298,0.042,3.163,1.01,4.23,1.879c2.121,1.73,2.57,3.191,4.229,5.172
		c0.733-1.033,0.207-2.303,0-3.291c-0.269-1.295-1.032-2.225-1.409-3.29c-0.421-1.188-0.511-2.635-0.941-3.762
		c-0.368-0.97-1.858-1.784-0.938-2.818c3.295,0.308,7.827-0.622,10.34,0.468c-0.975,3.729-3.876,8.027-2.351,12.693
		c0.868-7.535,10.073-8.529,13.819-3.943c2.713,3.324,3.834,13.219-5.356,14.287c-1.761,0.203-3.481-0.839-5.171-1.412
		c0.884,2.877,2.869,4.157,2.857,7.932C141.352,223.199,141.352,223.511,141.352,223.824"/>
	<path fill="#171717" d="M69.648,224.494c-0.57,3.957-2.403,5.68-5.207,6.643c-5.108,1.75-11.486-1.098-12.693-5.643
		c-1.069-4.027,1.17-6.744,3.762-10.342c-2.888,0.866-3.997,2.512-7.521,1.883c-3.125-0.562-5.278-4.014-5.642-5.643
		c-1.377-6.202,2.886-11.848,7.992-11.752c2.297,0.042,3.163,1.01,4.23,1.88c2.12,1.729,2.57,3.19,4.229,5.171
		c0.734-1.033,0.207-2.303,0-3.291c-0.269-1.295-1.032-2.225-1.409-3.29c-0.421-1.187-0.511-2.635-0.94-3.761
		c-0.369-0.971-1.859-1.785-0.939-2.818c3.296,0.307,7.828-0.621,10.341,0.467c-0.976,3.729-3.877,8.027-2.351,12.693
		c0.868-7.535,10.073-8.529,13.818-3.943c2.715,3.324,3.835,13.219-5.355,14.287c-1.76,0.203-3.482-0.838-5.172-1.412
		c0.884,2.877,2.869,4.158,2.857,7.933C69.648,223.869,69.648,224.182,69.648,224.494"/>
	<path fill="#1F1A17" d="M26.677,47.547L26.677,47.547c-3.017,0-5.484-2.47-5.485-5.485v-0.009h2.16
		c0.345,1.518,1.708,2.66,3.325,2.66c1.876,0,3.41-1.534,3.41-3.41v-4.714c0-1.875-1.534-3.409-3.41-3.409
		c-1.662,0-3.056,1.207-3.351,2.786h-2.134c0.002-0.095,0.005-0.189,0.011-0.283h-0.012V21.924l8.829-0.052h2.137h0.005v2.612
		h-0.005v3.063H30.02v-3.063h-6.691v7.206c0.928-0.72,2.09-1.149,3.348-1.149c3.018,0,5.485,2.469,5.485,5.485v6.035
		C32.162,45.078,29.694,47.547,26.677,47.547"/>
	<path fill="#1F1A17" d="M167.4,218.884L167.4,218.884c3.017,0,5.483,2.47,5.484,5.486v0.008h-2.16
		c-0.345-1.519-1.707-2.66-3.326-2.66c-1.875,0-3.408,1.533-3.408,3.41v4.713c0,1.875,1.533,3.41,3.41,3.41
		c1.662,0,3.056-1.207,3.351-2.787h2.134c-0.002,0.096-0.005,0.189-0.011,0.283h0.011v13.76l-8.828,0.052h-2.137h-0.006v-2.612
		h0.006v-3.063h2.137v3.063h6.691v-7.205c-0.928,0.719-2.09,1.149-3.348,1.148c-3.019,0-5.486-2.469-5.486-5.484l0.001-6.035
		C161.915,221.354,164.383,218.884,167.4,218.884"/>
</g>
</svg>
