<?xml version="1.0" encoding="utf-8"?>
<!-- Generator: Adobe Illustrator 16.0.0, SVG Export Plug-In . SVG Version: 6.00 Build 0)  -->
<!DOCTYPE svg PUBLIC "-//W3C//DTD SVG 1.1//EN" "http://www.w3.org/Graphics/SVG/1.1/DTD/svg11.dtd">
<svg version="1.1" id="Layer_1" xmlns="http://www.w3.org/2000/svg" xmlns:xlink="http://www.w3.org/1999/xlink" x="0px" y="0px"
	 width="170.658px" height="254.813px" viewBox="21.172 16.996 170.658 254.813"
	 enable-background="new 21.172 16.996 170.658 254.813" xml:space="preserve">
<g>
	<path fill="#FFFFFF" d="M29.269,17.104h154.463c4.395,0,7.989,3.595,7.989,7.99v238.619c0,4.394-3.596,7.988-7.989,7.988H29.269
		c-4.396,0-7.989-3.596-7.989-7.988V25.094C21.28,20.699,24.875,17.104,29.269,17.104z"/>
	<path fill="none" stroke="#1F1A17" stroke-width="0.216" stroke-miterlimit="10" d="M29.269,17.104h154.463
		c4.395,0,7.989,3.595,7.989,7.99v238.619c0,4.394-3.596,7.988-7.989,7.988H29.269c-4.396,0-7.989-3.596-7.989-7.988V25.094
		C21.28,20.699,24.875,17.104,29.269,17.104z"/>
	<path fill="#1F1A17" d="M40.528,33.972L40.528,33.972c1.876,0,3.41,1.535,3.41,3.41v13.651c0,1.875-1.534,3.41-3.41,3.41
		c-1.875,0-3.409-1.534-3.409-3.41V37.382C37.119,35.506,38.653,33.972,40.528,33.972 M40.528,31.138L40.528,31.138
		c3.018,0,5.485,2.469,5.485,5.485v14.974c0,3.018-2.469,5.485-5.485,5.485s-5.485-2.468-5.485-5.485V36.623
		C35.042,33.606,37.511,31.138,40.528,31.138z"/>
	<path fill="#1F1A17" d="M173.703,251.753L173.703,251.753c-1.876,0-3.41-1.535-3.41-3.41v-13.65c0-1.875,1.534-3.41,3.41-3.41
		c1.875,0,3.409,1.535,3.409,3.41v13.65C177.112,250.22,175.578,251.753,173.703,251.753 M173.703,254.587L173.703,254.587
		c-3.018,0-5.486-2.467-5.486-5.484v-14.975c0-3.017,2.47-5.484,5.486-5.484c3.018,0,5.484,2.469,5.484,5.484v14.975
		C179.187,252.121,176.719,254.587,173.703,254.587z"/>
	<rect x="182.589" y="228.662" fill="#1F1A17" width="2.138" height="25.936"/>
	<path fill="#171717" d="M33.284,64.632c0.291-2.02,1.229-2.901,2.659-3.392c2.607-0.894,5.865,0.561,6.48,2.881
		c0.547,2.057-0.598,3.444-1.921,5.281c1.476-0.442,2.041-1.282,3.842-0.961c1.596,0.286,2.694,2.049,2.881,2.881
		c0.703,3.167-1.475,6.05-4.081,6.001c-1.173-0.021-1.615-0.516-2.16-0.96c-1.083-0.884-1.313-1.63-2.16-2.641
		c-0.375,0.527-0.104,1.176,0,1.681c0.138,0.661,0.527,1.136,0.72,1.68c0.215,0.606,0.262,1.346,0.48,1.921
		c0.188,0.495,0.949,0.911,0.479,1.439c-1.683-0.157-3.997,0.317-5.279-0.239c0.498-1.904,1.979-4.099,1.199-6.481
		c-0.442,3.848-5.145,4.356-7.057,2.014c-1.386-1.698-1.958-6.75,2.735-7.295c0.897-0.104,1.777,0.428,2.641,0.721
		c-0.451-1.469-1.465-2.123-1.459-4.05C33.284,64.952,33.284,64.792,33.284,64.632"/>
	<path fill="#171717" d="M181.669,223.582c-0.292,2.021-1.228,2.899-2.659,3.392c-2.607,0.894-5.864-0.562-6.48-2.882
		c-0.546-2.057,0.598-3.443,1.921-5.28c-1.475,0.442-2.041,1.282-3.841,0.961c-1.596-0.286-2.695-2.049-2.881-2.881
		c-0.703-3.167,1.474-6.05,4.081-6.001c1.173,0.021,1.614,0.516,2.16,0.96c1.082,0.884,1.313,1.63,2.159,2.642
		c0.375-0.527,0.105-1.177,0-1.682c-0.138-0.661-0.526-1.137-0.72-1.68c-0.215-0.606-0.261-1.346-0.479-1.922
		c-0.188-0.494-0.949-0.91-0.479-1.438c1.683,0.157,3.997-0.317,5.28,0.239c-0.498,1.904-1.979,4.099-1.2,6.48
		c0.443-3.848,5.144-4.355,7.056-2.014c1.388,1.697,1.959,6.75-2.733,7.295c-0.898,0.104-1.778-0.428-2.642-0.721
		c0.451,1.469,1.465,2.123,1.459,4.051C181.669,223.261,181.669,223.421,181.669,223.582"/>
	<path fill="#171717" d="M60.793,52.701c0.582-4.036,2.451-5.794,5.313-6.776c5.211-1.785,11.717,1.12,12.948,5.755
		c1.09,4.108-1.194,6.881-3.839,10.55c2.945-0.884,4.078-2.562,7.674-1.92c3.188,0.572,5.385,4.093,5.755,5.755
		c1.403,6.327-2.944,12.085-8.152,11.988c-2.344-0.043-3.227-1.03-4.315-1.917c-2.162-1.766-2.621-3.257-4.314-5.276
		c-0.749,1.054-0.21,2.349,0,3.357c0.273,1.321,1.054,2.269,1.438,3.356c0.43,1.211,0.521,2.688,0.959,3.837
		c0.377,0.989,1.896,1.82,0.958,2.875c-3.36-0.314-7.983,0.634-10.548-0.478c0.995-3.804,3.954-8.188,2.397-12.948
		c-0.886,7.687-10.276,8.702-14.097,4.024c-2.77-3.392-3.912-13.484,5.464-14.574c1.795-0.208,3.553,0.854,5.274,1.44
		c-0.9-2.935-2.927-4.242-2.914-8.092C60.793,53.338,60.793,53.019,60.793,52.701"/>
	<path fill="#171717" d="M95.974,77.83c0.582-4.036,2.451-5.795,5.312-6.776c5.211-1.785,11.717,1.12,12.948,5.755
		c1.091,4.108-1.194,6.881-3.838,10.55c2.944-0.884,4.078-2.562,7.673-1.919c3.188,0.571,5.385,4.093,5.755,5.754
		c1.404,6.327-2.943,12.085-8.152,11.988c-2.343-0.043-3.227-1.03-4.314-1.917c-2.163-1.766-2.622-3.256-4.315-5.275
		c-0.749,1.054-0.21,2.349,0,3.357c0.275,1.321,1.055,2.269,1.438,3.355c0.429,1.211,0.521,2.688,0.96,3.837
		c0.376,0.989,1.896,1.82,0.957,2.876c-3.361-0.314-7.984,0.634-10.548-0.478c0.994-3.804,3.954-8.188,2.396-12.948
		c-0.886,7.687-10.275,8.702-14.096,4.023c-2.771-3.392-3.912-13.484,5.463-14.573c1.795-0.209,3.553,0.854,5.275,1.439
		c-0.901-2.935-2.927-4.242-2.914-8.091C95.974,78.468,95.974,78.147,95.974,77.83"/>
	<path fill="#171717" d="M131.155,52.701c0.582-4.036,2.452-5.794,5.312-6.776c5.212-1.785,11.718,1.12,12.948,5.755
		c1.091,4.108-1.193,6.881-3.838,10.55c2.946-0.884,4.078-2.562,7.673-1.92c3.188,0.572,5.385,4.093,5.755,5.755
		c1.404,6.327-2.942,12.085-8.151,11.988c-2.344-0.043-3.228-1.03-4.315-1.917c-2.163-1.766-2.622-3.257-4.313-5.276
		c-0.75,1.054-0.211,2.349,0,3.357c0.273,1.321,1.053,2.269,1.438,3.356c0.429,1.211,0.521,2.688,0.96,3.837
		c0.376,0.989,1.896,1.82,0.957,2.875c-3.361-0.314-7.983,0.634-10.548-0.478c0.995-3.804,3.954-8.188,2.397-12.948
		c-0.886,7.687-10.275,8.702-14.097,4.024c-2.77-3.392-3.912-13.484,5.463-14.574c1.796-0.208,3.555,0.854,5.275,1.44
		c-0.901-2.935-2.926-4.242-2.914-8.092C131.155,53.338,131.155,53.019,131.155,52.701"/>
	<path fill="#171717" d="M131.155,104.467c0.582-4.036,2.452-5.795,5.312-6.776c5.212-1.785,11.718,1.12,12.948,5.755
		c1.091,4.108-1.193,6.881-3.838,10.55c2.946-0.884,4.078-2.562,7.673-1.919c3.188,0.571,5.385,4.093,5.755,5.755
		c1.404,6.327-2.942,12.085-8.151,11.988c-2.344-0.043-3.228-1.03-4.315-1.917c-2.163-1.766-2.622-3.256-4.313-5.275
		c-0.75,1.054-0.211,2.349,0,3.357c0.273,1.321,1.053,2.269,1.438,3.355c0.429,1.211,0.521,2.688,0.96,3.837
		c0.376,0.989,1.896,1.821,0.957,2.876c-3.361-0.313-7.983,0.634-10.548-0.478c0.995-3.804,3.954-8.188,2.397-12.948
		c-0.886,7.687-10.275,8.702-14.097,4.024c-2.77-3.392-3.912-13.485,5.463-14.574c1.796-0.209,3.555,0.854,5.275,1.439
		c-0.901-2.935-2.926-4.242-2.914-8.091C131.155,105.104,131.155,104.785,131.155,104.467"/>
	<path fill="#171717" d="M60.793,104.97c0.582-4.037,2.451-5.795,5.313-6.777c5.211-1.785,11.717,1.121,12.948,5.755
		c1.09,4.108-1.194,6.881-3.839,10.55c2.945-0.884,4.078-2.562,7.674-1.919c3.188,0.571,5.385,4.093,5.755,5.754
		c1.403,6.327-2.944,12.085-8.152,11.988c-2.344-0.043-3.227-1.03-4.315-1.917c-2.162-1.766-2.621-3.257-4.314-5.276
		c-0.749,1.054-0.21,2.349,0,3.358c0.273,1.32,1.054,2.269,1.438,3.355c0.43,1.211,0.521,2.688,0.959,3.837
		c0.377,0.989,1.896,1.82,0.958,2.876c-3.36-0.314-7.983,0.634-10.548-0.478c0.995-3.805,3.954-8.188,2.397-12.949
		c-0.886,7.687-10.276,8.702-14.097,4.024c-2.77-3.392-3.912-13.484,5.464-14.573c1.795-0.209,3.553,0.854,5.274,1.439
		c-0.9-2.935-2.927-4.242-2.914-8.092C60.793,105.607,60.793,105.287,60.793,104.97"/>
	<path fill="#171717" d="M149.473,235.375c-0.581,4.035-2.451,5.795-5.313,6.775c-5.211,1.785-11.717-1.119-12.948-5.755
		c-1.09-4.108,1.194-6.881,3.838-10.55c-2.944,0.884-4.077,2.561-7.673,1.919c-3.188-0.571-5.385-4.093-5.755-5.755
		c-1.403-6.327,2.944-12.086,8.152-11.988c2.344,0.043,3.227,1.029,4.314,1.917c2.163,1.767,2.622,3.256,4.315,5.274
		c0.749-1.053,0.21-2.348,0-3.356c-0.274-1.321-1.054-2.269-1.438-3.354c-0.43-1.213-0.521-2.688-0.96-3.838
		c-0.377-0.988-1.896-1.82-0.958-2.875c3.361,0.313,7.984-0.634,10.549,0.479c-0.995,3.804-3.954,8.188-2.397,12.947
		c0.886-7.687,10.276-8.701,14.096-4.023c2.771,3.393,3.913,13.484-5.463,14.574c-1.795,0.209-3.553-0.854-5.274-1.439
		c0.9,2.934,2.927,4.241,2.914,8.09C149.473,234.736,149.473,235.057,149.473,235.375"/>
	<path fill="#171717" d="M114.292,210.246c-0.582,4.035-2.452,5.795-5.312,6.775c-5.211,1.785-11.717-1.12-12.948-5.755
		c-1.09-4.108,1.194-6.882,3.838-10.552c-2.945,0.885-4.078,2.563-7.673,1.92c-3.188-0.571-5.385-4.092-5.755-5.754
		c-1.404-6.328,2.944-12.086,8.152-11.988c2.344,0.043,3.227,1.029,4.314,1.918c2.163,1.766,2.622,3.256,4.315,5.275
		c0.749-1.055,0.21-2.35,0-3.357c-0.275-1.32-1.055-2.27-1.438-3.355c-0.429-1.211-0.521-2.688-0.959-3.838
		c-0.377-0.988-1.896-1.82-0.958-2.875c3.361,0.313,7.984-0.634,10.548,0.479c-0.995,3.804-3.954,8.188-2.396,12.947
		c0.886-7.687,10.275-8.701,14.096-4.023c2.771,3.393,3.913,13.484-5.463,14.574c-1.795,0.209-3.553-0.854-5.275-1.439
		c0.901,2.934,2.927,4.241,2.914,8.092C114.292,209.607,114.292,209.927,114.292,210.246"/>
	<path fill="#171717" d="M79.112,235.375c-0.582,4.035-2.452,5.795-5.313,6.775c-5.211,1.785-11.717-1.119-12.947-5.755
		c-1.091-4.108,1.193-6.881,3.838-10.55c-2.946,0.884-4.078,2.563-7.673,1.919c-3.188-0.571-5.386-4.093-5.755-5.755
		c-1.404-6.326,2.942-12.084,8.151-11.987c2.343,0.043,3.228,1.03,4.315,1.917c2.163,1.766,2.622,3.257,4.314,5.275
		c0.749-1.055,0.21-2.35,0-3.357c-0.274-1.32-1.054-2.27-1.438-3.355c-0.43-1.211-0.521-2.688-0.96-3.838
		c-0.376-0.988-1.896-1.82-0.957-2.875c3.36,0.313,7.983-0.635,10.548,0.478c-0.995,3.804-3.954,8.188-2.397,12.948
		c0.887-7.688,10.276-8.701,14.097-4.023c2.77,3.393,3.912,13.484-5.463,14.573c-1.795,0.209-3.554-0.854-5.275-1.438
		c0.901,2.934,2.926,4.241,2.914,8.09C79.112,234.737,79.112,235.057,79.112,235.375"/>
	<path fill="#171717" d="M79.112,183.608c-0.582,4.036-2.452,5.795-5.313,6.776c-5.211,1.785-11.717-1.119-12.947-5.754
		c-1.091-4.108,1.193-6.881,3.838-10.551c-2.946,0.885-4.078,2.562-7.673,1.92c-3.188-0.572-5.386-4.094-5.755-5.756
		c-1.404-6.326,2.942-12.084,8.151-11.988c2.343,0.043,3.228,1.031,4.315,1.918c2.163,1.766,2.622,3.256,4.314,5.275
		c0.749-1.054,0.21-2.35,0-3.357c-0.274-1.321-1.054-2.271-1.438-3.356c-0.43-1.211-0.521-2.688-0.96-3.837
		c-0.376-0.988-1.896-1.82-0.957-2.875c3.36,0.313,7.983-0.635,10.548,0.477c-0.995,3.805-3.954,8.188-2.397,12.949
		c0.887-7.688,10.276-8.703,14.097-4.025c2.77,3.393,3.912,13.484-5.463,14.574c-1.795,0.209-3.554-0.854-5.275-1.439
		c0.901,2.936,2.926,4.242,2.914,8.092C79.112,182.971,79.112,183.291,79.112,183.608"/>
	<path fill="#171717" d="M149.473,183.105c-0.581,4.036-2.451,5.795-5.313,6.775c-5.211,1.785-11.717-1.119-12.948-5.754
		c-1.09-4.108,1.194-6.881,3.838-10.551c-2.944,0.885-4.077,2.561-7.673,1.92c-3.188-0.572-5.385-4.094-5.755-5.756
		c-1.403-6.326,2.944-12.085,8.152-11.986c2.344,0.041,3.227,1.029,4.314,1.916c2.163,1.767,2.622,3.256,4.315,5.275
		c0.749-1.054,0.21-2.349,0-3.357c-0.274-1.32-1.054-2.269-1.438-3.355c-0.43-1.211-0.521-2.688-0.96-3.837
		c-0.377-0.989-1.896-1.819-0.958-2.875c3.361,0.313,7.984-0.634,10.549,0.478c-0.995,3.805-3.954,8.188-2.397,12.948
		c0.886-7.687,10.276-8.702,14.096-4.024c2.771,3.394,3.913,13.486-5.463,14.574c-1.795,0.209-3.553-0.854-5.274-1.438
		c0.9,2.935,2.927,4.241,2.914,8.091C149.473,182.468,149.473,182.789,149.473,183.105"/>
	<rect x="29.504" y="31.129" fill="#1F1A17" width="2.138" height="25.936"/>
</g>
</svg>
