<?xml version="1.0" encoding="utf-8"?>
<!-- Generator: Adobe Illustrator 16.0.0, SVG Export Plug-In . SVG Version: 6.00 Build 0)  -->
<!DOCTYPE svg PUBLIC "-//W3C//DTD SVG 1.1//EN" "http://www.w3.org/Graphics/SVG/1.1/DTD/svg11.dtd">
<svg version="1.1" id="Layer_1" xmlns="http://www.w3.org/2000/svg" xmlns:xlink="http://www.w3.org/1999/xlink" x="0px" y="0px"
	 width="170.657px" height="254.813px" viewBox="17.674 19.451 170.657 254.813"
	 enable-background="new 17.674 19.451 170.657 254.813" xml:space="preserve">
<g>
	<path fill="#FFFFFF" d="M25.771,19.559h154.463c4.396,0,7.989,3.595,7.989,7.989v238.618c0,4.396-3.596,7.989-7.989,7.989H25.771
		c-4.395,0-7.989-3.596-7.989-7.989V27.548C17.781,23.153,21.376,19.559,25.771,19.559z"/>
	<path fill="none" stroke="#1F1A17" stroke-width="0.216" stroke-miterlimit="10" d="M25.771,19.559h154.463
		c4.396,0,7.989,3.595,7.989,7.989v238.618c0,4.396-3.596,7.989-7.989,7.989H25.771c-4.395,0-7.989-3.596-7.989-7.989V27.548
		C17.781,23.153,21.376,19.559,25.771,19.559z"/>
	<path fill="#B32621" d="M42.151,66.847c-1.125-1.25-2.375-2-3.25-2c-0.85,0-2.928-0.206-4.684,3.387
		c-1.75-3.525-3.807-3.324-4.652-3.324c-0.875,0-2.125,0.75-3.25,2s-0.938,3.438-0.553,4.575c0.385,1.139,8.42,12.862,8.42,12.862
		s8.137-11.786,8.521-12.925C43.089,70.284,43.276,68.097,42.151,66.847"/>
	<path fill="#B32621" d="M166.245,227.901c1.125,1.25,2.375,2,3.25,2c0.851,0,2.928,0.205,4.685-3.387
		c1.747,3.524,3.807,3.324,4.651,3.324c0.875,0,2.125-0.75,3.25-2s0.938-3.438,0.553-4.576c-0.385-1.138-8.42-12.861-8.42-12.861
		s-8.137,11.787-8.521,12.925C165.307,224.465,165.12,226.651,166.245,227.901"/>
	<path fill="#B32621" d="M83.794,52.575c-2.138-2.376-4.514-3.8-6.176-3.8c-1.615,0-5.563-0.392-8.9,6.435
		c-3.323-6.697-7.232-6.316-8.839-6.316c-1.663,0-4.038,1.425-6.176,3.801c-2.138,2.375-1.781,6.531-1.05,8.694
		c0.73,2.162,15.999,24.439,15.999,24.439S84.113,63.432,84.845,61.27C85.575,59.107,85.932,54.95,83.794,52.575"/>
	<path fill="#B32621" d="M118.187,130.68c-2.14-2.375-4.515-3.8-6.176-3.8c-1.615,0-5.563-0.391-8.9,6.435
		c-3.324-6.697-7.233-6.316-8.84-6.316c-1.662,0-4.037,1.426-6.176,3.801c-2.137,2.375-1.781,6.531-1.05,8.694
		s15.999,24.438,15.999,24.438s15.462-22.396,16.193-24.559C119.967,137.212,120.325,133.056,118.187,130.68"/>
	<path fill="#B32621" d="M153.362,213.026c-2.138-2.375-4.514-3.799-6.176-3.799c-1.615,0-5.563-0.393-8.9,6.435
		c-3.322-6.697-7.232-6.315-8.839-6.315c-1.663,0-4.038,1.426-6.176,3.801s-1.782,6.53-1.051,8.693s15.999,24.439,15.999,24.439
		s15.462-22.396,16.193-24.56C155.144,219.56,155.5,215.403,153.362,213.026"/>
	<path fill="#B32621" d="M38.636,46.402c1.533,1.068,2.541,2.845,2.541,4.844v2.656c0,3.244-2.655,5.9-5.9,5.9
		c-3.246,0-5.901-2.654-5.901-5.9v-0.526h2.233c0.043,1.98,1.676,3.588,3.668,3.588c2.018,0,3.668-1.652,3.668-3.668v-1.234
		c0-2.016-1.65-3.668-3.668-3.668c-0.107,0-0.213,0.005-0.317,0.014v-3.5c0.104,0.01,0.21,0.016,0.317,0.016
		c1.875,0,3.409-1.537,3.409-3.41v-1.148c0-1.873-1.534-3.409-3.409-3.409c-1.877,0-3.41,1.534-3.41,3.409v0.004H29.79v-0.762
		c0-3.018,2.469-5.485,5.486-5.485s5.484,2.469,5.484,5.485v2.47C40.761,43.829,39.927,45.396,38.636,46.402"/>
	<path fill="#B32621" d="M171.471,245.081c-1.533-1.069-2.541-2.846-2.541-4.844v-2.656c0-3.245,2.654-5.9,5.9-5.9
		s5.9,2.654,5.9,5.9v0.525h-2.234c-0.043-1.98-1.676-3.588-3.666-3.588c-2.019,0-3.668,1.651-3.668,3.668v1.233
		c0,2.017,1.649,3.669,3.668,3.669c0.105,0,0.211-0.005,0.316-0.014v3.499c-0.105-0.011-0.211-0.015-0.316-0.015
		c-1.877,0-3.41,1.535-3.41,3.408v1.148c0,1.874,1.533,3.41,3.41,3.41c1.875,0,3.41-1.534,3.41-3.41v-0.004h2.074v0.763
		c0,3.017-2.468,5.485-5.484,5.485c-3.018,0-5.485-2.471-5.485-5.485v-2.47C169.345,247.653,170.18,246.087,171.471,245.081"/>
	<path fill="#FFFFFF" d="M25.771,19.559h154.463c4.396,0,7.989,3.595,7.989,7.989v238.618c0,4.396-3.596,7.989-7.989,7.989H25.771
		c-4.395,0-7.989-3.596-7.989-7.989V27.548C17.781,23.153,21.376,19.559,25.771,19.559z"/>
	<path fill="none" stroke="#1F1A17" stroke-width="0.216" stroke-miterlimit="10" d="M25.771,19.559h154.463
		c4.396,0,7.989,3.595,7.989,7.989v238.618c0,4.396-3.596,7.989-7.989,7.989H25.771c-4.395,0-7.989-3.596-7.989-7.989V27.548
		C17.781,23.153,21.376,19.559,25.771,19.559z"/>
	<path fill="#171717" d="M29.416,67.414c0.292-2.021,1.228-2.901,2.659-3.393c2.608-0.894,5.865,0.561,6.481,2.881
		c0.546,2.057-0.598,3.444-1.921,5.281c1.475-0.442,2.041-1.282,3.841-0.961c1.596,0.286,2.695,2.049,2.881,2.881
		c0.703,3.167-1.474,6.05-4.081,6.001c-1.173-0.021-1.615-0.516-2.16-0.96c-1.083-0.884-1.313-1.63-2.16-2.641
		c-0.375,0.527-0.105,1.176,0,1.681c0.138,0.661,0.527,1.136,0.72,1.68c0.215,0.605,0.261,1.346,0.48,1.921
		c0.188,0.495,0.949,0.911,0.479,1.439c-1.683-0.157-3.997,0.317-5.28-0.239c0.498-1.904,1.979-4.099,1.2-6.481
		c-0.443,3.848-5.145,4.355-7.057,2.015c-1.386-1.698-1.958-6.751,2.735-7.296c0.898-0.104,1.778,0.428,2.641,0.721
		c-0.451-1.469-1.465-2.123-1.459-4.051C29.416,67.732,29.416,67.572,29.416,67.414"/>
	<path fill="#171717" d="M178.64,225.69c-0.292,2.021-1.228,2.901-2.66,3.394c-2.606,0.894-5.864-0.562-6.479-2.881
		c-0.547-2.058,0.598-3.444,1.92-5.281c-1.476,0.442-2.041,1.282-3.84,0.961c-1.597-0.286-2.695-2.049-2.881-2.881
		c-0.703-3.167,1.473-6.05,4.079-6.001c1.175,0.021,1.615,0.516,2.161,0.96c1.083,0.884,1.313,1.63,2.159,2.642
		c0.375-0.527,0.104-1.177,0-1.682c-0.138-0.661-0.527-1.136-0.72-1.68c-0.215-0.606-0.262-1.346-0.479-1.922
		c-0.188-0.494-0.948-0.91-0.479-1.438c1.684,0.157,3.998-0.317,5.281,0.239c-0.498,1.904-1.98,4.099-1.201,6.48
		c0.442-3.848,5.145-4.355,7.057-2.015c1.387,1.698,1.959,6.751-2.734,7.296c-0.898,0.104-1.779-0.428-2.641-0.721
		c0.451,1.469,1.465,2.123,1.459,4.051C178.64,225.373,178.64,225.533,178.64,225.69"/>
	<path fill="#171717" d="M58.017,56.176c0.57-3.957,2.403-5.681,5.207-6.644c5.108-1.749,11.486,1.099,12.692,5.643
		c1.069,4.027-1.17,6.745-3.762,10.342c2.888-0.866,3.997-2.511,7.522-1.882c3.124,0.561,5.277,4.013,5.641,5.642
		c1.377,6.202-2.886,11.848-7.992,11.752c-2.297-0.042-3.162-1.01-4.23-1.88c-2.12-1.73-2.57-3.191-4.229-5.171
		c-0.734,1.033-0.206,2.303,0,3.291c0.269,1.295,1.032,2.225,1.409,3.29c0.421,1.187,0.512,2.635,0.941,3.761
		c0.369,0.97,1.859,1.785,0.938,2.819c-3.296-0.308-7.827,0.621-10.341-0.468c0.977-3.729,3.877-8.027,2.352-12.693
		c-0.869,7.535-10.074,8.53-13.818,3.944c-2.715-3.325-3.836-13.219,5.355-14.287c1.76-0.204,3.482,0.838,5.172,1.412
		c-0.885-2.877-2.869-4.158-2.857-7.933C58.017,56.801,58.017,56.487,58.017,56.176"/>
	<path fill="#171717" d="M148.356,240.476c-0.57,3.957-2.404,5.683-5.207,6.645c-5.109,1.749-11.486-1.1-12.693-5.643
		c-1.068-4.027,1.17-6.746,3.762-10.343c-2.887,0.866-3.996,2.511-7.521,1.882c-3.125-0.561-5.278-4.013-5.642-5.642
		c-1.376-6.202,2.886-11.849,7.99-11.752c2.299,0.042,3.164,1.01,4.231,1.88c2.12,1.73,2.57,3.191,4.229,5.171
		c0.734-1.032,0.207-2.303,0-3.291c-0.271-1.295-1.032-2.225-1.409-3.289c-0.421-1.188-0.511-2.636-0.94-3.762
		c-0.369-0.97-1.859-1.785-0.939-2.819c3.296,0.309,7.828-0.621,10.341,0.469c-0.976,3.729-3.875,8.026-2.351,12.692
		c0.869-7.534,10.074-8.53,13.818-3.944c2.715,3.326,3.836,13.22-5.355,14.287c-1.76,0.205-3.482-0.838-5.172-1.412
		c0.885,2.877,2.869,4.16,2.857,7.934C148.356,239.851,148.356,240.164,148.356,240.476"/>
	<path fill="#1F1A17" d="M34.042,35.162L34.042,35.162c-3.018,0-5.485,2.47-5.486,5.485v0.008h2.16
		c0.345-1.517,1.708-2.659,3.326-2.659c1.875,0,3.409,1.534,3.409,3.409c0,0.968-0.272,1.433-0.694,2.313l-8.201,17.066l0.914,0.006
		l0.184,0.101l0.055-0.1l7.677,0.046h2.137h0.005v-2.613h-0.005V55.16h-2.137v3.063H32.57l-0.009,0.009l-0.328,0.045L38.676,45.1
		c0.855-1.747,1.039-2.887,0.906-4.453c-0.049-0.561-0.141-1.106-0.301-1.618l-0.004-0.077l-0.012,0.023
		C38.554,36.77,36.477,35.162,34.042,35.162"/>
	<path fill="#1F1A17" d="M174.857,257.399L174.857,257.399c3.019,0,5.485-2.469,5.485-5.484v-0.008h-2.16
		c-0.344,1.517-1.707,2.658-3.325,2.658c-1.876,0-3.409-1.533-3.409-3.409c0-0.968,0.271-1.433,0.693-2.313l8.201-17.067
		l-0.914-0.004l-0.184-0.102l-0.056,0.1l-7.676-0.045h-2.138h-0.006v2.612h0.006v3.063h2.138v-3.063l4.815-0.001l0.008-0.009
		l0.328-0.045l-6.442,13.177c-0.854,1.748-1.039,2.887-0.904,4.454c0.048,0.56,0.14,1.106,0.3,1.618l0.004,0.076l0.012-0.023
		C170.346,255.793,172.422,257.399,174.857,257.399"/>
</g>
</svg>
