<?xml version="1.0" encoding="utf-8"?>
<!-- Generator: Adobe Illustrator 16.0.0, SVG Export Plug-In . SVG Version: 6.00 Build 0)  -->
<!DOCTYPE svg PUBLIC "-//W3C//DTD SVG 1.1//EN" "http://www.w3.org/Graphics/SVG/1.1/DTD/svg11.dtd">
<svg version="1.1" id="Layer_1" xmlns="http://www.w3.org/2000/svg" xmlns:xlink="http://www.w3.org/1999/xlink" x="0px" y="0px"
	 width="170.657px" height="254.813px" viewBox="11.188 14.405 170.657 254.813"
	 enable-background="new 11.188 14.405 170.657 254.813" xml:space="preserve">
<g>
	<path fill="#FFFFFF" d="M19.285,14.513h154.461c4.396,0,7.99,3.595,7.99,7.989v238.619c0,4.395-3.596,7.989-7.99,7.989H19.285
		c-4.394,0-7.989-3.596-7.989-7.989V22.502C11.296,18.108,14.891,14.513,19.285,14.513z"/>
	<path fill="none" stroke="#1F1A17" stroke-width="0.216" stroke-miterlimit="10" d="M19.285,14.513h154.461
		c4.396,0,7.99,3.595,7.99,7.989v238.619c0,4.395-3.596,7.989-7.99,7.989H19.285c-4.394,0-7.989-3.596-7.989-7.989V22.502
		C11.296,18.108,14.891,14.513,19.285,14.513z"/>
	<path fill="#171717" d="M22.931,62.368c0.292-2.021,1.228-2.901,2.659-3.393c2.608-0.894,5.865,0.561,6.481,2.881
		c0.546,2.057-0.598,3.444-1.921,5.281c1.475-0.442,2.041-1.282,3.841-0.961c1.596,0.286,2.695,2.049,2.881,2.881
		c0.703,3.167-1.474,6.05-4.081,6.001c-1.173-0.021-1.615-0.516-2.16-0.96c-1.083-0.884-1.313-1.63-2.16-2.641
		c-0.375,0.527-0.105,1.176,0,1.681c0.138,0.661,0.527,1.136,0.72,1.68c0.215,0.606,0.261,1.346,0.48,1.921
		c0.188,0.495,0.949,0.911,0.479,1.438c-1.683-0.157-3.997,0.317-5.28-0.239c0.498-1.904,1.979-4.099,1.2-6.481
		c-0.443,3.848-5.144,4.356-7.056,2.014c-1.386-1.698-1.958-6.75,2.735-7.295c0.898-0.104,1.778,0.428,2.641,0.721
		c-0.451-1.469-1.465-2.123-1.459-4.05C22.931,62.687,22.931,62.527,22.931,62.368"/>
	<path fill="#171717" d="M172.154,220.646c-0.291,2.02-1.228,2.9-2.659,3.393c-2.607,0.894-5.865-0.562-6.48-2.881
		c-0.547-2.058,0.598-3.445,1.921-5.281c-1.476,0.441-2.041,1.281-3.841,0.961c-1.596-0.287-2.695-2.049-2.881-2.881
		c-0.703-3.168,1.475-6.051,4.08-6.002c1.174,0.021,1.615,0.517,2.162,0.961c1.082,0.883,1.312,1.629,2.158,2.641
		c0.375-0.527,0.105-1.176,0-1.682c-0.138-0.66-0.527-1.135-0.72-1.68c-0.215-0.605-0.261-1.346-0.479-1.921
		c-0.188-0.495-0.949-0.911-0.479-1.438c1.683,0.156,3.997-0.317,5.28,0.238c-0.498,1.904-1.979,4.1-1.2,6.481
		c0.442-3.849,5.144-4.354,7.056-2.015c1.387,1.697,1.959,6.75-2.734,7.295c-0.897,0.104-1.777-0.428-2.641-0.721
		c0.451,1.469,1.465,2.123,1.459,4.051C172.154,220.328,172.154,220.487,172.154,220.646"/>
	<path fill="#171717" d="M51.531,51.13c0.57-3.957,2.404-5.681,5.208-6.643c5.108-1.75,11.486,1.098,12.692,5.642
		c1.069,4.027-1.17,6.745-3.762,10.342c2.888-0.866,3.998-2.51,7.522-1.882c3.125,0.561,5.278,4.013,5.642,5.642
		c1.376,6.202-2.886,11.847-7.992,11.751c-2.297-0.042-3.163-1.009-4.23-1.879c-2.121-1.731-2.57-3.192-4.23-5.171
		c-0.734,1.033-0.207,2.303,0,3.291c0.269,1.295,1.032,2.225,1.409,3.29c0.421,1.187,0.511,2.635,0.941,3.761
		c0.37,0.97,1.859,1.785,0.939,2.819c-3.295-0.308-7.827,0.622-10.34-0.468c0.976-3.729,3.876-8.027,2.351-12.693
		c-0.868,7.535-10.074,8.53-13.818,3.944c-2.715-3.325-3.835-13.219,5.355-14.287c1.76-0.204,3.483,0.838,5.172,1.412
		c-0.884-2.876-2.869-4.158-2.857-7.932C51.531,51.755,51.531,51.441,51.531,51.13"/>
	<path fill="#171717" d="M123.232,50.46c0.571-3.957,2.404-5.681,5.208-6.643c5.107-1.75,11.484,1.098,12.691,5.642
		c1.07,4.027-1.17,6.745-3.762,10.342c2.889-0.867,3.998-2.511,7.521-1.882c3.125,0.561,5.279,4.012,5.643,5.642
		c1.377,6.202-2.887,11.848-7.992,11.752c-2.297-0.042-3.164-1.01-4.229-1.879c-2.121-1.731-2.569-3.192-4.229-5.171
		c-0.734,1.033-0.207,2.302,0,3.291c0.27,1.295,1.033,2.224,1.41,3.29c0.42,1.188,0.51,2.635,0.939,3.762
		c0.369,0.97,1.857,1.785,0.938,2.819c-3.295-0.308-7.826,0.622-10.34-0.468c0.975-3.729,3.877-8.027,2.35-12.693
		c-0.866,7.535-10.072,8.53-13.817,3.944c-2.714-3.325-3.835-13.219,5.354-14.287c1.762-0.204,3.483,0.838,5.172,1.412
		c-0.883-2.876-2.868-4.158-2.856-7.932C123.232,51.085,123.232,50.771,123.232,50.46"/>
	<path fill="#171717" d="M51.531,129.669c0.57-3.957,2.404-5.681,5.208-6.643c5.108-1.75,11.486,1.098,12.692,5.642
		c1.069,4.026-1.17,6.745-3.762,10.341c2.888-0.865,3.998-2.51,7.522-1.881c3.125,0.561,5.278,4.013,5.642,5.642
		c1.376,6.202-2.886,11.849-7.992,11.752c-2.297-0.042-3.163-1.01-4.23-1.88c-2.121-1.73-2.57-3.191-4.23-5.171
		c-0.734,1.032-0.207,2.303,0,3.29c0.269,1.296,1.032,2.226,1.409,3.291c0.421,1.188,0.511,2.635,0.941,3.761
		c0.37,0.972,1.859,1.785,0.939,2.819c-3.295-0.309-7.827,0.621-10.34-0.469c0.976-3.729,3.876-8.027,2.351-12.692
		c-0.868,7.534-10.074,8.53-13.818,3.944c-2.715-3.326-3.835-13.22,5.355-14.288c1.76-0.204,3.483,0.838,5.172,1.413
		c-0.884-2.877-2.869-4.159-2.857-7.934C51.531,130.294,51.531,129.98,51.531,129.669"/>
	<path fill="#171717" d="M123.902,130.339c0.571-3.957,2.404-5.681,5.209-6.643c5.106-1.75,11.485,1.098,12.69,5.642
		c1.07,4.027-1.17,6.745-3.762,10.343c2.89-0.867,3.998-2.512,7.521-1.883c3.125,0.561,5.279,4.013,5.643,5.643
		c1.377,6.202-2.887,11.848-7.992,11.751c-2.297-0.042-3.162-1.01-4.229-1.879c-2.121-1.731-2.569-3.192-4.229-5.172
		c-0.734,1.032-0.207,2.303,0,3.291c0.27,1.295,1.033,2.226,1.41,3.29c0.42,1.188,0.51,2.635,0.939,3.762
		c0.369,0.971,1.859,1.784,0.938,2.818c-3.295-0.309-7.826,0.621-10.34-0.469c0.977-3.729,3.877-8.026,2.352-12.692
		c-0.868,7.534-10.073,8.53-13.819,3.944c-2.714-3.326-3.834-13.219,5.356-14.288c1.76-0.204,3.481,0.838,5.17,1.413
		c-0.883-2.877-2.867-4.159-2.856-7.933C123.902,130.964,123.902,130.65,123.902,130.339"/>
	<path fill="#171717" d="M141.861,231.816c-0.569,3.956-2.403,5.682-5.207,6.643c-5.108,1.75-11.485-1.099-12.692-5.642
		c-1.068-4.026,1.17-6.745,3.762-10.343c-2.887,0.867-3.996,2.511-7.521,1.882c-3.125-0.562-5.277-4.013-5.642-5.642
		c-1.376-6.202,2.886-11.848,7.991-11.752c2.299,0.043,3.164,1.01,4.232,1.879c2.118,1.73,2.568,3.193,4.229,5.173
		c0.734-1.033,0.207-2.304,0-3.292c-0.27-1.295-1.031-2.225-1.408-3.289c-0.422-1.188-0.512-2.635-0.941-3.762
		c-0.369-0.971-1.858-1.785-0.938-2.818c3.296,0.307,7.827-0.622,10.341,0.469c-0.977,3.729-3.876,8.025-2.352,12.692
		c0.869-7.535,10.074-8.531,13.818-3.945c2.715,3.325,3.836,13.22-5.355,14.287c-1.76,0.204-3.481-0.838-5.172-1.411
		c0.886,2.877,2.869,4.158,2.857,7.932C141.861,231.19,141.861,231.503,141.861,231.816"/>
	<path fill="#171717" d="M70.159,232.486c-0.57,3.957-2.403,5.682-5.208,6.643c-5.108,1.75-11.486-1.098-12.692-5.642
		c-1.069-4.026,1.17-6.745,3.762-10.343c-2.888,0.867-3.998,2.512-7.521,1.883c-3.125-0.563-5.279-4.013-5.642-5.643
		c-1.376-6.202,2.886-11.848,7.992-11.752c2.297,0.043,3.163,1.01,4.23,1.879c2.121,1.732,2.57,3.193,4.23,5.173
		c0.734-1.033,0.207-2.304,0-3.292c-0.269-1.295-1.032-2.225-1.409-3.289c-0.421-1.188-0.511-2.635-0.941-3.762
		c-0.37-0.971-1.859-1.784-0.939-2.818c3.295,0.309,7.827-0.622,10.34,0.469c-0.976,3.729-3.876,8.025-2.351,12.692
		c0.868-7.535,10.074-8.53,13.818-3.944c2.715,3.324,3.835,13.219-5.355,14.287c-1.76,0.204-3.483-0.838-5.172-1.412
		c0.884,2.877,2.869,4.158,2.857,7.932C70.159,231.861,70.159,232.175,70.159,232.486"/>
	<path fill="#1F1A17" d="M26.837,45.093L26.837,45.093c2.018,0,3.668,1.652,3.668,3.668v1.235c0,2.015-1.65,3.668-3.668,3.668
		s-3.668-1.651-3.668-3.668v-1.235C23.169,46.744,24.819,45.093,26.837,45.093 M26.837,33.654L26.837,33.654
		c1.875,0,3.41,1.536,3.41,3.41v1.148c0,1.874-1.534,3.41-3.41,3.41s-3.41-1.535-3.41-3.41v-1.148
		C23.427,35.188,24.961,33.654,26.837,33.654z M30.197,43.102c1.533,1.069,2.541,2.845,2.541,4.844v2.656
		c0,3.245-2.655,5.901-5.9,5.901s-5.9-2.655-5.9-5.901v-2.656c0-2,1.008-3.775,2.54-4.844c-1.291-1.006-2.125-2.573-2.125-4.326
		v-2.47c0-3.017,2.468-5.485,5.485-5.485s5.485,2.47,5.485,5.485v2.47C32.322,40.528,31.488,42.096,30.197,43.102z"/>
	<path fill="#1F1A17" d="M167.57,238.453L167.57,238.453c-2.019,0-3.668-1.652-3.668-3.668v-1.236c0-2.014,1.649-3.668,3.668-3.668
		s3.668,1.652,3.668,3.668v1.236C171.238,236.802,169.586,238.453,167.57,238.453 M167.57,249.891L167.57,249.891
		c-1.875,0-3.409-1.536-3.409-3.41v-1.147c0-1.873,1.534-3.41,3.409-3.41c1.876,0,3.41,1.535,3.41,3.41v1.147
		C170.98,248.356,169.446,249.891,167.57,249.891z M164.209,240.443c-1.533-1.068-2.541-2.845-2.541-4.844v-2.656
		c0-3.244,2.654-5.9,5.9-5.9s5.9,2.654,5.9,5.9v2.656c0,2-1.008,3.775-2.54,4.844c1.29,1.006,2.125,2.572,2.125,4.326v2.471
		c0,3.018-2.468,5.484-5.485,5.484s-5.484-2.469-5.484-5.484v-2.471C162.084,243.017,162.918,241.449,164.209,240.443z"/>
	<path fill="#171717" d="M87.719,88.655c0.571-3.957,2.404-5.681,5.208-6.643c5.108-1.75,11.486,1.098,12.693,5.642
		c1.068,4.027-1.17,6.745-3.763,10.342c2.888-0.866,3.998-2.511,7.522-1.882c3.123,0.561,5.277,4.013,5.642,5.642
		c1.377,6.202-2.888,11.848-7.992,11.752c-2.297-0.042-3.163-1.01-4.229-1.88c-2.121-1.73-2.57-3.191-4.23-5.171
		c-0.734,1.033-0.207,2.302,0,3.291c0.269,1.296,1.032,2.225,1.41,3.29c0.42,1.188,0.512,2.635,0.941,3.762
		c0.369,0.969,1.858,1.784,0.938,2.818c-3.295-0.308-7.827,0.621-10.34-0.468c0.976-3.729,3.876-8.027,2.351-12.693
		c-0.868,7.535-10.074,8.53-13.818,3.944c-2.715-3.324-3.835-13.219,5.355-14.287c1.76-0.204,3.483,0.838,5.172,1.412
		c-0.884-2.876-2.869-4.158-2.857-7.932C87.719,89.28,87.719,88.967,87.719,88.655"/>
	<path fill="#171717" d="M105.678,194.563c-0.571,3.957-2.404,5.681-5.208,6.644c-5.108,1.75-11.486-1.099-12.693-5.643
		c-1.069-4.027,1.17-6.745,3.762-10.343c-2.888,0.866-3.998,2.511-7.522,1.883c-3.125-0.562-5.278-4.013-5.642-5.644
		c-1.376-6.201,2.886-11.848,7.992-11.752c2.297,0.043,3.164,1.01,4.231,1.881c2.121,1.73,2.57,3.191,4.23,5.172
		c0.734-1.033,0.207-2.303,0-3.293c-0.269-1.295-1.033-2.223-1.41-3.288c-0.42-1.188-0.511-2.636-0.941-3.763
		c-0.369-0.969-1.859-1.783-0.938-2.817c3.295,0.308,7.827-0.622,10.34,0.468c-0.976,3.729-3.876,8.025-2.351,12.693
		c0.868-7.535,10.074-8.53,13.818-3.944c2.715,3.324,3.836,13.22-5.354,14.287c-1.76,0.203-3.482-0.838-5.172-1.412
		c0.885,2.877,2.869,4.158,2.857,7.933C105.678,193.938,105.678,194.251,105.678,194.563"/>
</g>
</svg>
