<?xml version="1.0" encoding="utf-8"?>
<!-- Generator: Adobe Illustrator 16.0.0, SVG Export Plug-In . SVG Version: 6.00 Build 0)  -->
<!DOCTYPE svg PUBLIC "-//W3C//DTD SVG 1.1//EN" "http://www.w3.org/Graphics/SVG/1.1/DTD/svg11.dtd">
<svg version="1.1" id="Layer_1" xmlns="http://www.w3.org/2000/svg" xmlns:xlink="http://www.w3.org/1999/xlink" x="0px" y="0px"
	 width="170.657px" height="254.814px" viewBox="19.882 16.725 170.657 254.814"
	 enable-background="new 19.882 16.725 170.657 254.814" xml:space="preserve">
<g>
	<path fill="#FFFFFF" d="M27.979,16.833h154.462c4.396,0,7.99,3.597,7.99,7.989V263.44c0,4.395-3.597,7.99-7.99,7.99H27.979
		c-4.394,0-7.989-3.597-7.989-7.99V24.822C19.99,20.429,23.585,16.833,27.979,16.833z"/>
	<path fill="none" stroke="#1F1A17" stroke-width="0.216" stroke-miterlimit="10" d="M27.979,16.833h154.462
		c4.396,0,7.99,3.597,7.99,7.989V263.44c0,4.395-3.597,7.99-7.99,7.99H27.979c-4.394,0-7.989-3.597-7.989-7.99V24.822
		C19.99,20.429,23.585,16.833,27.979,16.833z"/>
	<path fill="#171717" d="M31.625,64.688c0.292-2.021,1.228-2.901,2.659-3.394c2.608-0.894,5.865,0.562,6.481,2.881
		c0.546,2.058-0.598,3.444-1.921,5.281c1.475-0.441,2.041-1.282,3.841-0.961c1.596,0.286,2.695,2.049,2.881,2.881
		c0.703,3.167-1.474,6.05-4.081,6.001c-1.173-0.021-1.615-0.516-2.16-0.96c-1.083-0.884-1.313-1.63-2.16-2.641
		c-0.375,0.527-0.105,1.176,0,1.681c0.138,0.661,0.527,1.136,0.72,1.681c0.215,0.605,0.261,1.346,0.48,1.921
		c0.188,0.495,0.949,0.91,0.479,1.438c-1.683-0.157-3.997,0.317-5.28-0.239c0.498-1.903,1.979-4.099,1.2-6.48
		c-0.443,3.848-5.144,4.355-7.056,2.015c-1.386-1.698-1.958-6.75,2.735-7.296c0.898-0.104,1.778,0.428,2.641,0.721
		c-0.451-1.469-1.465-2.123-1.459-4.05C31.625,65.008,31.625,64.848,31.625,64.688"/>
	<path fill="#171717" d="M180.848,222.967c-0.291,2.021-1.227,2.9-2.659,3.393c-2.608,0.894-5.864-0.562-6.481-2.881
		c-0.545-2.058,0.599-3.444,1.922-5.281c-1.476,0.442-2.041,1.282-3.842,0.961c-1.596-0.286-2.695-2.049-2.881-2.881
		c-0.703-3.167,1.475-6.05,4.081-6.001c1.173,0.021,1.615,0.516,2.161,0.96c1.082,0.884,1.313,1.63,2.159,2.641
		c0.375-0.526,0.104-1.176,0-1.681c-0.138-0.661-0.526-1.136-0.72-1.68c-0.215-0.606-0.262-1.347-0.48-1.922
		c-0.188-0.494-0.949-0.91-0.479-1.438c1.683,0.157,3.996-0.317,5.279,0.239c-0.498,1.903-1.979,4.099-1.199,6.48
		c0.442-3.848,5.144-4.354,7.056-2.014c1.387,1.697,1.959,6.75-2.733,7.295c-0.898,0.104-1.779-0.428-2.642-0.721
		c0.45,1.469,1.465,2.124,1.459,4.051C180.848,222.647,180.848,222.808,180.848,222.967"/>
	<path fill="#171717" d="M60.225,53.45c0.57-3.957,2.404-5.681,5.208-6.643c5.108-1.75,11.486,1.098,12.692,5.642
		c1.069,4.027-1.17,6.745-3.762,10.342c2.888-0.866,3.998-2.511,7.522-1.882c3.125,0.561,5.278,4.013,5.642,5.642
		c1.376,6.203-2.886,11.849-7.992,11.752c-2.297-0.042-3.163-1.01-4.23-1.879c-2.121-1.73-2.57-3.191-4.23-5.172
		c-0.734,1.033-0.207,2.304,0,3.291c0.269,1.295,1.032,2.226,1.409,3.29c0.421,1.188,0.511,2.635,0.941,3.762
		c0.37,0.971,1.859,1.784,0.939,2.818c-3.295-0.308-7.827,0.622-10.34-0.468C65,80.216,67.9,75.918,66.375,71.252
		c-0.868,7.535-10.074,8.53-13.818,3.944c-2.715-3.325-3.835-13.219,5.355-14.287c1.76-0.204,3.483,0.838,5.172,1.412
		c-0.884-2.877-2.869-4.158-2.857-7.933C60.225,54.075,60.225,53.762,60.225,53.45"/>
	<path fill="#171717" d="M131.926,52.78c0.572-3.957,2.404-5.681,5.209-6.643c5.107-1.75,11.486,1.098,12.693,5.642
		c1.068,4.027-1.17,6.745-3.763,10.342c2.888-0.866,3.998-2.511,7.521-1.882c3.125,0.561,5.279,4.013,5.644,5.642
		c1.376,6.202-2.888,11.849-7.992,11.752c-2.297-0.042-3.163-1.01-4.231-1.88c-2.12-1.729-2.569-3.19-4.229-5.171
		c-0.734,1.033-0.207,2.303,0,3.291c0.27,1.295,1.032,2.226,1.409,3.29c0.42,1.188,0.511,2.635,0.94,3.761
		c0.369,0.972,1.859,1.785,0.938,2.819c-3.295-0.308-7.827,0.621-10.34-0.468c0.976-3.729,3.876-8.027,2.351-12.693
		c-0.869,7.535-10.074,8.53-13.818,3.944c-2.715-3.325-3.836-13.219,5.354-14.287c1.761-0.204,3.483,0.838,5.173,1.412
		c-0.885-2.877-2.869-4.158-2.857-7.934C131.926,53.405,131.926,53.092,131.926,52.78"/>
	<path fill="#171717" d="M150.556,234.136c-0.571,3.956-2.404,5.682-5.208,6.644c-5.107,1.75-11.486-1.098-12.693-5.642
		c-1.068-4.027,1.17-6.745,3.762-10.344c-2.888,0.867-3.996,2.512-7.521,1.883c-3.125-0.562-5.278-4.013-5.642-5.643
		c-1.377-6.202,2.886-11.847,7.992-11.752c2.297,0.043,3.162,1.01,4.23,1.88c2.12,1.731,2.57,3.192,4.229,5.172
		c0.734-1.033,0.207-2.303,0-3.292c-0.269-1.295-1.031-2.224-1.408-3.289c-0.422-1.188-0.512-2.635-0.941-3.762
		c-0.369-0.97-1.859-1.784-0.939-2.818c3.295,0.309,7.828-0.622,10.34,0.469c-0.975,3.729-3.875,8.025-2.35,12.692
		c0.868-7.535,10.073-8.529,13.817-3.944c2.715,3.324,3.836,13.22-5.354,14.287c-1.761,0.203-3.482-0.838-5.172-1.411
		c0.885,2.877,2.869,4.157,2.857,7.932C150.556,233.511,150.556,233.825,150.556,234.136"/>
	<path fill="#171717" d="M78.854,234.807c-0.57,3.957-2.403,5.681-5.208,6.643c-5.108,1.75-11.486-1.098-12.692-5.642
		c-1.069-4.027,1.17-6.745,3.762-10.343c-2.888,0.866-3.998,2.512-7.521,1.883c-3.125-0.562-5.279-4.014-5.642-5.644
		c-1.376-6.202,2.886-11.847,7.992-11.751c2.297,0.042,3.163,1.009,4.23,1.879c2.121,1.731,2.57,3.192,4.23,5.172
		c0.734-1.032,0.207-2.303,0-3.291c-0.269-1.296-1.032-2.225-1.409-3.29c-0.421-1.188-0.511-2.635-0.941-3.762
		c-0.37-0.97-1.859-1.784-0.939-2.818c3.295,0.309,7.827-0.621,10.34,0.469c-0.976,3.729-3.876,8.026-2.351,12.692
		c0.868-7.534,10.074-8.529,13.818-3.943c2.715,3.323,3.835,13.219-5.355,14.287c-1.76,0.203-3.483-0.839-5.172-1.412
		c0.884,2.877,2.869,4.157,2.857,7.932C78.854,234.182,78.854,234.495,78.854,234.807"/>
	<polygon fill="#1F1A17" points="32.088,55.366 31.431,55.366 29.146,55.366 35.983,33.212 38.183,33.212 32.428,52.754 
		35.802,52.754 35.802,48.478 37.939,48.478 37.939,52.759 41.61,52.759 41.61,55.366 41.604,55.366 39.468,55.366 37.939,55.366 
		37.939,58.951 35.802,58.951 35.802,55.366 	"/>
	<polygon fill="#1F1A17" points="180.258,233.324 180.917,233.324 183.2,233.324 176.364,255.479 174.165,255.479 179.918,235.937 
		176.545,235.937 176.545,240.213 174.409,240.213 174.409,235.932 170.737,235.932 170.737,233.324 170.743,233.324 
		172.879,233.324 174.409,233.324 174.409,229.739 176.545,229.739 176.545,233.324 	"/>
</g>
</svg>
