<?xml version="1.0" encoding="utf-8"?>
<!-- Generator: Adobe Illustrator 16.0.0, SVG Export Plug-In . SVG Version: 6.00 Build 0)  -->
<!DOCTYPE svg PUBLIC "-//W3C//DTD SVG 1.1//EN" "http://www.w3.org/Graphics/SVG/1.1/DTD/svg11.dtd">
<svg version="1.1" id="Layer_1" xmlns="http://www.w3.org/2000/svg" xmlns:xlink="http://www.w3.org/1999/xlink" x="0px" y="0px"
	 width="170.657px" height="254.812px" viewBox="18.747 21.39 170.657 254.812"
	 enable-background="new 18.747 21.39 170.657 254.812" xml:space="preserve">
<g>
	<path fill="#FFFFFF" d="M26.844,21.498h154.463c4.395,0,7.988,3.595,7.988,7.989v238.619c0,4.395-3.594,7.988-7.988,7.988H26.844
		c-4.395,0-7.989-3.595-7.989-7.988V29.487C18.854,25.093,22.449,21.498,26.844,21.498z"/>
	<path fill="none" stroke="#1F1A17" stroke-width="0.216" stroke-miterlimit="10" d="M26.844,21.498h154.463
		c4.395,0,7.988,3.595,7.988,7.989v238.619c0,4.395-3.594,7.988-7.988,7.988H26.844c-4.395,0-7.989-3.595-7.989-7.988V29.487
		C18.854,25.093,22.449,21.498,26.844,21.498z"/>
	<path fill="#171717" d="M30.489,69.354c0.291-2.021,1.228-2.901,2.659-3.393c2.608-0.894,5.865,0.561,6.481,2.881
		c0.546,2.057-0.598,3.444-1.921,5.281c1.475-0.442,2.041-1.282,3.841-0.961c1.596,0.286,2.695,2.049,2.881,2.881
		c0.703,3.167-1.474,6.05-4.081,6.001c-1.173-0.021-1.615-0.516-2.16-0.96c-1.083-0.884-1.313-1.63-2.16-2.641
		c-0.375,0.527-0.105,1.176,0,1.681c0.138,0.661,0.527,1.136,0.72,1.68c0.215,0.606,0.261,1.346,0.48,1.921
		c0.188,0.495,0.949,0.911,0.479,1.439c-1.683-0.157-3.997,0.317-5.28-0.239c0.498-1.904,1.979-4.099,1.2-6.481
		c-0.443,3.848-5.145,4.355-7.057,2.014c-1.386-1.697-1.958-6.75,2.735-7.295c0.898-0.104,1.778,0.428,2.641,0.721
		c-0.451-1.469-1.465-2.123-1.459-4.051C30.489,69.672,30.489,69.512,30.489,69.354"/>
	<path fill="#171717" d="M179.711,227.631c-0.291,2.021-1.227,2.901-2.658,3.393c-2.608,0.895-5.865-0.561-6.481-2.881
		c-0.546-2.057,0.599-3.443,1.923-5.281c-1.476,0.443-2.043,1.283-3.843,0.962c-1.595-0.286-2.694-2.05-2.881-2.882
		c-0.702-3.166,1.476-6.049,4.082-6c1.173,0.021,1.614,0.516,2.16,0.959c1.082,0.885,1.313,1.631,2.159,2.642
		c0.375-0.526,0.104-1.176,0-1.681c-0.137-0.661-0.526-1.137-0.721-1.68c-0.215-0.606-0.261-1.347-0.479-1.922
		c-0.188-0.494-0.949-0.91-0.479-1.438c1.684,0.157,3.996-0.317,5.279,0.239c-0.498,1.903-1.979,4.099-1.199,6.48
		c0.442-3.848,5.145-4.355,7.057-2.016c1.386,1.699,1.959,6.752-2.734,7.297c-0.898,0.104-1.779-0.428-2.643-0.721
		c0.453,1.469,1.466,2.123,1.459,4.051C179.711,227.313,179.711,227.473,179.711,227.631"/>
	<path fill="#171717" d="M59.089,58.115c0.571-3.957,2.404-5.681,5.208-6.643c5.108-1.75,11.485,1.098,12.692,5.642
		c1.069,4.026-1.17,6.745-3.762,10.342c2.888-0.866,3.997-2.511,7.521-1.882c3.125,0.561,5.279,4.013,5.642,5.642
		c1.377,6.202-2.886,11.848-7.991,11.752c-2.298-0.042-3.164-1.01-4.231-1.88c-2.12-1.73-2.569-3.191-4.229-5.171
		c-0.734,1.033-0.207,2.302,0,3.291c0.269,1.295,1.032,2.225,1.409,3.29c0.421,1.188,0.511,2.635,0.941,3.761
		c0.369,0.97,1.858,1.785,0.938,2.819c-3.295-0.308-7.827,0.621-10.34-0.468c0.975-3.729,3.876-8.027,2.35-12.693
		c-0.868,7.535-10.073,8.53-13.818,3.944c-2.714-3.325-3.835-13.219,5.355-14.287c1.76-0.204,3.483,0.838,5.172,1.412
		c-0.884-2.877-2.869-4.158-2.857-7.933C59.089,58.74,59.089,58.427,59.089,58.115"/>
	<path fill="#171717" d="M130.792,57.445c0.569-3.957,2.402-5.682,5.207-6.644c5.107-1.75,11.485,1.099,12.692,5.642
		c1.069,4.027-1.171,6.745-3.762,10.343c2.888-0.866,3.997-2.511,7.521-1.882c3.125,0.561,5.278,4.012,5.643,5.642
		c1.377,6.202-2.887,11.848-7.992,11.752c-2.297-0.042-3.163-1.01-4.23-1.88c-2.121-1.73-2.57-3.191-4.229-5.172
		c-0.735,1.034-0.207,2.303,0,3.292c0.27,1.295,1.031,2.224,1.408,3.289c0.421,1.188,0.512,2.636,0.941,3.762
		c0.368,0.97,1.858,1.785,0.938,2.819c-3.296-0.308-7.828,0.621-10.341-0.469c0.976-3.729,3.877-8.026,2.351-12.693
		c-0.868,7.535-10.073,8.531-13.817,3.945c-2.716-3.325-3.836-13.219,5.354-14.287c1.76-0.204,3.481,0.838,5.172,1.411
		c-0.884-2.876-2.869-4.158-2.856-7.932C130.792,58.07,130.792,57.757,130.792,57.445"/>
	<path fill="#171717" d="M59.089,136.654c0.571-3.957,2.404-5.682,5.208-6.644c5.108-1.749,11.485,1.099,12.692,5.642
		c1.069,4.027-1.17,6.746-3.762,10.343c2.888-0.866,3.997-2.511,7.521-1.882c3.125,0.561,5.279,4.013,5.642,5.642
		c1.377,6.202-2.886,11.849-7.991,11.752c-2.298-0.042-3.164-1.01-4.231-1.88c-2.12-1.73-2.569-3.191-4.229-5.171
		c-0.734,1.033-0.207,2.302,0,3.291c0.269,1.295,1.032,2.226,1.409,3.289c0.421,1.188,0.511,2.636,0.941,3.762
		c0.369,0.97,1.858,1.785,0.938,2.819c-3.295-0.309-7.827,0.621-10.34-0.469c0.975-3.729,3.876-8.026,2.35-12.692
		c-0.868,7.534-10.073,8.53-13.818,3.944c-2.714-3.325-3.835-13.219,5.355-14.287c1.76-0.204,3.483,0.838,5.172,1.412
		c-0.884-2.877-2.869-4.158-2.857-7.934C59.089,137.279,59.089,136.966,59.089,136.654"/>
	<path fill="#171717" d="M131.461,137.324c0.57-3.957,2.402-5.681,5.207-6.643c5.107-1.75,11.485,1.098,12.692,5.642
		c1.069,4.026-1.17,6.745-3.762,10.342c2.888-0.866,3.997-2.511,7.521-1.882c3.125,0.561,5.278,4.013,5.643,5.642
		c1.377,6.202-2.887,11.849-7.992,11.752c-2.297-0.042-3.163-1.01-4.23-1.88c-2.119-1.73-2.569-3.191-4.229-5.171
		c-0.734,1.033-0.207,2.303,0,3.291c0.27,1.295,1.031,2.226,1.409,3.29c0.421,1.188,0.511,2.635,0.94,3.762
		c0.369,0.969,1.858,1.784,0.938,2.818c-3.296-0.309-7.827,0.621-10.341-0.469c0.976-3.729,3.877-8.026,2.351-12.692
		c-0.868,7.535-10.073,8.53-13.817,3.944c-2.715-3.325-3.836-13.219,5.354-14.287c1.76-0.204,3.483,0.838,5.172,1.412
		c-0.884-2.877-2.868-4.158-2.856-7.934C131.461,137.949,131.461,137.636,131.461,137.324"/>
	<path fill="#171717" d="M149.42,238.801c-0.571,3.957-2.404,5.682-5.209,6.645c-5.107,1.75-11.484-1.1-12.691-5.643
		c-1.068-4.027,1.17-6.744,3.762-10.343c-2.888,0.866-3.996,2.511-7.521,1.882c-3.125-0.561-5.279-4.012-5.642-5.642
		c-1.377-6.202,2.885-11.849,7.99-11.752c2.299,0.042,3.163,1.01,4.23,1.88c2.121,1.73,2.57,3.191,4.229,5.172
		c0.734-1.034,0.207-2.303,0-3.292c-0.269-1.295-1.032-2.224-1.409-3.289c-0.42-1.188-0.511-2.636-0.94-3.762
		c-0.369-0.97-1.859-1.785-0.938-2.819c3.295,0.309,7.827-0.621,10.34,0.469c-0.975,3.729-3.875,8.026-2.351,12.693
		c0.869-7.535,10.074-8.531,13.819-3.945c2.714,3.325,3.834,13.219-5.356,14.287c-1.76,0.204-3.481-0.838-5.171-1.41
		c0.884,2.875,2.869,4.157,2.857,7.932C149.42,238.176,149.42,238.489,149.42,238.801"/>
	<path fill="#171717" d="M77.718,239.471c-0.57,3.957-2.403,5.682-5.207,6.645c-5.108,1.75-11.486-1.1-12.693-5.643
		c-1.069-4.027,1.17-6.744,3.762-10.343c-2.888,0.867-3.997,2.511-7.521,1.882c-3.125-0.561-5.278-4.012-5.642-5.642
		c-1.377-6.202,2.886-11.847,7.992-11.752c2.297,0.042,3.163,1.01,4.23,1.88c2.12,1.73,2.57,3.191,4.229,5.172
		c0.734-1.033,0.207-2.303,0-3.292c-0.269-1.295-1.032-2.224-1.409-3.289c-0.421-1.188-0.511-2.636-0.94-3.762
		c-0.369-0.97-1.859-1.784-0.939-2.819c3.296,0.309,7.828-0.621,10.341,0.469c-0.976,3.729-3.877,8.026-2.351,12.693
		c0.868-7.535,10.073-8.531,13.818-3.945c2.715,3.325,3.835,13.221-5.355,14.287c-1.76,0.204-3.482-0.838-5.172-1.41
		c0.884,2.875,2.869,4.157,2.857,7.932C77.718,238.846,77.718,239.16,77.718,239.471"/>
	<path fill="#171717" d="M95.277,95.641c0.571-3.957,2.404-5.681,5.208-6.644c5.108-1.749,11.485,1.099,12.691,5.643
		c1.07,4.026-1.17,6.745-3.762,10.342c2.889-0.866,3.998-2.511,7.521-1.882c3.125,0.561,5.279,4.013,5.643,5.642
		c1.377,6.202-2.887,11.848-7.992,11.752c-2.297-0.042-3.162-1.01-4.23-1.88c-2.12-1.73-2.57-3.191-4.229-5.171
		c-0.734,1.033-0.207,2.302,0,3.291c0.269,1.295,1.032,2.225,1.409,3.29c0.421,1.187,0.511,2.635,0.941,3.761
		c0.369,0.97,1.857,1.785,0.938,2.819c-3.294-0.308-7.827,0.621-10.339-0.469c0.975-3.729,3.876-8.026,2.351-12.692
		c-0.869,7.534-10.074,8.53-13.819,3.944c-2.714-3.325-3.835-13.219,5.355-14.287c1.761-0.204,3.483,0.838,5.172,1.411
		c-0.884-2.876-2.869-4.157-2.857-7.932C95.277,96.266,95.277,95.952,95.277,95.641"/>
	<polygon fill="#1F1A17" points="41.722,38.053 42.379,38.053 44.663,38.053 35.949,63.25 33.008,63.25 40.817,40.666 
		34.342,40.666 34.342,43.729 32.204,43.729 32.204,40.666 32.199,40.666 32.199,38.053 32.204,38.053 34.342,38.053 	"/>
	<polygon fill="#1F1A17" points="169.439,258.668 168.782,258.668 166.499,258.668 175.211,233.471 178.153,233.471 
		170.342,256.057 176.819,256.055 176.819,252.992 178.958,252.992 178.958,256.055 178.961,256.055 178.961,258.668 
		178.958,258.668 176.819,258.668 	"/>
</g>
</svg>
