<?xml version="1.0" encoding="utf-8"?>
<!-- Generator: Adobe Illustrator 16.0.0, SVG Export Plug-In . SVG Version: 6.00 Build 0)  -->
<!DOCTYPE svg PUBLIC "-//W3C//DTD SVG 1.1//EN" "http://www.w3.org/Graphics/SVG/1.1/DTD/svg11.dtd">
<svg version="1.1" id="Layer_1" xmlns="http://www.w3.org/2000/svg" xmlns:xlink="http://www.w3.org/1999/xlink" x="0px" y="0px"
	 width="170.657px" height="254.813px" viewBox="19.76 27.705 170.657 254.813"
	 enable-background="new 19.76 27.705 170.657 254.813" xml:space="preserve">
<g>
	<path fill="#FFFFFF" d="M27.857,27.813H182.32c4.395,0,7.989,3.595,7.989,7.989V274.42c0,4.395-3.595,7.99-7.989,7.99H27.857
		c-4.395,0-7.989-3.596-7.989-7.99V35.802C19.868,31.408,23.463,27.813,27.857,27.813z"/>
	<path fill="none" stroke="#1F1A17" stroke-width="0.216" stroke-miterlimit="10" d="M27.857,27.813H182.32
		c4.395,0,7.989,3.595,7.989,7.989V274.42c0,4.395-3.595,7.99-7.989,7.99H27.857c-4.395,0-7.989-3.596-7.989-7.99V35.802
		C19.868,31.408,23.463,27.813,27.857,27.813z"/>
	<path fill="#1F1A17" d="M35.475,46.546L35.475,46.546c1.875,0,3.409,1.537,3.409,3.41v2.05c0,1.873-1.534,3.409-3.409,3.409
		c-1.876,0-3.41-1.535-3.41-3.409v-2.05C32.064,48.081,33.599,46.546,35.475,46.546 M35.475,43.712L35.475,43.712
		c3.017,0,5.485,2.469,5.485,5.486v3.37c0,0.115-0.005,0.229-0.013,0.343h0.013v9.611v0.796v0.762c0,3.017-2.469,5.485-5.485,5.485
		c-3.018,0-5.485-2.468-5.485-5.485v-1.558h2.075v0.995c0,1.875,1.534,3.41,3.41,3.41c1.875,0,3.409-1.537,3.409-3.41v-0.199h-0.062
		v-6.414c-0.928,0.719-2.09,1.149-3.348,1.149c-3.018,0-5.485-2.468-5.485-5.485v-3.37C29.989,46.18,32.457,43.712,35.475,43.712z"
		/>
	<path fill="#1F1A17" d="M176.197,262.739L176.197,262.739c-1.876,0-3.408-1.537-3.408-3.41v-2.049c0-1.873,1.532-3.41,3.408-3.41
		c1.877,0,3.41,1.535,3.41,3.41v2.049C179.607,261.204,178.074,262.739,176.197,262.739 M176.197,265.572L176.197,265.572
		c-3.017,0-5.484-2.469-5.484-5.485v-3.371c0-0.114,0.004-0.229,0.012-0.343h-0.012v-9.611v-0.796v-0.762
		c0-3.017,2.469-5.485,5.484-5.485c3.018,0,5.485,2.469,5.485,5.485v1.558h-2.075v-0.994c0-1.875-1.533-3.41-3.41-3.41
		c-1.876,0-3.408,1.537-3.408,3.41v0.198h0.061v6.415c0.929-0.72,2.091-1.15,3.35-1.15c3.018,0,5.484,2.469,5.484,5.485v3.371
		C181.683,263.104,179.214,265.572,176.197,265.572z"/>
	<path fill="#171717" d="M31.503,75.668c0.291-2.021,1.228-2.901,2.659-3.393c2.608-0.894,5.865,0.561,6.481,2.881
		c0.546,2.057-0.598,3.444-1.921,5.281c1.475-0.442,2.041-1.282,3.841-0.961c1.596,0.286,2.695,2.049,2.881,2.881
		c0.703,3.167-1.474,6.05-4.081,6.001c-1.173-0.021-1.615-0.516-2.16-0.96c-1.083-0.884-1.313-1.63-2.16-2.641
		c-0.375,0.527-0.105,1.176,0,1.681c0.138,0.661,0.527,1.136,0.72,1.68c0.215,0.606,0.261,1.346,0.48,1.921
		c0.188,0.495,0.949,0.911,0.479,1.439c-1.683-0.157-3.997,0.317-5.28-0.239c0.498-1.904,1.979-4.099,1.2-6.481
		c-0.443,3.848-5.145,4.356-7.057,2.015c-1.386-1.698-1.958-6.75,2.735-7.296c0.898-0.104,1.778,0.428,2.641,0.721
		c-0.451-1.469-1.465-2.123-1.459-4.05C31.503,75.988,31.503,75.827,31.503,75.668"/>
	<path fill="#171717" d="M180.726,233.945c-0.291,2.021-1.227,2.902-2.659,3.393c-2.608,0.895-5.864-0.561-6.481-2.881
		c-0.545-2.057,0.599-3.443,1.922-5.281c-1.475,0.442-2.041,1.282-3.842,0.961c-1.595-0.285-2.694-2.049-2.881-2.881
		c-0.701-3.167,1.475-6.05,4.082-6.001c1.174,0.021,1.614,0.517,2.16,0.96c1.082,0.885,1.313,1.63,2.16,2.641
		c0.375-0.526,0.104-1.176,0-1.681c-0.139-0.661-0.527-1.136-0.721-1.68c-0.215-0.606-0.262-1.347-0.48-1.921
		c-0.188-0.495-0.949-0.911-0.479-1.439c1.683,0.157,3.996-0.316,5.279,0.239c-0.498,1.903-1.979,4.099-1.201,6.481
		c0.443-3.849,5.146-4.356,7.058-2.015c1.386,1.698,1.959,6.75-2.733,7.295c-0.899,0.104-1.779-0.428-2.643-0.721
		c0.452,1.469,1.465,2.124,1.459,4.05C180.726,233.627,180.726,233.787,180.726,233.945"/>
	<path fill="#171717" d="M60.103,64.43c0.571-3.957,2.404-5.681,5.208-6.643c5.108-1.75,11.485,1.098,12.692,5.642
		c1.069,4.027-1.17,6.745-3.762,10.342c2.888-0.866,3.997-2.511,7.521-1.882c3.125,0.561,5.279,4.013,5.642,5.642
		c1.377,6.202-2.886,11.848-7.991,11.752c-2.298-0.042-3.164-1.01-4.231-1.879c-2.12-1.731-2.569-3.192-4.229-5.172
		c-0.734,1.033-0.207,2.303,0,3.291c0.269,1.295,1.032,2.225,1.409,3.29c0.421,1.187,0.511,2.635,0.941,3.761
		c0.369,0.97,1.858,1.785,0.938,2.819c-3.295-0.308-7.827,0.622-10.34-0.468c0.975-3.729,3.876-8.027,2.35-12.693
		c-0.868,7.535-10.073,8.53-13.818,3.944c-2.714-3.325-3.835-13.219,5.355-14.287c1.76-0.204,3.483,0.838,5.172,1.412
		c-0.884-2.877-2.869-4.158-2.857-7.933C60.103,65.055,60.103,64.742,60.103,64.43"/>
	<path fill="#171717" d="M131.805,63.76c0.569-3.957,2.403-5.681,5.207-6.644c5.108-1.75,11.485,1.099,12.692,5.642
		c1.069,4.027-1.17,6.745-3.762,10.342c2.889-0.866,3.997-2.511,7.521-1.882c3.125,0.561,5.277,4.013,5.642,5.642
		c1.377,6.202-2.888,11.848-7.992,11.752c-2.297-0.042-3.163-1.01-4.229-1.88c-2.121-1.73-2.57-3.192-4.229-5.171
		c-0.735,1.033-0.207,2.303,0,3.292c0.269,1.295,1.032,2.225,1.409,3.29c0.42,1.188,0.512,2.635,0.939,3.761
		c0.369,0.97,1.859,1.785,0.939,2.819c-3.296-0.308-7.828,0.621-10.341-0.468c0.976-3.729,3.877-8.027,2.351-12.694
		c-0.867,7.535-10.072,8.531-13.818,3.945c-2.715-3.325-3.834-13.219,5.355-14.287c1.76-0.204,3.482,0.838,5.172,1.412
		c-0.884-2.877-2.869-4.159-2.856-7.933C131.805,64.385,131.805,64.072,131.805,63.76"/>
	<path fill="#171717" d="M60.103,114.018c0.571-3.957,2.404-5.681,5.208-6.643c5.108-1.75,11.485,1.098,12.692,5.642
		c1.069,4.027-1.17,6.745-3.762,10.342c2.888-0.867,3.997-2.511,7.521-1.882c3.125,0.562,5.279,4.013,5.642,5.642
		c1.377,6.203-2.886,11.847-7.991,11.752c-2.298-0.042-3.164-1.009-4.231-1.879c-2.12-1.731-2.569-3.192-4.229-5.172
		c-0.734,1.033-0.207,2.303,0,3.292c0.269,1.294,1.032,2.224,1.409,3.289c0.421,1.188,0.511,2.635,0.941,3.762
		c0.369,0.97,1.858,1.784,0.938,2.818c-3.295-0.308-7.827,0.622-10.34-0.468c0.975-3.729,3.876-8.027,2.35-12.693
		c-0.868,7.535-10.073,8.531-13.818,3.945c-2.714-3.325-3.835-13.219,5.355-14.288c1.76-0.204,3.483,0.838,5.172,1.412
		c-0.884-2.877-2.869-4.158-2.857-7.932C60.103,114.643,60.103,114.33,60.103,114.018"/>
	<path fill="#171717" d="M132.475,114.689c0.569-3.958,2.403-5.682,5.208-6.644c5.107-1.75,11.484,1.098,12.691,5.642
		c1.069,4.027-1.17,6.745-3.762,10.343c2.889-0.867,3.997-2.511,7.521-1.882c3.125,0.561,5.277,4.012,5.642,5.642
		c1.377,6.202-2.886,11.847-7.991,11.752c-2.298-0.042-3.164-1.01-4.23-1.88c-2.12-1.731-2.57-3.192-4.229-5.172
		c-0.734,1.033-0.207,2.303,0,3.292c0.269,1.295,1.031,2.224,1.408,3.29c0.421,1.188,0.512,2.635,0.939,3.762
		c0.371,0.97,1.859,1.785,0.939,2.818c-3.296-0.307-7.826,0.622-10.341-0.468c0.976-3.729,3.877-8.026,2.351-12.693
		c-0.867,7.535-10.072,8.531-13.817,3.945c-2.716-3.325-3.835-13.22,5.354-14.288c1.76-0.204,3.483,0.838,5.172,1.412
		c-0.883-2.876-2.869-4.158-2.856-7.932C132.475,115.313,132.475,115,132.475,114.689"/>
	<path fill="#171717" d="M96.289,144.173c0.57-3.957,2.403-5.681,5.207-6.643c5.108-1.75,11.486,1.098,12.692,5.642
		c1.069,4.027-1.17,6.745-3.763,10.342c2.889-0.866,3.998-2.511,7.523-1.882c3.123,0.561,5.277,4.013,5.641,5.642
		c1.377,6.203-2.887,11.849-7.991,11.752c-2.298-0.041-3.163-1.01-4.229-1.879c-2.121-1.73-2.57-3.191-4.23-5.172
		c-0.734,1.033-0.206,2.303,0,3.291c0.27,1.295,1.033,2.226,1.41,3.291c0.42,1.187,0.511,2.635,0.939,3.76
		c0.369,0.971,1.859,1.785,0.938,2.819c-3.295-0.308-7.826,0.622-10.339-0.468c0.976-3.729,3.876-8.027,2.351-12.693
		c-0.868,7.535-10.074,8.53-13.818,3.944c-2.715-3.325-3.836-13.219,5.355-14.287c1.76-0.204,3.482,0.838,5.172,1.412
		c-0.884-2.876-2.869-4.158-2.857-7.932C96.289,144.798,96.289,144.485,96.289,144.173"/>
	<path fill="#171717" d="M150.434,245.116c-0.571,3.957-2.404,5.681-5.208,6.643c-5.107,1.75-11.484-1.098-12.691-5.642
		c-1.07-4.027,1.17-6.745,3.762-10.342c-2.889,0.867-3.998,2.511-7.521,1.882c-3.125-0.562-5.279-4.013-5.643-5.642
		c-1.377-6.203,2.887-11.849,7.992-11.752c2.297,0.043,3.162,1.01,4.23,1.879c2.12,1.731,2.57,3.192,4.229,5.172
		c0.734-1.033,0.207-2.303,0-3.293c-0.269-1.295-1.031-2.224-1.408-3.289c-0.422-1.188-0.512-2.635-0.941-3.762
		c-0.369-0.97-1.859-1.785-0.938-2.818c3.295,0.309,7.826-0.621,10.34,0.469c-0.975,3.729-3.877,8.025-2.352,12.693
		c0.869-7.535,10.074-8.531,13.819-3.945c2.714,3.324,3.835,13.22-5.356,14.287c-1.76,0.203-3.481-0.838-5.17-1.411
		c0.883,2.877,2.868,4.157,2.856,7.932C150.434,244.491,150.434,244.805,150.434,245.116"/>
	<path fill="#171717" d="M78.731,245.786c-0.57,3.957-2.403,5.681-5.207,6.644c-5.108,1.75-11.486-1.099-12.693-5.643
		c-1.069-4.027,1.17-6.745,3.762-10.342c-2.888,0.867-3.997,2.511-7.521,1.882c-3.125-0.562-5.278-4.013-5.642-5.642
		c-1.377-6.203,2.886-11.849,7.992-11.752c2.297,0.041,3.163,1.01,4.23,1.879c2.12,1.73,2.57,3.191,4.229,5.172
		c0.734-1.033,0.207-2.303,0-3.293c-0.269-1.295-1.032-2.224-1.409-3.289c-0.421-1.188-0.511-2.635-0.94-3.762
		c-0.369-0.971-1.859-1.785-0.939-2.818c3.296,0.308,7.828-0.622,10.341,0.468c-0.976,3.729-3.877,8.026-2.351,12.692
		c0.868-7.534,10.073-8.529,13.818-3.944c2.715,3.325,3.835,13.219-5.355,14.287c-1.76,0.204-3.482-0.839-5.172-1.412
		c0.884,2.876,2.869,4.158,2.857,7.933C78.731,245.161,78.731,245.475,78.731,245.786"/>
	<path fill="#171717" d="M150.434,196.868c-0.571,3.957-2.404,5.681-5.208,6.643c-5.107,1.75-11.484-1.098-12.691-5.642
		c-1.07-4.027,1.17-6.745,3.762-10.344c-2.889,0.867-3.998,2.512-7.521,1.883c-3.125-0.561-5.279-4.012-5.643-5.643
		c-1.377-6.201,2.887-11.847,7.992-11.752c2.297,0.043,3.162,1.01,4.23,1.881c2.12,1.73,2.57,3.191,4.229,5.172
		c0.734-1.033,0.207-2.303,0-3.293c-0.269-1.295-1.031-2.224-1.408-3.289c-0.422-1.188-0.512-2.635-0.941-3.762
		c-0.369-0.971-1.859-1.785-0.938-2.818c3.295,0.308,7.826-0.622,10.34,0.468c-0.975,3.729-3.877,8.026-2.352,12.692
		c0.869-7.534,10.074-8.53,13.819-3.944c2.714,3.325,3.835,13.22-5.356,14.288c-1.76,0.205-3.481-0.838-5.17-1.412
		c0.883,2.876,2.868,4.158,2.856,7.932C150.434,196.243,150.434,196.557,150.434,196.868"/>
	<path fill="#171717" d="M78.062,196.198c-0.57,3.957-2.404,5.682-5.208,6.644c-5.108,1.75-11.485-1.099-12.692-5.642
		c-1.069-4.027,1.17-6.745,3.762-10.343c-2.888,0.867-3.997,2.512-7.521,1.883c-3.125-0.561-5.278-4.012-5.642-5.643
		c-1.377-6.201,2.886-11.848,7.992-11.752c2.297,0.043,3.163,1.01,4.23,1.881c2.12,1.729,2.57,3.191,4.229,5.172
		c0.734-1.033,0.207-2.303,0-3.293c-0.269-1.295-1.032-2.224-1.409-3.289c-0.421-1.188-0.511-2.635-0.94-3.762
		c-0.37-0.97-1.859-1.785-0.939-2.818c3.296,0.308,7.827-0.621,10.341,0.468c-0.976,3.729-3.877,8.026-2.351,12.694
		c0.868-7.535,10.073-8.531,13.818-3.945c2.715,3.324,3.835,13.22-5.355,14.287c-1.76,0.203-3.483-0.838-5.172-1.411
		c0.884,2.876,2.869,4.157,2.857,7.932C78.062,195.573,78.062,195.887,78.062,196.198"/>
</g>
</svg>
