<?xml version="1.0" encoding="utf-8"?>
<!-- Generator: Adobe Illustrator 16.0.0, SVG Export Plug-In . SVG Version: 6.00 Build 0)  -->
<!DOCTYPE svg PUBLIC "-//W3C//DTD SVG 1.1//EN" "http://www.w3.org/Graphics/SVG/1.1/DTD/svg11.dtd">
<svg version="1.1" id="Layer_1" xmlns="http://www.w3.org/2000/svg" xmlns:xlink="http://www.w3.org/1999/xlink" x="0px" y="0px"
	 width="170.657px" height="254.813px" viewBox="18.301 15.057 170.657 254.813"
	 enable-background="new 18.301 15.057 170.657 254.813" xml:space="preserve">
<g>
	<path fill="#FFFFFF" d="M26.398,15.165h154.463c4.395,0,7.989,3.596,7.989,7.988v238.618c0,4.396-3.595,7.99-7.989,7.99H26.398
		c-4.395,0-7.989-3.596-7.989-7.99V23.154C18.409,18.761,22.004,15.165,26.398,15.165z"/>
	<path fill="none" stroke="#1F1A17" stroke-width="0.216" stroke-miterlimit="10" d="M26.398,15.165h154.463
		c4.395,0,7.989,3.596,7.989,7.988v238.618c0,4.396-3.595,7.99-7.989,7.99H26.398c-4.395,0-7.989-3.596-7.989-7.99V23.154
		C18.409,18.761,22.004,15.165,26.398,15.165z"/>
	<path fill="#171717" d="M30.044,63.021c0.292-2.021,1.228-2.9,2.659-3.393c2.608-0.895,5.865,0.561,6.481,2.881
		c0.546,2.057-0.598,3.444-1.921,5.281c1.475-0.442,2.041-1.282,3.841-0.961c1.596,0.286,2.695,2.049,2.881,2.881
		c0.703,3.167-1.474,6.05-4.081,6.001c-1.173-0.021-1.615-0.517-2.16-0.96c-1.083-0.884-1.313-1.63-2.16-2.642
		c-0.375,0.527-0.105,1.177,0,1.682c0.138,0.661,0.527,1.136,0.72,1.68c0.215,0.606,0.261,1.346,0.48,1.921
		c0.188,0.495,0.949,0.911,0.479,1.439c-1.683-0.157-3.997,0.316-5.28-0.239c0.498-1.904,1.979-4.099,1.2-6.481
		c-0.443,3.849-5.145,4.356-7.057,2.016c-1.386-1.698-1.958-6.75,2.735-7.296c0.898-0.104,1.778,0.428,2.641,0.721
		c-0.451-1.469-1.465-2.123-1.459-4.05C30.044,63.34,30.044,63.18,30.044,63.021"/>
	<path fill="#171717" d="M179.268,221.299c-0.292,2.02-1.228,2.9-2.66,3.392c-2.606,0.895-5.864-0.561-6.479-2.881
		c-0.547-2.057,0.598-3.443,1.92-5.281c-1.475,0.442-2.041,1.282-3.84,0.962c-1.597-0.286-2.695-2.05-2.881-2.882
		c-0.703-3.167,1.473-6.05,4.08-6.001c1.174,0.021,1.614,0.517,2.16,0.96c1.083,0.885,1.313,1.631,2.159,2.642
		c0.375-0.527,0.104-1.176,0-1.682c-0.138-0.66-0.526-1.136-0.72-1.68c-0.215-0.605-0.262-1.346-0.479-1.921
		c-0.188-0.495-0.948-0.911-0.479-1.438c1.684,0.156,3.998-0.317,5.281,0.238c-0.498,1.904-1.98,4.1-1.201,6.481
		c0.442-3.849,5.145-4.355,7.057-2.015c1.387,1.697,1.959,6.75-2.734,7.296c-0.897,0.104-1.779-0.429-2.641-0.722
		c0.451,1.469,1.465,2.124,1.459,4.051C179.268,220.979,179.268,221.14,179.268,221.299"/>
	<path fill="#171717" d="M58.645,51.782c0.57-3.957,2.403-5.682,5.207-6.644c5.108-1.75,11.486,1.098,12.692,5.643
		c1.069,4.026-1.17,6.744-3.762,10.342c2.888-0.866,3.997-2.512,7.522-1.882c3.124,0.561,5.277,4.013,5.641,5.642
		c1.377,6.202-2.886,11.848-7.992,11.752c-2.297-0.042-3.162-1.01-4.23-1.879c-2.12-1.731-2.57-3.192-4.229-5.172
		c-0.734,1.033-0.206,2.303,0,3.291c0.269,1.295,1.032,2.225,1.409,3.29c0.421,1.188,0.512,2.635,0.941,3.762
		c0.369,0.97,1.859,1.784,0.938,2.818c-3.296-0.309-7.827,0.622-10.341-0.469c0.977-3.729,3.877-8.026,2.352-12.692
		c-0.869,7.535-10.074,8.53-13.818,3.943c-2.715-3.324-3.836-13.219,5.355-14.286c1.76-0.204,3.482,0.838,5.172,1.411
		c-0.885-2.877-2.869-4.157-2.857-7.933C58.645,52.407,58.645,52.094,58.645,51.782"/>
	<path fill="#171717" d="M130.346,51.112c0.569-3.956,2.403-5.681,5.207-6.644c5.108-1.749,11.485,1.099,12.692,5.643
		c1.069,4.027-1.17,6.745-3.762,10.343c2.887-0.866,3.997-2.512,7.521-1.883c3.125,0.562,5.279,4.014,5.642,5.643
		c1.376,6.202-2.886,11.848-7.991,11.752c-2.298-0.042-3.164-1.01-4.23-1.88c-2.12-1.73-2.57-3.191-4.229-5.171
		c-0.733,1.033-0.207,2.303,0,3.291c0.269,1.295,1.032,2.225,1.409,3.289c0.421,1.188,0.512,2.636,0.939,3.762
		c0.369,0.97,1.859,1.785,0.939,2.819c-3.295-0.309-7.828,0.62-10.34-0.469c0.975-3.729,3.876-8.026,2.35-12.692
		c-0.867,7.535-10.074,8.529-13.818,3.943c-2.715-3.324-3.836-13.219,5.355-14.287c1.76-0.203,3.482,0.839,5.172,1.412
		c-0.884-2.877-2.869-4.157-2.856-7.933C130.346,51.737,130.346,51.424,130.346,51.112"/>
	<path fill="#171717" d="M58.645,130.321c0.57-3.956,2.403-5.681,5.207-6.643c5.108-1.75,11.486,1.098,12.692,5.642
		c1.069,4.027-1.17,6.745-3.762,10.343c2.888-0.866,3.997-2.512,7.522-1.882c3.124,0.561,5.277,4.013,5.641,5.642
		c1.377,6.202-2.886,11.848-7.992,11.752c-2.297-0.042-3.162-1.01-4.23-1.879c-2.12-1.731-2.57-3.192-4.229-5.172
		c-0.734,1.033-0.206,2.303,0,3.291c0.269,1.295,1.032,2.225,1.409,3.29c0.421,1.188,0.512,2.635,0.941,3.761
		c0.369,0.971,1.859,1.785,0.938,2.819c-3.296-0.309-7.827,0.622-10.341-0.469c0.977-3.729,3.877-8.026,2.352-12.692
		c-0.869,7.535-10.074,8.529-13.818,3.943c-2.715-3.324-3.836-13.219,5.355-14.286c1.76-0.204,3.482,0.838,5.172,1.411
		c-0.885-2.877-2.869-4.157-2.857-7.933C58.645,130.946,58.645,130.633,58.645,130.321"/>
	<path fill="#171717" d="M131.016,130.991c0.569-3.957,2.403-5.682,5.208-6.644c5.107-1.75,11.484,1.098,12.691,5.643
		c1.069,4.026-1.17,6.744-3.762,10.342c2.889-0.866,3.997-2.51,7.521-1.882c3.125,0.562,5.279,4.013,5.643,5.642
		c1.376,6.203-2.887,11.848-7.992,11.752c-2.298-0.042-3.164-1.01-4.23-1.879c-2.12-1.731-2.569-3.192-4.229-5.172
		c-0.734,1.033-0.207,2.303,0,3.291c0.27,1.295,1.031,2.225,1.408,3.29c0.421,1.188,0.512,2.635,0.939,3.762
		c0.369,0.97,1.859,1.784,0.939,2.818c-3.295-0.309-7.828,0.622-10.34-0.469c0.975-3.729,3.876-8.026,2.35-12.692
		c-0.867,7.535-10.072,8.53-13.817,3.943c-2.716-3.324-3.835-13.219,5.354-14.286c1.76-0.204,3.482,0.838,5.172,1.411
		c-0.884-2.877-2.869-4.157-2.856-7.933C131.016,131.616,131.016,131.303,131.016,130.991"/>
	<path fill="#171717" d="M148.975,232.469c-0.57,3.956-2.404,5.681-5.207,6.643c-5.108,1.75-11.485-1.098-12.692-5.642
		c-1.07-4.027,1.17-6.745,3.762-10.343c-2.889,0.867-3.998,2.511-7.521,1.882c-3.125-0.561-5.279-4.012-5.643-5.642
		c-1.377-6.202,2.887-11.849,7.992-11.752c2.297,0.043,3.164,1.01,4.23,1.88c2.12,1.73,2.568,3.191,4.229,5.172
		c0.734-1.033,0.207-2.303,0-3.292c-0.27-1.295-1.031-2.225-1.408-3.289c-0.422-1.188-0.512-2.635-0.94-3.762
		c-0.368-0.971-1.858-1.785-0.938-2.818c3.295,0.307,7.828-0.622,10.34,0.468c-0.975,3.729-3.877,8.026-2.35,12.693
		c0.867-7.535,10.072-8.53,13.817-3.945c2.715,3.325,3.835,13.22-5.354,14.287c-1.761,0.204-3.482-0.838-5.172-1.411
		c0.883,2.877,2.868,4.158,2.856,7.933C148.975,231.844,148.975,232.156,148.975,232.469"/>
	<path fill="#171717" d="M77.272,233.139c-0.57,3.957-2.403,5.681-5.208,6.644c-5.107,1.75-11.485-1.099-12.691-5.643
		c-1.07-4.026,1.17-6.745,3.762-10.343c-2.889,0.867-3.998,2.512-7.521,1.883c-3.125-0.561-5.279-4.013-5.643-5.643
		c-1.377-6.202,2.887-11.848,7.992-11.752c2.297,0.043,3.163,1.01,4.23,1.88c2.121,1.73,2.57,3.191,4.23,5.172
		c0.734-1.033,0.206-2.303,0-3.291c-0.27-1.296-1.033-2.226-1.41-3.29c-0.42-1.188-0.511-2.635-0.94-3.762
		c-0.37-0.971-1.859-1.784-0.938-2.818c3.295,0.308,7.826-0.622,10.34,0.468c-0.976,3.729-3.877,8.027-2.351,12.693
		c0.868-7.535,10.073-8.53,13.818-3.944c2.715,3.324,3.835,13.219-5.355,14.287c-1.76,0.204-3.483-0.838-5.172-1.412
		c0.884,2.877,2.869,4.158,2.857,7.933C77.272,232.514,77.272,232.827,77.272,233.139"/>
	<path fill="#1F1A17" d="M34.016,53.279L34.016,53.279c-1.876,0-3.41-1.535-3.41-3.409v-2.05c0-1.872,1.534-3.409,3.41-3.409
		c1.875,0,3.41,1.534,3.41,3.409v2.05C37.426,51.745,35.891,53.279,34.016,53.279 M34.016,56.113L34.016,56.113
		c-3.018,0-5.485-2.47-5.485-5.484v-3.371c0-0.115,0.005-0.229,0.012-0.343H28.53v-9.61v-0.796v-0.763
		c0-3.017,2.468-5.485,5.485-5.485s5.484,2.469,5.484,5.485v1.559h-2.074v-0.995c0-1.875-1.535-3.41-3.41-3.41
		c-1.876,0-3.41,1.537-3.41,3.41v0.199h0.062v6.414c0.928-0.72,2.09-1.15,3.349-1.15c3.018,0,5.484,2.47,5.484,5.485v3.371
		C39.5,53.645,37.033,56.113,34.016,56.113z"/>
	<path fill="#1F1A17" d="M174.748,230.924L174.748,230.924c1.877,0,3.41,1.537,3.41,3.41v2.049c0,1.873-1.533,3.41-3.41,3.41
		c-1.875,0-3.408-1.534-3.408-3.41v-2.049C171.339,232.459,172.873,230.924,174.748,230.924 M174.748,228.091L174.748,228.091
		c3.019,0,5.486,2.469,5.486,5.485v3.369c0,0.115-0.006,0.229-0.013,0.344h0.013v9.61v0.796v0.763c0,3.017-2.469,5.484-5.486,5.484
		c-3.017,0-5.483-2.468-5.483-5.484V246.9h2.075v0.994c0,1.876,1.533,3.41,3.408,3.41c1.877,0,3.41-1.536,3.41-3.41v-0.198h-0.062
		v-6.414c-0.929,0.72-2.091,1.149-3.349,1.149c-3.018,0-5.484-2.468-5.484-5.485v-3.369
		C169.264,230.559,171.731,228.091,174.748,228.091z"/>
</g>
</svg>
