<?xml version="1.0" encoding="utf-8"?>
<!-- Generator: Adobe Illustrator 16.0.0, SVG Export Plug-In . SVG Version: 6.00 Build 0)  -->
<!DOCTYPE svg PUBLIC "-//W3C//DTD SVG 1.1//EN" "http://www.w3.org/Graphics/SVG/1.1/DTD/svg11.dtd">
<svg version="1.1" id="Layer_1" xmlns="http://www.w3.org/2000/svg" xmlns:xlink="http://www.w3.org/1999/xlink" x="0px" y="0px"
	 width="170.657px" height="254.813px" viewBox="20.242 23.015 170.657 254.813"
	 enable-background="new 20.242 23.015 170.657 254.813" xml:space="preserve">
<g>
	<path fill="#FFFFFF" d="M28.339,23.123h154.463c4.396,0,7.989,3.596,7.989,7.99V269.73c0,4.395-3.596,7.989-7.989,7.989H28.339
		c-4.395,0-7.989-3.596-7.989-7.989V31.113C20.35,26.719,23.944,23.123,28.339,23.123z"/>
	<path fill="none" stroke="#1F1A17" stroke-width="0.216" stroke-miterlimit="10" d="M28.339,23.123h154.463
		c4.396,0,7.989,3.596,7.989,7.99V269.73c0,4.395-3.596,7.989-7.989,7.989H28.339c-4.395,0-7.989-3.596-7.989-7.989V31.113
		C20.35,26.719,23.944,23.123,28.339,23.123z"/>
	<path fill="#B32621" d="M44.72,70.411c-1.125-1.25-2.375-2-3.25-2c-0.851,0-2.928-0.205-4.685,3.387
		c-1.749-3.524-3.807-3.324-4.651-3.324c-0.875,0-2.125,0.75-3.25,2s-0.938,3.438-0.553,4.576c0.385,1.138,8.42,12.861,8.42,12.861
		s8.137-11.786,8.521-12.924C45.657,73.849,45.845,71.661,44.72,70.411"/>
	<path fill="#B32621" d="M168.813,231.467c1.125,1.25,2.375,2,3.25,2c0.851,0,2.929,0.206,4.685-3.387
		c1.749,3.525,3.808,3.324,4.651,3.324c0.875,0,2.125-0.75,3.25-2s0.938-3.438,0.554-4.575c-0.386-1.14-8.42-12.862-8.42-12.862
		s-8.138,11.786-8.521,12.926C167.875,228.029,167.688,230.217,168.813,231.467"/>
	<path fill="#B32621" d="M86.362,56.14c-2.138-2.375-4.513-3.8-6.176-3.8c-1.615,0-5.563-0.391-8.9,6.435
		c-3.323-6.697-7.233-6.316-8.839-6.316c-1.662,0-4.038,1.426-6.176,3.801s-1.781,6.531-1.051,8.694
		c0.731,2.163,16,24.439,16,24.439s15.461-22.396,16.192-24.558C88.144,62.672,88.5,58.516,86.362,56.14"/>
	<path fill="#B32621" d="M120.755,134.245c-2.138-2.376-4.514-3.801-6.176-3.801c-1.615,0-5.563-0.391-8.9,6.436
		c-3.323-6.698-7.233-6.316-8.839-6.316c-1.663,0-4.038,1.425-6.177,3.801c-2.137,2.374-1.781,6.531-1.05,8.694
		c0.731,2.162,15.999,24.438,15.999,24.438s15.462-22.396,16.193-24.558C122.535,140.776,122.893,136.62,120.755,134.245"/>
	<path fill="#B32621" d="M155.932,216.593c-2.139-2.376-4.515-3.801-6.177-3.801c-1.614,0-5.563-0.392-8.899,6.437
		c-3.323-6.698-7.233-6.316-8.84-6.316c-1.662,0-4.037,1.425-6.176,3.8c-2.138,2.375-1.781,6.532-1.051,8.695
		c0.73,2.161,16,24.438,16,24.438s15.461-22.396,16.191-24.559C157.712,223.124,158.068,218.968,155.932,216.593"/>
	<path fill="#B32621" d="M41.204,49.967c1.532,1.069,2.54,2.845,2.54,4.844v2.656c0,3.245-2.654,5.901-5.9,5.901
		c-3.246,0-5.9-2.655-5.9-5.901V56.94h2.233c0.043,1.98,1.676,3.589,3.667,3.589c2.018,0,3.668-1.652,3.668-3.668v-1.234
		c0-2.017-1.65-3.669-3.668-3.669c-0.106,0-0.212,0.005-0.316,0.014v-3.499c0.104,0.01,0.21,0.015,0.316,0.015
		c1.876,0,3.41-1.536,3.41-3.41V43.93c0-1.874-1.534-3.41-3.41-3.41c-1.876,0-3.41,1.534-3.41,3.41v0.003h-2.075v-0.762
		c0-3.017,2.468-5.485,5.485-5.485c3.017,0,5.485,2.47,5.485,5.485v2.47C43.329,47.394,42.495,48.961,41.204,49.967"/>
	<path fill="#B32621" d="M174.039,248.646c-1.533-1.068-2.541-2.846-2.541-4.845v-2.655c0-3.244,2.654-5.9,5.9-5.9
		s5.899,2.654,5.899,5.9v0.525h-2.233c-0.043-1.98-1.676-3.589-3.666-3.589c-2.019,0-3.668,1.653-3.668,3.669v1.234
		c0,2.016,1.649,3.668,3.668,3.668c0.106,0,0.211-0.006,0.315-0.014v3.498c-0.104-0.01-0.209-0.015-0.315-0.015
		c-1.877,0-3.41,1.537-3.41,3.41v1.147c0,1.873,1.533,3.409,3.41,3.409c1.875,0,3.41-1.534,3.41-3.409v-0.004h2.074v0.762
		c0,3.019-2.468,5.485-5.484,5.485c-3.018,0-5.485-2.47-5.485-5.485v-2.47C171.913,251.219,172.748,249.65,174.039,248.646"/>
	<path fill="#FFFFFF" d="M28.339,23.123h154.463c4.396,0,7.989,3.596,7.989,7.99V269.73c0,4.395-3.596,7.989-7.989,7.989H28.339
		c-4.395,0-7.989-3.596-7.989-7.989V31.113C20.35,26.719,23.944,23.123,28.339,23.123z"/>
	<path fill="none" stroke="#1F1A17" stroke-width="0.216" stroke-miterlimit="10" d="M28.339,23.123h154.463
		c4.396,0,7.989,3.596,7.989,7.99V269.73c0,4.395-3.596,7.989-7.989,7.989H28.339c-4.395,0-7.989-3.596-7.989-7.989V31.113
		C20.35,26.719,23.944,23.123,28.339,23.123z"/>
	<path fill="#171717" d="M31.984,70.979c0.291-2.021,1.228-2.901,2.659-3.393c2.608-0.894,5.865,0.562,6.481,2.881
		c0.546,2.057-0.598,3.444-1.921,5.281c1.475-0.442,2.041-1.282,3.841-0.961c1.596,0.287,2.695,2.049,2.881,2.881
		c0.703,3.168-1.474,6.05-4.081,6.001c-1.173-0.021-1.615-0.516-2.16-0.959c-1.083-0.885-1.313-1.631-2.16-2.642
		c-0.375,0.528-0.105,1.176,0,1.681c0.138,0.662,0.527,1.136,0.72,1.68c0.215,0.606,0.261,1.346,0.48,1.921
		c0.188,0.495,0.949,0.912,0.479,1.439c-1.683-0.157-3.997,0.317-5.28-0.238c0.498-1.904,1.979-4.1,1.2-6.482
		c-0.443,3.849-5.145,4.356-7.057,2.015c-1.386-1.698-1.958-6.75,2.735-7.296c0.898-0.104,1.778,0.428,2.641,0.722
		c-0.451-1.47-1.465-2.124-1.459-4.051C31.984,71.298,31.984,71.138,31.984,70.979"/>
	<path fill="#171717" d="M181.207,229.257c-0.291,2.021-1.227,2.9-2.659,3.392c-2.608,0.895-5.864-0.561-6.481-2.881
		c-0.545-2.056,0.599-3.443,1.922-5.281c-1.475,0.443-2.041,1.283-3.842,0.963c-1.595-0.287-2.694-2.051-2.881-2.881
		c-0.701-3.168,1.476-6.051,4.082-6.002c1.174,0.021,1.614,0.517,2.16,0.959c1.082,0.885,1.313,1.631,2.16,2.642
		c0.375-0.526,0.104-1.176,0-1.681c-0.139-0.661-0.527-1.137-0.721-1.68c-0.215-0.606-0.262-1.346-0.48-1.921
		c-0.188-0.495-0.949-0.911-0.479-1.438c1.683,0.156,3.996-0.318,5.279,0.238c-0.498,1.903-1.979,4.1-1.201,6.48
		c0.443-3.848,5.146-4.355,7.058-2.014c1.386,1.697,1.959,6.75-2.733,7.296c-0.899,0.104-1.779-0.429-2.643-0.722
		c0.452,1.469,1.465,2.123,1.459,4.051C181.207,228.938,181.207,229.098,181.207,229.257"/>
	<path fill="#171717" d="M60.584,59.74c0.571-3.956,2.404-5.681,5.208-6.643c5.108-1.75,11.485,1.099,12.692,5.642
		c1.069,4.027-1.17,6.745-3.762,10.343c2.888-0.867,3.997-2.511,7.521-1.882c3.125,0.561,5.279,4.012,5.642,5.642
		c1.377,6.202-2.886,11.847-7.991,11.752c-2.298-0.043-3.164-1.01-4.231-1.88c-2.12-1.73-2.569-3.192-4.229-5.172
		c-0.734,1.033-0.207,2.303,0,3.291c0.269,1.296,1.032,2.225,1.409,3.29c0.421,1.188,0.511,2.635,0.941,3.762
		c0.369,0.97,1.858,1.784,0.938,2.818c-3.295-0.308-7.827,0.622-10.34-0.468c0.975-3.729,3.876-8.026,2.35-12.693
		c-0.868,7.535-10.073,8.531-13.818,3.945C50.2,78.162,49.079,68.268,58.27,67.2c1.76-0.205,3.483,0.838,5.172,1.411
		c-0.884-2.877-2.869-4.158-2.857-7.932C60.584,60.365,60.584,60.052,60.584,59.74"/>
	<path fill="#171717" d="M95.531,136.026c0.57-3.957,2.403-5.681,5.207-6.643c5.108-1.75,11.487,1.098,12.692,5.642
		c1.069,4.027-1.17,6.745-3.762,10.342c2.889-0.866,3.998-2.51,7.521-1.882c3.125,0.561,5.278,4.013,5.643,5.643
		c1.376,6.202-2.887,11.847-7.992,11.752c-2.297-0.043-3.163-1.01-4.23-1.88c-2.121-1.73-2.569-3.191-4.229-5.172
		c-0.734,1.033-0.206,2.303,0,3.291c0.271,1.296,1.032,2.225,1.409,3.29c0.421,1.188,0.512,2.635,0.941,3.762
		c0.369,0.97,1.858,1.784,0.938,2.817c-3.295-0.307-7.827,0.623-10.34-0.467c0.976-3.729,3.876-8.027,2.351-12.693
		c-0.868,7.535-10.074,8.529-13.818,3.943c-2.715-3.323-3.836-13.219,5.355-14.287c1.76-0.204,3.482,0.838,5.171,1.412
		c-0.884-2.876-2.868-4.158-2.856-7.932C95.531,136.651,95.531,136.338,95.531,136.026"/>
	<path fill="#171717" d="M133.436,219.3c0.569-3.957,2.402-5.681,5.207-6.643c5.107-1.75,11.485,1.098,12.692,5.642
		c1.069,4.027-1.17,6.745-3.762,10.342c2.888-0.865,3.997-2.511,7.521-1.882c3.125,0.562,5.278,4.013,5.643,5.644
		c1.377,6.201-2.887,11.847-7.992,11.75c-2.297-0.041-3.163-1.01-4.23-1.879c-2.119-1.73-2.57-3.191-4.229-5.172
		c-0.734,1.033-0.207,2.304,0,3.291c0.27,1.297,1.031,2.226,1.408,3.291c0.422,1.188,0.512,2.635,0.94,3.762
		c0.37,0.97,1.859,1.783,0.939,2.818c-3.296-0.309-7.827,0.621-10.341-0.469c0.976-3.729,3.877-8.027,2.351-12.693
		c-0.868,7.535-10.073,8.53-13.817,3.944c-2.716-3.323-3.836-13.219,5.354-14.287c1.76-0.204,3.483,0.839,5.172,1.412
		c-0.884-2.877-2.869-4.157-2.856-7.932C133.436,219.925,133.436,219.611,133.436,219.3"/>
	<path fill="#1F1A17" d="M39.48,50.541c1.533,1.069,2.541,2.845,2.541,4.844v2.657c0,3.244-2.655,5.9-5.9,5.9
		c-3.246,0-5.9-2.655-5.9-5.9v-0.527h2.233c0.043,1.981,1.676,3.589,3.667,3.589c2.018,0,3.668-1.652,3.668-3.668v-1.234
		c0-2.017-1.65-3.669-3.668-3.669c-0.107,0-0.212,0.005-0.316,0.014v-3.499c0.104,0.01,0.209,0.015,0.316,0.015
		c1.876,0,3.41-1.536,3.41-3.41v-1.147c0-1.874-1.534-3.41-3.41-3.41s-3.41,1.534-3.41,3.41v0.003h-2.075v-0.762
		c0-3.017,2.468-5.485,5.485-5.485s5.485,2.47,5.485,5.485v2.47C41.606,47.968,40.771,49.535,39.48,50.541"/>
	<path fill="#1F1A17" d="M172.891,248.646c-1.533-1.068-2.541-2.846-2.541-4.845v-2.655c0-3.244,2.654-5.9,5.9-5.9
		c3.245,0,5.9,2.654,5.9,5.9v0.525h-2.233c-0.043-1.98-1.676-3.589-3.667-3.589c-2.018,0-3.668,1.653-3.668,3.669v1.234
		c0,2.016,1.65,3.668,3.668,3.668c0.105,0,0.212-0.006,0.316-0.014v3.498c-0.104-0.01-0.211-0.015-0.316-0.015
		c-1.876,0-3.41,1.537-3.41,3.41v1.147c0,1.873,1.534,3.409,3.41,3.409s3.41-1.534,3.41-3.409v-0.004h2.074v0.762
		c0,3.019-2.467,5.485-5.484,5.485s-5.484-2.47-5.484-5.485v-2.47C170.766,251.219,171.6,249.65,172.891,248.646"/>
</g>
</svg>
